<svg xmlns="http://www.w3.org/2000/svg" viewBox="0 0 232.8 88.07"><g id="Layer_2" data-name="Layer 2"><g id="Layer_1-2" data-name="Layer 1"><path d="M15,165.6c6.2-5.4,21.2-26.6,41.2-34.4s38.8-3.2,49.4,4.2c9.6,6.8,13.8,22.4,6.8,31.8-9,11.8-16.2,7-19.2,4-3.2-2.8-3.4-10.4,2.6-11.6,6.8-1.6,12.6-7.4,10-14-2.6-6.8-13.8-11-21.6-8.6-9.6,3-18.6,11.6-22,23.4-2.4,8.2.2,13.4,7,16.4,0,0-10.2,5.4-19-3.2-6-5.8-4.8-11.8-2.8-15,2.2-3.2,5.8-4.2,4.2-6.8-1.6-2.4-4-1.2-4.4,2.2-.6,3.4-1.6,7.8-4,11.2C39,171,21.6,187.4,0,171.8,0,171.8,8.8,171.2,15,165.6ZM123,120c9-.4,9.8,6.8,9.8,6.8-9,0-16.2,12.6-16.2,12.6s-7.6-12.6-16.2-12.6c0,0,.8-7.2,9.8-6.8,0,0-1-1.8-.6-6.4.2-4.6,4.8-11,7-23.2,2,12.2,6.8,18.6,7,23.2S123,120,123,120Zm66.6,45.2c-2.4-3.4-3.4-7.8-4-11.2-.4-3.4-2.8-4.6-4.4-2.2-1.6,2.6,2,3.6,4.2,6.8,2,3.2,3.2,9.2-3,15-8.6,8.6-18.8,3.2-18.8,3.2,6.8-3,9.4-8.2,7-16.4-3.4-11.8-12.4-20.4-22-23.4-7.8-2.4-19,1.8-21.6,8.6-2.6,6.6,3.2,12.4,10,14,6,1.2,5.8,8.8,2.6,11.6-3,3-10.2,7.8-19.2-4-7-9.4-2.8-25,6.8-31.8,10.6-7.4,29.4-12,49.4-4.2s35,29,41.2,34.4c6.2,5.6,15,6.2,15,6.2C211.2,187.4,193.8,171,189.6,165.2Z" transform="translate(0 -90.4)" style="fill:#fcbd20"/></g></g></svg>