<svg xmlns="http://www.w3.org/2000/svg" viewBox="0 0 177.6 177.6"><g id="Layer_2" data-name="Layer 2"><g id="Layer_1-2" data-name="Layer 1"><path d="M33.8,74.8,0,75V0H74.8V33.8h-41ZM0,177.6V87.4a2.65,2.65,0,0,1,2.6-2.6,2.69,2.69,0,0,1,2.8,2.6v90.2ZM28.4,28.4h41V5.4H5.4V69.6h23Zm78.4,12a13.32,13.32,0,0,1,3,9c0,10.2-8.2,15.4-16.4,15.4-8.6,0-15.2-6.2-16.4-15.4H49.4V77.2c9,1,15.4,7.6,15.4,16.2,0,8.2-5.4,16.4-15.4,16.4-4.8,0-7.6-1.6-9.2-3A9.68,9.68,0,0,1,37,99.6a9.2,9.2,0,0,1,7-8.8V82.6A12.88,12.88,0,0,0,33.8,95.2v82.4H28.4V95.2A18.13,18.13,0,0,1,44,77.2V46.8A2.69,2.69,0,0,1,46.6,44H77A18.49,18.49,0,0,1,95.2,28.4h82.4v5.4H95.2A12.88,12.88,0,0,0,82.6,44h8.2a9.07,9.07,0,0,1,8.8-6.8A9.3,9.3,0,0,1,106.8,40.4ZM49.4,82.6V93.2a2.69,2.69,0,0,1-2.8,2.6,3.9,3.9,0,0,0-4.2,3.8,4.72,4.72,0,0,0,1.4,3.2,8.89,8.89,0,0,0,5.6,1.6c6.8,0,10-5.6,10-11C59.4,87,54.6,83.4,49.4,82.6Zm55-33.2a9.31,9.31,0,0,0-1.6-5.6,5.15,5.15,0,0,0-3.2-1.4c-1.8,0-3.8,1.4-3.8,4.4a2.65,2.65,0,0,1-2.6,2.6H82.6c.8,5.2,4.4,10,10.8,10C98.6,59.4,104.4,56.4,104.4,49.4Zm73.2-44H87.4a2.65,2.65,0,0,1-2.6-2.6A2.69,2.69,0,0,1,87.4,0h90.2Z"/></g></g></svg>