<svg xmlns="http://www.w3.org/2000/svg" viewBox="0 0 576.08 150.05"><g id="Layer_2" data-name="Layer 2"><g id="Layer_1-2" data-name="Layer 1"><path d="M67.8,31v88c0,15.8-13.8,28.8-30.4,30.8a20.29,20.29,0,0,1-4.6.2c-17.4-1.2-31-13.2-30.8-29.4,0-23.2,24.6-20.8,22.8-8.8-11.8,0-13,28.8,9.2,28.8,9.8,0,13.6-14.4,13.6-21.6V86.4c-5.6,2.8-14.4,3-14.6,3C15.2,88.6,0,75,0,58.6V31C0,14.2,15.8.4,34,0,52,.4,67.8,14.2,67.8,31Zm-58,80.8c-3.2,4-3.6,9.6-2.4,14.6A23.43,23.43,0,0,0,28,144.2C19,141,11.8,134,9.8,124.6c-.6-3.8-.4-8,1.6-11.4,2.4-3.6,6.8-4.4,10.8-3A9.29,9.29,0,0,0,9.8,111.8Zm7.8-37.2a26.92,26.92,0,0,1-6.4-16.8c0-3.6.2-7,.2-10.6,0-6.4,0-13-.2-19.4a25.51,25.51,0,0,1,9.2-17.6A27.92,27.92,0,0,1,31.2,4.6H31A26.15,26.15,0,0,0,15,13,28.38,28.38,0,0,0,8.6,27.6c-.2,3.2,0,6.6,0,9.8,0,6.6,0,13.2.2,19.8a26.85,26.85,0,0,0,4.6,14.6,23.33,23.33,0,0,0,14.4,9.6A25.46,25.46,0,0,1,17.6,74.6ZM47.6,31c0-9.2-6.2-17.2-13.6-21.2-7.6,4-13.8,12-13.8,21.2V58.6c0,8.6,5.6,16.2,12.6,20.4l1.2.6c7.4-4,13.6-12,13.6-21Zm-4,111a29.12,29.12,0,0,0,12.2-15,34,34,0,0,0,2.8-12.6v-7.2c.2-9.8.2-19.6.2-29.4V48.2l-.4-15.6A37.36,37.36,0,0,0,54,16C50.8,10.2,45.8,5.6,39.2,4.4c2.8,1,5.8,2.2,8,4.4A32.36,32.36,0,0,1,55.4,24c1.4,6.2,1,12.2.8,18.6V57.4C56,67.2,56,77.2,56,87.2l.4,30a36.19,36.19,0,0,1-7.6,19c-3.2,4.6-8.4,7-13.8,8.2A25,25,0,0,0,43.6,142Z" style="fill:#fcbd20"/><path d="M151.2,75c0,41.4-16.6,75-37.2,75S76.8,116.4,76.8,75,93.4,0,114,0,151.2,33.6,151.2,75ZM110.6,5.4c-5.4,2.2-9.8,6.8-13,11.6a59.93,59.93,0,0,0-8,17.4c-3.8,12.8-4.4,26.6-4.2,40A196.58,196.58,0,0,0,87.2,96a121.41,121.41,0,0,0,4.2,20.6A77.67,77.67,0,0,0,99,133.8c3,5,7,9.6,12.8,11.6-5.4-2.4-9-7-11.8-12a87,87,0,0,1-6.8-18.2c-3.4-13.6-4.6-27.8-5-41.8-.4-13.6.2-27.8,4.2-41.2a65.76,65.76,0,0,1,6.8-15.4C101.8,12.6,105.8,7.8,110.6,5.4ZM131,75c0-35.4-7.6-64.2-17-64.2S97,39.6,97,75s7.6,64.2,17,64.2S131,110.4,131,75Zm-14.2,70.2c-.2,0-.4,0-.4.2C116.6,145.4,116.6,145.4,116.8,145.2Zm12-128.6a63.28,63.28,0,0,1,6.6,15c4.2,12.8,4.6,26.8,4.4,40.2-.2,14.4-1.4,28.8-4.8,42.6a76.83,76.83,0,0,1-6.8,18.6c-2.8,5.2-6.2,9.6-11.4,12.2,5.6-2.2,9.6-7,12.8-12a69.53,69.53,0,0,0,7.2-17.4c4-13.8,5.4-28,5.8-42.2.4-13.4-.4-27.2-4.4-40-2-6.2-4.4-12-8.2-17.2-3.2-4.6-7.6-9.6-13-11.2C122,7.2,126,12.2,128.8,16.6Z" style="fill:#fcbd20"/><path d="M296.12,118H276.44a1.55,1.55,0,0,1,1.68-1.8c1.92,0,2.16-8.52,2.16-9.23V54.26L262.4,111.49,244.17,52.7V93.5c0,10.44-1.92,27.11-15.12,31.07-15.84,4.56-28.08-4.56-31-13.32-3.36-10.31.48-19.07,5.64-23.63,7-6,19.08-4.56,21.48,2.76-3.6-3-17.76,2.28-12.48,15,2.16,5.39,8.76,6,14,4.19,8.16-2.76,9.48-11.76,9.72-17.63V36.14a43,43,0,0,1-10.32-3.36c-12.84-6.12-19.92-5.4-26.52-.6-10.08,7.32-13.32,24.36-2,29.88,9,4.32,17.28-1.68,18.48-5.88,5.28,7.08,1.56,14.76-5.4,18.36C206,77.06,199.53,77.3,194.85,76c-10-2.64-22.44-19.92-10.56-38.16C200.85,12.38,230,28,241.29,28c8.27,0,8.88-5.4,8.88-5.4,3.47,4.44,3.12,8.52.12,11.16l14.15,47.64L280.28,28h15.84a1.55,1.55,0,0,1-1.68,1.8c-1.92,0-2,8.64-2,9.24v67.92c0,.59.12,9.23,2,9.23A1.55,1.55,0,0,1,296.12,118Zm-90-48.47a15.26,15.26,0,0,1-10.32-1.08c-10.32-5.16-12.36-18.48-7.68-28.08a27.18,27.18,0,0,1,14-12.84c6-2.28,12.6-1.56,18.72.12s12.23,4.44,18.84,4.44c4.91,0,12.35-1.92,10.56-8.28-.49,7-8.52,7.2-13.92,6.6-6.6-.6-12.84-3.36-19.44-4.44-13.08-2-27,3.6-31.68,16.8-3.84,10.44,0,23.28,10.68,28.08a14.28,14.28,0,0,0,12.12,0c5.64-2.4,7.8-7.68,8-13.44C214.77,63.14,212.13,67.94,206.13,69.5Zm33.48,17.28c-.12,8.76-.84,18.83-6.84,25.67-4.56,5.4-13.44,7.32-19.68,3.84-6.72-3.84-9.6-13.08-7.08-20.15a12.66,12.66,0,0,1,17.52-7.56c-7.56-5.88-17.88-.24-19.92,8.52-2.52,10.19,3.84,22.31,15,22.91,6.24.36,12.6-2.28,16.2-7.32,5.4-7.67,6.11-17.27,6-26.39-.11-16.56-.35-33.12-.59-49.56C240,53.42,239.73,70.1,239.61,86.78Zm12.83-23.64c2.77,8.52,5.4,17,8.88,25.32-2-8.76-4.68-17.28-7.32-25.8s-5.4-16.92-8.75-25.2C247.17,46.1,249.8,54.74,252.44,63.14Zm17.64,8.52c-2.88,9.6-5.76,19.32-7.92,29.15,3.6-9.35,6.6-19.07,9.6-28.67s5.76-19.32,7.92-29.16C276.08,52.34,273.08,62.06,270.08,71.66Zm15.12,1.08c0,14.4.12,28.8.84,43.07.72-14.27.84-28.67.84-43.07s-.12-28.68-.84-43.08C285.32,44.06,285.2,58.46,285.2,72.74Z" style="fill:#ccc"/><path d="M320.25,111.49H300.57a1.55,1.55,0,0,1,1.68-1.8c1.92,0,2-8.75,2-9.23v-55c0-.48-.12-9.24-2-9.24a1.55,1.55,0,0,1-1.68-1.8h19.68a1.55,1.55,0,0,1-1.68,1.8c-2,0-2.16,9.36-2.16,9.36v54.84s.12,9.23,2.16,9.23A1.55,1.55,0,0,1,320.25,111.49Zm-11-38.15c0,12,.12,24,.84,36,.72-12.11.84-24.47.84-36.59,0-11.88-.12-23.76-.84-35.52C309.33,49.22,309.21,61.22,309.21,73.34Z" style="fill:#ccc"/><path d="M371.12,111.49H355.17L336.93,57.26v43.07s.12,9.36,2.16,9.36a1.63,1.63,0,0,1,1.68,1.8H325.41a1.55,1.55,0,0,1,1.68-1.8c1.92,0,2-8.51,2-9.23v-55c0-.72-.12-9.24-2-9.24a1.55,1.55,0,0,1-1.68-1.8h16l13.8,41.16V45.5c0-.72-.12-9.24-2-9.24a1.55,1.55,0,0,1-1.68-1.8h19.67a1.54,1.54,0,0,1-1.67,1.8c-1.92,0-2.16,8.64-2.16,9.24v55c0,.48.24,9.23,2.16,9.23A1.54,1.54,0,0,1,371.12,111.49ZM332,73.34c0,12,.12,24,.84,36,.72-12.11.84-24.47.84-36.59,0-11.88-.12-23.76-.84-35.52C332.13,49.22,332,61.22,332,73.34Zm14.4-2.28c3,8.52,6,17,9.6,25.2-2.28-8.76-5.16-17.28-8-25.68s-5.88-16.92-9.48-25.08C340.65,54.14,343.53,62.66,346.41,71.06Zm13.8,2.28c.12,12,.12,24,.84,36,.84-12.11,1-24.47.84-36.59,0-11.88-.12-23.76-.84-35.52C360.45,49.22,360.33,61.22,360.21,73.34Z" style="fill:#ccc"/><path d="M421.76,36.26c-2,0-2.15,9.36-2.15,9.36V92.9c0,10.08-8.64,18.23-19.56,18.59-10.8-.36-19.56-8.51-19.56-18.59V45.5c0-.48-.12-9.24-2-9.24a1.55,1.55,0,0,1-1.68-1.8h19.68a1.55,1.55,0,0,1-1.68,1.8c-2,0-2.16,9.36-2.16,9.36V92.9a14.51,14.51,0,0,0,7.44,12.71,14.27,14.27,0,0,0,7.44-12.71V45.5c0-.48-.12-9.24-2.16-9.24a1.52,1.52,0,0,1-1.56-1.8h19.68A1.64,1.64,0,0,1,421.76,36.26ZM385.65,76V87.62c0,3.12-.12,6.12.72,9.12a17.47,17.47,0,0,0,4.92,8c1.8,1.68,4.56,3.6,7.08,3.6-2.52-.24-4.92-2.39-6.48-4.31a18,18,0,0,1-4.32-8.16c-.6-3.12-.24-6.36-.24-9.48v-11c-.12-13-.24-25.92-.84-38.76C385.77,49.7,385.65,62.9,385.65,76Zm26.88-.6v11a41.78,41.78,0,0,1-.24,9.48,17,17,0,0,1-4.32,8.16c-1.68,1.92-4,4.07-6.6,4.31,2.88,0,5.64-2,7.56-4a18.9,18.9,0,0,0,4.8-8.16c.72-3,.48-6.24.48-9.24V76c0-13.08-.13-26.28-.84-39.36C412.77,49.46,412.65,62.42,412.53,75.38Z" style="fill:#ccc"/><path d="M476.72,61.34c0,1.68-1.68,3.48-3.35,4.2a5.75,5.75,0,0,1-6-1.08c-7.44-6.84,5.27-25.32-6.36-25.56h-2.76v61.56c0,.48.24,9.23,2.16,9.23a1.55,1.55,0,0,1,1.68,1.8H442.41a1.55,1.55,0,0,1,1.68-1.8c1.92,0,2-8.51,2-9.23V38.9h-2.64c-11.64.24,1,18.72-6.36,25.56a5.75,5.75,0,0,1-6,1.08c-1.44-.6-3.36-2.28-3.36-4.2a2.82,2.82,0,0,1,2.76-2.88,2.92,2.92,0,0,1,2.88,2.88c0,.12,0,.12-.12.24a1.7,1.7,0,0,0,.84-1.92c-.36-5.4-6-19.32-6-25.2h48.24c0,5.88-5.65,19.8-6,25.2a1.85,1.85,0,0,0,.71,1.92v-.24A2.93,2.93,0,0,1,474,58.46,2.81,2.81,0,0,1,476.72,61.34Zm-25.55,12c0,12,.12,24,.84,36,.72-12.11.84-24.47.84-36.59,0-11.88-.12-23.76-.84-35.52C451.29,49.22,451.17,61.22,451.17,73.34Z" style="fill:#ccc"/><path d="M520.16,111.49H481.29a1.55,1.55,0,0,1,1.68-1.8c1.92,0,2-8.51,2-9.23v-55c0-.72-.12-9.24-2-9.24a1.55,1.55,0,0,1-1.68-1.8h38c0,5.88-5.64,19.8-6,25.2a1.83,1.83,0,0,0,.71,1.92v-.24a2.82,2.82,0,1,1,5.64,0,4.79,4.79,0,0,1-3.36,4.2,5.69,5.69,0,0,1-6-1.08c-7.45-6.84,5.27-25.32-6.37-25.56h-6.84V82.1c1.21,0,9.25-.24,9.25-2.16a1.52,1.52,0,0,1,1.8-1.56v12a1.52,1.52,0,0,1-1.8-1.56c0-1.92-8-2.16-9.25-2.16v20.39h6.49c9.23-.36,11-15.35,11-19.19,0-5.28,5.52-3.84,5.52-3.84S516,94.22,520.16,111.49ZM490.05,73.34c0,12,.12,24,.84,36,.72-12.11.84-24.47.84-36.59,0-11.88-.12-23.76-.84-35.52C490.17,49.22,490.05,61.22,490.05,73.34Z" style="fill:#ccc"/><path d="M576.08,111.49H556.52s-1.32-1.8.48-1.8-3.24-8.75-3.6-9.23c-4.92-8.28-7.32-12-11.16-12v12c0,.48.24,9.23,2.16,9.23a1.55,1.55,0,0,1,1.68,1.8H526.41a1.55,1.55,0,0,1,1.67-1.8c1.92,0,2-8.51,2-9.23v-55c0-.72-.12-9.24-2-9.24a1.55,1.55,0,0,1-1.67-1.8H548A27,27,0,0,1,574.88,61.7a27.42,27.42,0,0,1-17.4,25.68l8,13.08s5.76,9.23,7.8,9.23A3.24,3.24,0,0,1,576.08,111.49ZM535.17,73.34c0,12,.12,24,.83,36,.72-12.11.84-24.47.84-36.59,0-11.88-.12-23.76-.84-35.52C535.29,49.22,535.17,61.22,535.17,73.34ZM563,61.58c0-12.48-8.88-22.68-19.68-22.68a3.32,3.32,0,0,0-1.08.12V84.26h1.08C553.88,84.26,563,74.18,563,61.58ZM547.88,37.1c3,.36,6,2.28,8.52,3.84a27.89,27.89,0,0,1,8.52,8.64,23,23,0,0,1,3.24,12.6,25.3,25.3,0,0,1-3.84,14A25.26,25.26,0,0,1,545.48,86.9a23.81,23.81,0,0,0,20.4-10.44,25.35,25.35,0,0,0,4-14.4A24.4,24.4,0,0,0,565,47.3a26.27,26.27,0,0,0-7.68-6.84C554.6,39,551.12,37.1,547.88,37.1Zm9.6,62.88a58.89,58.89,0,0,0,6.72,9.71,79.29,79.29,0,0,0-5.28-10.55,69.82,69.82,0,0,0-6.72-9.72A57.87,57.87,0,0,0,557.48,100Z" style="fill:#ccc"/></g></g></svg>