<svg xmlns="http://www.w3.org/2000/svg" viewBox="0 0 179.6 179.6"><g id="Layer_2" data-name="Layer 2"><g id="Layer_1-2" data-name="Layer 1"><path d="M34.8,75.8,1,76V1H75.8V34.8h-41ZM1,178.6V88.4a2.65,2.65,0,0,1,2.6-2.6,2.69,2.69,0,0,1,2.8,2.6v90.2ZM29.4,29.4h41V6.4H6.4V70.6h23Zm78.4,12a13.32,13.32,0,0,1,3,9c0,10.2-8.2,15.4-16.4,15.4-8.6,0-15.2-6.2-16.4-15.4H50.4V78.2c9,1,15.4,7.6,15.4,16.2,0,8.2-5.4,16.4-15.4,16.4-4.8,0-7.6-1.6-9.2-3a9.68,9.68,0,0,1-3.2-7.2,9.2,9.2,0,0,1,7-8.8V83.6A12.88,12.88,0,0,0,34.8,96.2v82.4H29.4V96.2A18.13,18.13,0,0,1,45,78.2V47.8A2.69,2.69,0,0,1,47.6,45H78A18.49,18.49,0,0,1,96.2,29.4h82.4v5.4H96.2A12.88,12.88,0,0,0,83.6,45h8.2a9.07,9.07,0,0,1,8.8-6.8A9.3,9.3,0,0,1,107.8,41.4ZM50.4,83.6V94.2a2.69,2.69,0,0,1-2.8,2.6,3.9,3.9,0,0,0-4.2,3.8,4.72,4.72,0,0,0,1.4,3.2,8.89,8.89,0,0,0,5.6,1.6c6.8,0,10-5.6,10-11C60.4,88,55.6,84.4,50.4,83.6Zm55-33.2a9.31,9.31,0,0,0-1.6-5.6,5.15,5.15,0,0,0-3.2-1.4c-1.8,0-3.8,1.4-3.8,4.4a2.65,2.65,0,0,1-2.6,2.6H83.6c.8,5.2,4.4,10,10.8,10C99.6,60.4,105.4,57.4,105.4,50.4Zm73.2-44H88.4a2.65,2.65,0,0,1-2.6-2.6A2.69,2.69,0,0,1,88.4,1h90.2Z" style="stroke:#000;stroke-miterlimit:10;stroke-width:2px"/></g></g></svg>