<svg xmlns="http://www.w3.org/2000/svg" viewBox="0 0 1289.55 455.35"><g id="Layer_2" data-name="Layer 2"><g id="Layer_1-2" data-name="Layer 1"><path d="M342.16,218.45c-3.2,9.92-17.4,20.34-36.6,17.73-23-3-36-18-48.6-31.53-18.2,4.42-37.2,10-53.4,15.63-59.2,21.32-136,41-182-5.93C-22.64,168.45,4.36,86.86,73,113.41c-2.6.41-55.2-.33-46.2,58.06,3.8,25.43,27.4,58.63,76.2,58.25,47-.27,101.6-18.45,149-30.53l-3.2-3.05c-14.2-14-27.6-3.71-21.4,4.5-10.4,1.26-13.8-8.11-9-14.31q-6.71-39-13.4-78-7,29.86-14,59.65c-.2,1-3.2,15.21,0,15.4,3,.18,2,3.12,2,3.12q-16.69-1-33.4-2.38s-.8-3.06,2.2-2.81c3.4.28,1-14.92.8-15.34q-8-46.45-16-93c-.2-.42-3-15.69-6.4-16A3.62,3.62,0,0,1,137,53.6q16.39,1.73,32.8,3s.8,3.06-2.2,2.83c-3.4-.27-1,14.52-.8,15.33q7,40.46,14,80.83s18.4-78.86,18.6-79.29c-.6-3-3.2-15-6.2-15.14a3.41,3.41,0,0,1-3.2-3.19q13.2.8,26.4,1.31,8.7,49.44,17.4,98.77,9.19-39.65,18.4-79.43c0-.4,3.2-15.35,0-15.4s-2-3-2-3q12.71.18,25.4.16a3.45,3.45,0,0,1-3.4,3c-3.2,0-6.8,14.59-7.2,15.38q-10.5,45.75-21,91.35c-.2.79-1.8,8.36-1.6,12.57,7,2.74,13.8,8,21.2,13.87,23.4-5.45,44.8-8.49,62-5.64C342,194.9,346.16,206.06,342.16,218.45Zm-313.6-97c-9,6.5-14.6,16.4-16.6,27.94-3.2,19.83,3,43.79,18.6,61.28a74.86,74.86,0,0,0,29.8,20.17c21,8.15,43.2,8.37,64,6s41-7.83,61-13.95c37-11.65,75-25.68,114.8-30-23.6,2.21-46.4,8.1-68.8,14.47-40.4,11.62-79.6,26.87-121.8,27.83-18.8.57-38.2-2.07-56.6-11.49-15.4-7.86-27.4-22.67-33.2-38.95-6.4-18-6-37.73,2.6-51.43,8.6-14.1,26.4-21.42,44.2-21C52.76,110.57,38.56,114.18,28.56,121.45Zm134.8-1.19c3.8,19.91,7.8,39.82,12.6,59.56-2.6-20.38-6.2-40.65-10-60.95-3.8-19.5-7.6-39.22-12.4-58.65C156.16,80.25,159.76,100.17,163.36,120.26Zm28.6,9.4c-2.8,11.64-5.6,23.26-7.2,35.16a342.46,342.46,0,0,0,9.8-34.21,301.56,301.56,0,0,0,7.2-35.22A347.43,347.43,0,0,0,192,129.66Zm24.6-6.2c3.8,19.75,7.8,39.49,12.6,59-2.6-20.27-6.2-40.39-10-60.53-3.8-19.34-7.6-38.9-12.4-58.12C209.36,83.76,213,103.52,216.56,123.46Zm31.8-6.72c-3.8,16.73-7.4,33.46-10,50.4,5-16.68,9.2-33.61,13-50.76,4-16.94,7.6-34.11,10.4-51.49C256.56,82.06,252.36,99.4,248.36,116.74Zm42,106.49c9,4.9,19.2,7.7,29.6,5.6,9.2-1.66,19.6-8.68,18.6-19.24a17.54,17.54,0,0,0-17.4-15.8c8.4,1.35,15.4,7.88,15.4,16.68,0,10-11.6,15.23-19.8,16.05-9.8,1.06-19-1.77-27.4-6.08a133.6,133.6,0,0,1-20.6-13.51A97.35,97.35,0,0,0,290.36,223.23Zm38.2-19.47c.2-9.22-27.8-8.95-58.4-2.23,11,8,22.8,15.12,37,14.82C320,215.87,328.36,209.36,328.56,203.76Z" style="fill:#fcbd20"/><path d="M348.56,187q-32.4,1.44-64.8,1.72a2.61,2.61,0,0,1,2.8-3c3.2,0,3.4-14.24,3.4-15.44V78.63c0-1.2-.2-15.39-3.4-15.36a2.57,2.57,0,0,1-2.8-3q31.69-.23,63.4-1.66c0,9.81-9.4,33.4-10,42.42-.2,1.6.4,2.78,1.2,3.15v-.4a5.11,5.11,0,0,1,4.8-5,4.59,4.59,0,0,1,4.6,4.6c0,2.8-2.2,5.9-5.6,7.24-2.8,1.11-7,1.48-10-1.42-12.4-11,8.8-42.48-10.6-42.25q-5.7.18-11.4.31v72c2,0,15.4-.81,15.4-4a2.62,2.62,0,0,1,3-2.7v20s-3,.5-3-2.5c0-3.19-13.4-3.21-15.4-3.18v34c3.6-.08,7.2-.18,10.8-.28,15.4-1.08,18.4-26.26,18.4-32.64,0-8.79,9.2-6.78,9.2-6.79S341.56,158.48,348.56,187Zm-50.2-62c0,20,.2,40,1.4,60,1.2-20.22,1.4-40.82,1.4-61,0-19.8-.2-39.6-1.4-59.17C298.56,84.72,298.36,104.72,298.36,124.92Z" style="fill:#fcbd20"/><path d="M365.16,66.36c-3.4-1.41-8.8-3.35-8.8-9.35a10.83,10.83,0,0,1,10-10.51c17.4-1,13.2,35.28-4.8,34.85C367.56,76.64,369,68.56,365.16,66.36Z" style="fill:#fcbd20"/><path d="M467.75,178.46q-16.29,1.53-32.59,2.89s-2.21-2.82.8-3.07c3.19-.26-5.4-14.15-6-14.9-8.2-13.14-12.21-19-18.6-18.56v20c0,.8.4,15.37,3.6,15.13a2.4,2.4,0,0,1,2.8,2.79Q401.35,184,385,185a2.77,2.77,0,0,1,2.8-3.18c3.19-.2,3.39-14.42,3.4-15.62V74.62c0-1.2-.21-15.38-3.4-15.18a2.42,2.42,0,0,1-2.8-2.82q18-1.12,36-2.53c24.8-1.92,44.79,16.35,44.8,41.56,0,19.59-12,37.34-29,45.37q6.69,10.33,13.39,20.65s9.6,14.54,13,14.22A4.79,4.79,0,0,1,467.75,178.46Zm-68.19-58c0,20,.2,40,1.4,59.9,1.2-20.28,1.4-40.89,1.4-61.09,0-19.8-.2-39.59-1.4-59.1C399.76,80.25,399.56,100.26,399.56,120.46ZM446,97.23c0-20.8-14.81-36.48-32.8-35.14a5.71,5.71,0,0,0-1.8.33v75.4l1.8-.13C430.76,136.38,446,118.23,446,97.23Zm-25.2-38.72c5,.21,10,3,14.2,5.26A41.18,41.18,0,0,1,449.16,77a36,36,0,0,1,5.4,20.51,45.07,45.07,0,0,1-6.4,24,46.2,46.2,0,0,1-31.41,20.37c13.21-.39,26.8-8.56,34-20.2A45.18,45.18,0,0,0,457.35,97a37.54,37.54,0,0,0-8-23.88,38.8,38.8,0,0,0-12.79-10.3C432,60.82,426.16,58.09,420.76,58.51Zm16,103.51A85.7,85.7,0,0,0,448,177.26a119.82,119.82,0,0,0-8.8-16.84c-3.41-5.32-7-10.82-11.2-15.28A86.75,86.75,0,0,0,436.76,162Z" style="fill:#fcbd20"/><path d="M542.35,170.7q-32.4,3.65-64.8,6.82a2.88,2.88,0,0,1,2.8-3.27c3.2-.31,3.41-14.53,3.41-15.73V66.92c0-1.2-.21-15.38-3.41-15.07a2.35,2.35,0,0,1-2.8-2.72Q509.26,46,541,42.46c0,9.8-9.4,34.05-10,43.11-.2,1.62.4,2.76,1.2,3.07v-.4a5.58,5.58,0,0,1,4.8-5.33,4.22,4.22,0,0,1,4.6,4.28c0,2.8-2.2,6-5.6,7.63-2.8,1.31-7,2-10-.7-12.4-10.06,8.81-43.15-10.6-41.46L504,53.87v72c2-.21,15.41-2,15.4-5.24a2.85,2.85,0,0,1,3-2.92v20s-3,.72-3-2.28c0-3.19-13.4-2.17-15.4-2v34l10.8-1.14c15.4-2.26,18.4-27.61,18.4-34,0-8.8,9.2-7.43,9.2-7.43S535.35,142.69,542.35,170.7Zm-50.2-58.22c0,20,.2,40,1.41,59.85,1.19-20.32,1.4-40.94,1.39-61.14,0-19.8-.19-39.58-1.39-59C492.35,72.26,492.16,92.28,492.15,112.48Z" style="fill:#fcbd20"/><path d="M767.35,96.4a38,38,0,0,1-7.2,4v37c0,.4.2,15.38,3.6,15,3-.32,2.6,2.72,2.6,2.72q-16.3,1.77-32.6,3.64a2.85,2.85,0,0,1,2.6-3.29c3.4-.39,3.6-15,3.6-15.81v-36.2a134.75,134.75,0,0,1-19.6-2.75,45.77,45.77,0,0,0-11-1.31v21.4c0,17.41-3.2,45.57-25.2,54.81-26.4,10.77-46.8-1.93-51.6-15.95a39.7,39.7,0,0,1,9.4-40.54c9.8-9.59,26-11.16,33-4.21a54.65,54.65,0,0,1,18.8-18.05l2.8-1.34V26.71a65.89,65.89,0,0,1-17.2-3.53c-21.4-7.62-33.2-5-44.2,4.36-16.8,14.23-22.2,43.29-3.4,50.21,15,5.38,28.8-6.3,30.8-13.54,8.8,10.73,2.6,24.28-9,31.69-7.8,5.15-18.6,6.86-26.4,5.61-16.6-2.39-37.4-28.7-17.6-61.48,27.6-45.72,76.2-25.67,95-27.87,13.8-1.63,14.8-10.73,14.8-10.74,8.8,10,3,20.25-10,24V92c10.4-1.22,21.2.33,30.6-.14V26.45c0-1-.2-15.38-3.6-15-3,.34-2.6-2.7-2.6-2.7q16.31-1.87,32.6-3.65a2.85,2.85,0,0,1-2.6,3.29c-3.4.37-3.6,15.39-3.6,15.79v61.2c9.2-6.41,8.2-14.49,8.2-14.49C778.55,76.2,776,90.68,767.35,96.4Zm-121.4-8a25,25,0,0,1-17.2.29c-17.2-6.51-20.6-28.31-12.8-45.25a53.93,53.93,0,0,1,23.4-24.23c10-5,21-5.16,31.2-3.59C681,17.38,691,20.58,702,19.27c8.2-1,20.6-5.62,17.6-15.87-.8,11.69-14.2,13.66-23.2,13.74-11,.31-21.4-3-32.4-3.5-21.8-.76-45,11.47-52.8,34.4-6.4,18.17,0,38.81,17.8,44.65,6.6,2.2,13.6,1.35,20.2-2.46,9.4-5.14,13-14.38,13.4-24C660.35,76.07,656,84.61,646,88.42Zm55.8,22.07c-.2,14.63-1.4,31.57-11.4,44.16-7.6,9.91-22.4,14.9-32.8,10.36-11.2-5-15.8-19.88-11.8-32.16,4.4-12.94,17.4-20.12,29.2-16.14-12.6-8.28-29.8,3.21-33.2,18.22-4.2,17.51,6.4,36.42,25.2,35.14a35.53,35.53,0,0,0,26.8-15.42c9-13.88,10.2-30,10-45.19-.2-27.58-.6-55.13-1-82.48C702.35,54.82,702,82.67,701.75,110.49Zm-5.2,9.22v-17.8a38.32,38.32,0,0,0-18.8,17.26l-.2.22v-.2c-5.8-3.9-29.4,7.56-20.6,27.69,3.6,8.57,14.6,8.23,23.4,4.17C694,144.82,696.15,129.56,696.55,119.71ZM686,106.38c2.8-2.74,6.4-4.57,9.8-6.77-7.6,2.3-13.8,8.65-18,15.36C680.55,112.23,683,108.94,686,106.38Zm53.6-9.49c-9.4-1.73-19.8-2.72-29.8-.94C719.55,96.59,729.75,97.61,739.55,96.89Zm9.2-15.63c0,24,.2,48,1.4,71.84,1.2-24.14,1.2-48.14,1.4-72.16-.2-23.78-.2-47.78-1.4-71.64C749,33.43,748.75,57.46,748.75,81.26Zm20.4-8.85c.4,8.36-1.8,15.19-9,20.78C768.55,89.87,772,80.11,769.15,72.41Z" style="fill:#fcbd20"/><path d="M855.35,135.7q-16.3,1.35-32.6,2.88a2.32,2.32,0,0,1,2.2-3.21c3.2-.29,1-14.69.8-15.47q-1.1-6.11-2.2-12.2c-22.4-5.48-28.8,9.24-30.4,16-.6,3.07-2.8,15.09,0,14.8,3.2-.32,2.2,2.78,2.2,2.78q-12.79,1.31-25.6,2.68a4,4,0,0,1,3.4-3.36c3.4-.37,7-15.35,7.2-16.17q10.5-46.9,21-93.75c.2-.82,3.4-15.74,0-15.4-3,.3-2-2.8-2-2.8q16.71-1.68,33.4-3.2a2.31,2.31,0,0,1-2.2,3.2c-3.2.29-.8,15.07-.8,15.47q6.11,33.84,12.2,67.71c4.8-3.82-.2-9.18-.2-9.18,12.6-1.09,15.6,16.87,2.4,21.79l1.8,9.84c0,.4,2.8,15.16,6.2,14.87A2.88,2.88,0,0,1,855.35,135.7ZM795.55,79c-4.6,19.67-9,39.52-12.4,59.28,5.8-19.81,10.8-39.92,15.4-60,4.4-19.25,8.8-38.48,12.2-58C805,39.89,800.15,59.57,795.55,79Zm26.2,19.23-10.2-56.82q-7,31.19-14,62.39C807.55,97.83,815.15,97.7,821.75,98.27Zm.6,4.55c-7.4-3.51-19.6-1.71-24.4,6.78C805.15,103.27,813.75,102.62,822.35,102.82Zm4.4-25.21c3.6,18.86,7.2,37.93,12,56.51-2.2-19.41-5.8-38.28-9.2-57.17-3.6-18.87-7.4-37.92-12.2-56.46C819.75,39.66,823.15,58.74,826.75,77.61Z" style="fill:#fcbd20"/><path d="M929.15,130.72q-32.4,1.64-64.8,4.25a2.82,2.82,0,0,1,2.8-3.22c3.4-.27,3.4-15.66,3.4-15.66V24.69s0-15.6-3.4-15.34a2.38,2.38,0,0,1-2.8-2.78q16.39-1.3,32.8-2.38a2.93,2.93,0,0,1-2.8,3.18c-3,.21-3.4,13-3.6,15.45v102.8q5.4-.37,10.8-.72C917,123.34,920,98.22,920,91.81c0-8.81,9.2-6.89,9.2-6.89S922.15,102.28,929.15,130.72Zm-50.4-60.45c0,20,.2,40,1.4,59.9,1.2-20.29,1.4-40.9,1.4-61.1,0-19.8-.2-39.59-1.4-59.1C879,30.06,878.75,50.07,878.75,70.27Z" style="fill:#fcbd20"/><path d="M1000,44.89c0,2.8-2.4,6-5.6,7.07-2.8.84-7,1.32-10-1.62C972,39.22,993.15,7.92,973.75,8q-5.7.15-11.4.34v72c2-.09,15.4-.86,15.4-4a2.6,2.6,0,0,1,3-2.68v20s-3,.47-3-2.53c0-3.21-13.4-3.24-15.4-3.15v23.2c.2,1.79.4,15.18,3.6,15.08a2.52,2.52,0,0,1,2.8,2.92q-16.41.48-32.8,1.26a2.72,2.72,0,0,1,2.8-3.13c3.4-.16,3.4-15.55,3.4-15.55V20.31s0-15.6-3.4-15.45A2.46,2.46,0,0,1,936,2Q967.65.49,999.35.1c0,9.79-9.4,33.12-10,42.14-.2,1.61.4,2.8,1.2,3.18V45a5,5,0,0,1,4.8-4.87A4.76,4.76,0,0,1,1000,44.89Zm-49.6,21.27c0,20,.2,40,1.4,60,1.2-20.25,1.4-40.85,1.4-61,0-19.8-.2-39.6-1.4-59.15C950.55,26,950.35,46,950.35,66.16Z" style="fill:#fcbd20"/><path d="M1144.14,5.88a3.06,3.06,0,0,1-3.4,2.67c-3.2-.3-6.79,14-7.2,14.74q-10.5,44.88-21,89.94c-.2,1-3.39,15.16,0,15.4,3,.21,2,3.14,2,3.14q-13.69-1-27.39-1.67-6.81-39.73-13.6-79.41-7,29.93-14,59.92c-.21,1-3.21,15.31,0,15.4,3,.09,2,3.06,2,3.06q-16.71-.51-33.4-.63s-.81-3,2.2-3c3.4,0,1-15,.8-15.4q-8-45.87-16-91.66c-.2-.4-3-15.4-6.4-15.38a3.15,3.15,0,0,1-3.2-3q16.4-.12,32.8.11s.8,3-2.2,3c-3.4,0-1,14.59-.8,15.39q7,40,14,80S1067.74,19,1068,18.68c-.61-3-3.21-14.91-6.2-15a3.29,3.29,0,0,1-3.2-3.1q13.2.39,26.4,1,8.7,49.52,17.39,99.16,9.21-39.33,18.4-78.52c0-.4,3.21-15.15,0-15.4s-2-3.15-2-3.15Q1131.45,4.64,1144.14,5.88ZM1032,64.27c3.79,19.64,7.79,39.29,12.6,58.78-2.61-20.25-6.2-40.31-10-60.35-3.8-19.24-7.61-38.67-12.4-57.69C1024.75,24.82,1028.34,44.44,1032,64.27Zm28.59,8c-2.8,11.72-5.6,23.44-7.19,35.4a357.28,357.28,0,0,0,9.8-34.52,307.92,307.92,0,0,0,7.19-35.35A352.34,352.34,0,0,0,1060.54,72.24Zm24.6-6.43c3.8,19.78,7.8,39.59,12.6,59.27-2.59-20.35-6.19-40.55-10-60.74-3.81-19.39-7.6-39-12.41-58.17C1078,26.07,1081.54,45.83,1085.14,65.81Zm31.8-5.66c-3.79,16.52-7.39,33.07-10,49.9,5-16.47,9.2-33.16,13-50.07,4-16.7,7.61-33.6,10.4-50.76C1125.14,26,1120.94,43.05,1116.94,60.15Z" style="fill:#fcbd20"/><path d="M1268.14,192.42c-3.8,9-19,13.25-36.6,6.29-15.6-6.2-25-22.4-31.19-40.74-22.4,1-48.21,6.08-69.6,12.28-59.8,16.41-136.4,54.25-179.4,34.27C917.15,188.73,935,136.39,974,143c0,0-21.8,6.88-16.4,27.71,6,24,39.6,18.81,72.6,13.56,41.8-7.24,114-31.27,168.19-32.78-3.59-11.93-8.8-39.66-9.4-42.74-22.19-10.59-28.6,2.88-30.19,9.26-.61,2.93-2.8,14.49,0,14.8a2.21,2.21,0,0,1,2,3.22q-12.7-1.42-25.4-2.56a3.08,3.08,0,0,1,3.4-2.69c3.19.3,6.79-13.75,7.2-14.71q10.5-44.76,21-89.33c.19-.77,3.39-15,0-15.4-3-.35-2-3.23-2-3.23q16.69,1.94,33.39,4.39s1,3.14-2.2,2.68-.8,14.88-.8,15.28c0,0,7.21,41.84,12.2,70.63,4.81-2.64-.2-9.23-.2-9.23,12.61,2,15.61,20.73,2.4,22.38.4,2.26,3.6,24.37,6.6,37.26,16.81,1,31.2,4.2,40.4,11.31C1264.14,168.51,1273.34,180.57,1268.14,192.42Zm-321-32.13c-3.8,8.56-3,19.93,2.2,27.51,7.6,11.29,23.2,13.55,36.2,13.71,14.4.12,29-2.18,43-5.27,11-2.71,21.8-5.91,32.6-9.18,14-4.18,28-8.53,42-12.65,27-7.7,54-15.16,82-18.4a172.14,172.14,0,0,1,40.6-.33c10.8,1.26,24.4,4.11,32.8,13.48-5-5.85-12.2-9.29-19-11.17-8.79-2.87-17.8-3.84-26.6-4.26-28.19-1.35-55.4,4-82.19,10.72-28,6.81-55.4,15.64-83.4,23.66-10.8,3-21.6,5.87-32.6,7.89-14,2.42-28.8,4.24-42.8,1.63-6.6-1-13.4-3.38-18.4-8.19-4.4-4.43-6.4-10.55-6.8-16.73a26.81,26.81,0,0,1,5.8-18.83,28.17,28.17,0,0,1,14.8-9.51C958.55,145.63,950.55,152.15,947.15,160.29Zm214-86.43c-4.6,18.68-9,37.62-12.4,56.67,5.8-18.61,10.8-37.66,15.4-56.73,4.39-18.3,8.79-36.56,12.2-55.33C1170.55,36.74,1165.75,55.37,1161.15,73.86Zm26.19,25c-3.39-19.06-7.6-44.21-10.19-58.94q-7,29.5-14,59.11C1173.15,95.23,1180.54,96.79,1187.34,98.91Zm.6,4.69c-7.39-5.24-19.59-6.14-24.39,1.33C1170.75,100.15,1179.34,101.41,1187.94,103.6Zm4.4-24.19c3.61,19.71,7.21,39.63,12,59.37-2.19-19.94-5.8-39.68-9.19-59.37-3.61-19.72-7.4-39.65-12.21-59.29C1185.34,39.84,1188.75,59.7,1192.34,79.41Zm20,89.22c4,12.05,13.2,24.33,26,27.53,6.6,1.63,13.41.59,18.2-2.81,4.4-3.09,7.6-8.6,6.2-14.9a12.72,12.72,0,0,1-.2,4c-2.6,11.82-17.79,14.86-29.2,9.43-11.8-5.75-19.4-19-22.8-30.7A52.88,52.88,0,0,0,1212.35,168.63Zm43.39,6.15c-1.79-10-17.2-16-37.8-17,3.61,12.6,8.6,24.64,16.4,28.47C1247.74,192.68,1257.34,183.92,1255.74,174.78Z" style="fill:#fcbd20"/><path d="M1289.55,30.17a2.82,2.82,0,0,1-3.6,2.13c-3.4-.82-7.6,11.21-8.2,13.48-3.8,16.1-15.4,64.17-15.4,64.19v24c0,1,.4,15.49,3.6,16.18a3.28,3.28,0,0,1,2.8,3.61q-16.41-3.62-32.8-6.64a2.13,2.13,0,0,1,2.8-2.47c3.2.6,3.4-13.56,3.4-14.76v-20.2q-8.2-37.28-16.4-74.4c-.2-.43-5-16.27-8.4-16.83a4.64,4.64,0,0,1-3.6-3.59q16.39,2.67,32.8,5.88s1.2,3.23-1.8,2.64.8,14.16,1.2,15.64q5.1,22.89,10.2,45.85s6.6-31.43,8.8-41.95c.4-1.91,3.6-14.61,1-15.18a2.4,2.4,0,0,1-2-3.43Q1276.74,27.06,1289.55,30.17Zm-38,77c.2,13.24.6,26.12,1.4,39.28.6-12.48,1-25.2,1.2-37.76,0-3.6-1.6-7.52-2.4-11.28q-1.3-5.27-2.6-10.52-2.31-9-4.6-17.91c-4-15.57-8.2-31-13-46.43C1237.15,50.72,1244.15,78.84,1251.55,107.13Zm14.2-44.63a304.09,304.09,0,0,0-5.8,33c3.59-10.24,6-21.12,8.6-31.75,2.2-10.72,4.6-21.58,5.8-32.91A279.78,279.78,0,0,0,1265.75,62.5Z" style="fill:#fcbd20"/><path d="M217.56,327.1c0,2.8-2.8,5.69-5.6,6.77a9.73,9.73,0,0,1-10-2.27c-12.4-12.06,8.8-41.71-10.6-43.17l-4.6-.28v102.6c0,.79.4,15.42,3.6,15.61a2.76,2.76,0,0,1,2.8,3.17q-16.4-.94-32.8-2.32a2.38,2.38,0,0,1,2.8-2.77c3.2.26,3.4-13.92,3.4-15.12V286.72l-4.4-.36c-19.4-1.28,1.6,31.36-10.6,41.68-3.2,2.71-7.2,2.12-10,.84-2.4-1.24-5.6-4.38-5.6-7.58a4.15,4.15,0,0,1,4.6-4.32,5.5,5.5,0,0,1,4.8,5.27c0,.2,0,.2-.2.38,1-.3,1.6-1.44,1.4-3.06-.6-9.05-10-33.2-10-43,26.8,2.82,53.6,4.67,80.4,5.71,0,9.81-9.4,32.62-10,41.58a3.17,3.17,0,0,0,1.2,3.25v-.4a4.62,4.62,0,0,1,4.8-4.59A4.94,4.94,0,0,1,217.56,327.1ZM175,344.75c0,20,.2,40,1.4,60.1,1.2-20.11,1.4-40.7,1.4-60.9,0-19.8-.2-39.61-1.4-59.3C175.16,304.57,175,324.55,175,344.75Z" style="fill:#fcbd20"/><path d="M296,372.36v20.8s.2,15.39,3.6,15.34c3-.06,2.6,2.95,2.6,2.95q-16.4.3-32.8.28a2.72,2.72,0,0,1,2.8-3c3.4,0,3.6-14.6,3.6-15.4v-26.2c-24.2-8-23.8,17.22-23.8,17.26v8.8s.2,15.41,3.6,15.45a2.61,2.61,0,0,1,2.8,3q-16.4-.15-32.8-.68a2.5,2.5,0,0,1,2.8-2.91c3.2.1,3.4-14.5,3.4-15.3v-91.6c0-.8-.2-15.4-3.4-15.5a2.68,2.68,0,0,1-2.8-3.09q16.4.54,32.8.69a2.56,2.56,0,0,1-2.8,3c-3.4,0-3.6,15.55-3.6,15.55v61l3-1.76c7.8-4.31,14.6-3.09,20.8-1.9v-57.4c0-.8-.2-15.4-3.6-15.4a2.72,2.72,0,0,1-2.8-3q16.39,0,32.8-.28s.4,3-2.6,3.05c-3.4.06-3.6,15.65-3.6,15.66v57a4.21,4.21,0,0,0,1.8-5.43c13.6.35,10.6,16.6.4,18.79C297.36,372.13,296.56,372.35,296,372.36Zm-55.8-24.58c0,20,.2,40,1.4,60,1.2-20.18,1.4-40.77,1.4-61,0-19.8-.2-39.6-1.4-59.23C240.36,307.59,240.16,327.58,240.16,347.78ZM274,363.53c-7-4.78-18-2.87-22.2,4.86C258.56,363.28,265.76,362.14,274,363.53Zm10-15.44c0,20,.2,40,1.4,60,1.2-20.21,1.4-40.81,1.4-61,0-19.8-.2-39.6-1.4-59.19C284.16,307.89,284,327.89,284,348.09Z" style="fill:#fcbd20"/><path d="M379,408.38q-32.4,1.94-64.8,2.81a2.67,2.67,0,0,1,2.8-3.08c3.2-.09,3.4-14.3,3.4-15.49V301c0-1.2-.2-15.4-3.4-15.31a2.51,2.51,0,0,1-2.8-2.92q31.69-.81,63.4-2.72c0,9.8-9.4,33.54-10,42.56-.2,1.61.4,2.78,1.2,3.14v-.4a5.22,5.22,0,0,1,4.8-5.07,4.5,4.5,0,0,1,4.6,4.53c0,2.8-2.2,5.93-5.6,7.33-2.8,1.16-7,1.58-10-1.26-12.4-10.78,8.8-42.63-10.6-42.08-3.8.17-7.6.34-11.4.49v72c2-.06,15.4-1.07,15.4-4.28a2.67,2.67,0,0,1,3-2.75v20s-3,.55-3-2.45c0-3.19-13.4-3-15.4-2.92v34q5.4-.21,10.8-.47c15.4-1.33,18.4-26.54,18.4-32.93,0-8.79,9.2-6.92,9.2-6.93S372,380,379,408.38Zm-50.2-61.23c0,20,.2,40,1.4,60,1.2-20.24,1.4-40.85,1.4-61.05,0-19.8-.2-39.59-1.4-59.15C329,306.94,328.76,327,328.76,347.15Z" style="fill:#fcbd20"/><path d="M472.16,401q-16.31,1.56-32.6,2.94s-2.2-2.81.8-3.07c3.2-.27-5.4-14.14-6-14.89-8.2-13.13-12.21-19-18.6-18.53v20c0,.8.4,15.37,3.6,15.13a2.38,2.38,0,0,1,2.8,2.78q-16.41,1.28-32.8,2.34a2.77,2.77,0,0,1,2.8-3.18c3.2-.21,3.39-14.43,3.4-15.63v-91.6c0-1.2-.2-15.38-3.4-15.17a2.41,2.41,0,0,1-2.8-2.82q18-1.15,36-2.59c24.8-2,44.8,16.27,44.8,41.48,0,19.6-12,37.37-29,45.42q6.69,10.32,13.4,20.62s9.6,14.53,13,14.21A4.82,4.82,0,0,1,472.16,401ZM404,343.15c0,20,.2,40,1.4,59.9,1.2-20.28,1.4-40.9,1.4-61.1,0-19.8-.2-39.58-1.4-59.09C404.16,302.94,404,323,404,343.15Zm46.4-23.3c0-20.8-14.8-36.47-32.8-35.09a5.71,5.71,0,0,0-1.8.33v75.4l1.8-.14C435.16,359,450.35,340.85,450.36,319.85Zm-25.2-38.69c5,.21,10,3,14.2,5.24a41.29,41.29,0,0,1,14.2,13.16,36,36,0,0,1,5.4,20.52,45,45,0,0,1-6.4,24,46.35,46.35,0,0,1-31.4,20.43c13.2-.42,26.8-8.61,34-20.26a45.06,45.06,0,0,0,6.59-24.6,37.54,37.54,0,0,0-8-23.87A38.66,38.66,0,0,0,441,285.47C436.36,283.46,430.55,280.74,425.16,281.16Zm16,103.49a85.56,85.56,0,0,0,11.2,15.22,118.66,118.66,0,0,0-8.8-16.83c-3.4-5.31-7-10.8-11.2-15.26A85.85,85.85,0,0,0,441.16,384.65Z" style="fill:#fcbd20"/><path d="M546.75,393.2q-32.4,3.68-64.79,6.89a2.86,2.86,0,0,1,2.8-3.27c3.2-.32,3.4-14.54,3.4-15.74v-91.6c0-1.2-.2-15.38-3.4-15.06a2.33,2.33,0,0,1-2.8-2.72q31.69-3.12,63.39-6.74c0,9.81-9.39,34.06-10,43.12-.2,1.62.41,2.76,1.2,3.07a2.67,2.67,0,0,0,0-.4,5.61,5.61,0,0,1,4.8-5.34,4.23,4.23,0,0,1,4.6,4.29c0,2.79-2.2,6-5.6,7.63-2.8,1.31-7,2-10-.69-12.39-10.05,8.8-43.16-10.59-41.45l-11.41,1.22v72c2-.21,15.4-2.05,15.41-5.25a2.86,2.86,0,0,1,3-2.93v20s-3,.73-3-2.27c0-3.2-13.41-2.16-15.41-2v34c3.61-.37,7.2-.76,10.8-1.15,15.41-2.26,18.41-27.62,18.4-34,0-8.8,9.2-7.43,9.2-7.44S539.75,365.19,546.75,393.2ZM496.56,335c0,20,.19,40,1.4,59.86,1.19-20.33,1.39-40.95,1.39-61.15,0-19.8-.19-39.58-1.39-59.05C496.75,294.81,496.55,314.83,496.56,335Z" style="fill:#fcbd20"/><path d="M563.55,390.68c-3.4-1.2-8.8-2.79-8.8-8.79a11.74,11.74,0,0,1,10-11.15c17.4-2,13.21,34.47-4.8,35.16C566,400.8,567.35,392.64,563.55,390.68Z" style="fill:#fcbd20"/><path d="M742.15,328.8v33.6c0,.4.2,15.37,3.6,15,3-.34,2.6,2.71,2.6,2.71q-16.3,1.83-32.6,3.74a2.87,2.87,0,0,1,2.6-3.3c3.4-.4,3.6-15,3.6-15.82v-34.2a144.43,144.43,0,0,0-30.4,6.79v33.6l-2.6.31a37.76,37.76,0,0,0-10.4,2.85v-31c-23.8,12.47-35.4,32.29-34.4,55,1.2,28.86,20.2,42.54,41,34.44,13.4-5.41,19-24.67,10.8-36.1-6.8-9.39-22.8-5.46-31.4,2.78.6-28.49,47.4-35.91,53.6-3.4,2.2,11.36-1.6,39.55-33.6,48.79-33.8,9.87-61.4-8.75-61.4-40.36,0-39.79,27.6-61.36,55.4-72.72v-74.8c0-.8-.2-15.37-3.4-15a2.28,2.28,0,0,1-2.8-2.66q12.79-1.54,25.6-3.07a3.11,3.11,0,0,1-2.8,3.33c-3.4.41-3.6,15.43-3.6,15.83v71.6a171.39,171.39,0,0,1,30.4-6.39v-68.8c0-.8-.2-15.38-3.6-15-3,.35-2.6-2.7-2.6-2.7q16.31-1.91,32.6-3.74a2.85,2.85,0,0,1-2.6,3.29c-3.4.39-3.6,15.41-3.6,15.81V315c7.4-5.84,6.2-14.9,6.2-14.9,10.2,5.26,8.4,19.86-.2,25.62A21.4,21.4,0,0,1,742.15,328.8Zm-12.8-4.94c-10.6,1.82-21.2,2.87-31.8,5.53-10.8,2.89-21.8,7-31.4,13.38a73.52,73.52,0,0,0-26.8,29.45c-7.8,16.15-8.8,34.27-1.4,49,7.8,15.26,24.2,22.66,42.2,18.69a44.57,44.57,0,0,1-25-3.38c-17.2-7.91-23.4-32.15-18-51a72.34,72.34,0,0,1,14.2-26.72c14.8-17.4,37-25.5,57.4-29.7,10.8-2.32,52-5.38,41.2-25.75C755.75,316.27,739.35,321.9,729.35,323.86Zm-25.2,65.35c10.6,12.35,3.8,35.14-10,45.59,16.8-9.6,24.2-36.46,10.8-48.89-11-9.5-30.6-5.14-38,9.56C675.55,383,694.75,378.12,704.15,389.21Zm-18.6-61.58a524.1,524.1,0,0,0,0-86.8A524.1,524.1,0,0,0,685.55,327.63Zm0,41.4a60.2,60.2,0,0,0,0-28A60.21,60.21,0,0,0,685.55,369Zm46.2-50.24a479.29,479.29,0,0,0,0-83A479.29,479.29,0,0,0,731.75,318.79Zm0,59.59a174.44,174.44,0,0,0,0-50A174.42,174.42,0,0,0,731.75,378.38Z" style="fill:#fcbd20"/><path d="M832.35,263.3v66.39c-.2,17.22-14.8,30.73-32.6,34.12-18,1.21-32.6-10.78-32.6-27.58v-66.4c0-17,14.6-32.21,32.8-34.43l.2,0C818,234.38,832.35,246.5,832.35,263.3Zm-49.8-11.52c-3.6,5-5.4,11-6.2,17.06-.6,6.06-.4,12.44-.4,18.44-.2,6.42-.2,12.62-.2,18.82v19.6c.2,5.38-.2,11,1.2,16.27,2.8,8.71,11.2,17.22,21.4,16.19-10.4-.35-17.8-9.77-19.4-19.6-.8-5.11-.6-10.73-.4-16.16V304.8c0-6.2,0-12.6-.2-18.77,0-6-.6-12.14,0-18.2a36.43,36.43,0,0,1,5.4-16c2.8-4.3,6.6-7.29,10.6-10.3C789.75,244.43,785.75,247.25,782.55,251.78Zm29.6,13.41a21.49,21.49,0,0,0-12.4-20,27.3,27.3,0,0,0-12.4,22.46v66.4A21.46,21.46,0,0,0,799.75,354a27.26,27.26,0,0,0,12.4-22.43Zm4.4-15.62a29.87,29.87,0,0,1,4.8,14.94c.6,6.15,0,12.2,0,18.2s0,11.8-.2,17.82c0,6.2,0,12.4.2,18.58,0,5.2.6,10.74-.4,16-1.6,10-9.4,20.28-19.6,22.7,10.6-1.06,19.2-11.66,21.6-21.49,1.4-5.73,1-11.69,1-17.49v-38.4c-.2-5.78,0-11.6-.8-17.33a30,30,0,0,0-6.4-15.39c-3.2-3.69-7-5.53-11.4-7.29C809.75,242.82,813.75,245.24,816.55,249.57Z" style="fill:#fcbd20"/><path d="M842.55,359.79a2.84,2.84,0,0,1,2.8-3.25c3.2-.27,3.4-14.49,3.4-15.69v-91.6c0-1.2-.2-15.38-3.4-15.1a2.37,2.37,0,0,1-2.8-2.76q13.29-1.17,26.6-2.19,11.49,33.41,23,66.92v-50.2c0-1.2-.2-15.38-3.4-15.16A2.41,2.41,0,0,1,886,228q16.39-1.15,32.8-2.07A2.74,2.74,0,0,1,916,229c-3.2.19-3.6,14.61-3.6,15.61v91.6c0,.8.39,15.38,3.6,15.19a2.44,2.44,0,0,1,2.8,2.84q-13.31.75-26.6,1.65-15.21-44.16-30.4-88.14v71.8s.19,11.78,2.4,14.81c52.8,4.68,117.6,92,173.19,92.94,27,.41,40.2-17.44,43-31.95,3.6-18.18-7.2-42.7-33.4-37.88,24.6-16.31,63.8,3.71,58.6,37.46-4.4,29.23-39,40.64-67.6,40.38-111.19-.11-140.19-99.37-188.79-96.12Q845.85,359.49,842.55,359.79Zm11-64.54c0,20,.2,40,1.4,59.88,1.2-20.3,1.4-40.91,1.4-61.11,0-19.8-.2-39.59-1.4-59.09C853.75,255,853.55,275.05,853.55,295.25Zm51,85.86c14.4,11.91,28.19,24.38,43.2,35.76,24.8,18.79,53.39,35.66,86.19,34.82-34.4-1.56-63-20.19-88.59-40.32-15.61-12.34-30.4-25.74-46.6-37.29-10.8-7.7-23-15.63-37-16.1C878.35,359.65,892.14,371.09,904.55,381.11Zm-27-91.55c5,13.83,10,27.67,16,40.87-3.8-14.35-8.6-28.21-13.4-41.86-4.8-13.85-9.8-27.47-15.8-40.6C868,262.09,872.75,275.91,877.55,289.56Zm23,2.21c.2,20,.2,40,1.4,59.91,1.4-20.29,1.6-40.9,1.4-61.09,0-19.8-.2-39.59-1.4-59.11C901,251.54,900.75,271.56,900.55,291.77ZM1080.34,382c9,6.61,12.6,17.23,12.6,27.83,0,22-18.2,33.57-37,39.7,21.4-4.06,40.8-17.69,39.6-41.36-.4-10.61-4.2-20.65-13.2-27.28-7.6-5.56-19.6-9-28.4-5.41C1062.54,373.27,1073.15,376.65,1080.34,382Z" style="fill:#fcbd20"/><path d="M993.35,351.58q-32.4.48-64.8,2.17a2.73,2.73,0,0,1,2.8-3.14c3.2-.16,3.4-14.36,3.4-15.56v-91.6c0-1.2-.2-15.39-3.4-15.24a2.46,2.46,0,0,1-2.8-2.86q31.69-1.6,63.4-2.15c0,9.79-9.4,33.17-10,42.19-.2,1.6.39,2.79,1.2,3.17v-.4a5,5,0,0,1,4.8-4.89,4.73,4.73,0,0,1,4.6,4.72c0,2.8-2.21,5.83-5.6,7.1-2.8,1.05-7,1.34-10-1.58-12.4-11.07,8.8-42.45-10.6-42.31q-5.7.18-11.4.39v72c2-.09,15.39-.92,15.4-4.11,0-3,3-2.68,3-2.68v20s-3,.48-3-2.52c0-3.21-13.4-3.18-15.4-3.09v34q5.4-.21,10.8-.37c15.4-1.06,18.4-26.06,18.4-32.48,0-8.81,9.2-6.57,9.2-6.56S986.35,322.89,993.35,351.58Zm-50.2-62.12c0,20,.2,40,1.4,59.94,1.2-20.25,1.39-40.86,1.4-61.06,0-19.8-.2-39.59-1.4-59.14C943.35,249.26,943.15,269.26,943.15,289.46Z" style="fill:#fcbd20"/><path d="M1076.34,224.21a3.57,3.57,0,0,1-3.6,2.85c-3.4-.13-7.6,12.73-8.2,15.11-3.8,16.85-15.4,67.16-15.4,67.18v24c0,1,.4,15.41,3.6,15.49a2.66,2.66,0,0,1,2.8,3.07q-16.39-.43-32.8-.49a2.59,2.59,0,0,1,2.81-3c3.19,0,3.39-14.17,3.39-15.38V312.85q-8.19-35.78-16.4-71.44c-.2-.4-5-15.39-8.4-15.36a3.72,3.72,0,0,1-3.6-3q16.41-.18,32.8,0s1.2,3-1.8,3,.8,14,1.2,15.41q5.1,22,10.2,43.94s6.6-32.67,8.8-43.61c.4-2,3.6-15.32,1-15.38-3.2-.08-2-3.05-2-3.05Q1063.55,223.68,1076.34,224.21Zm-38,84.34c.19,13.2.59,26,1.39,39,.6-12.59,1-25.38,1.2-38,0-3.6-1.59-7.23-2.4-10.84q-1.29-5-2.6-10-2.3-8.54-4.6-17.05c-4-14.84-8.2-29.46-13-44.07C1023.94,254.8,1031,281.64,1038.35,308.55Zm14.19-47.33a335.53,335.53,0,0,0-5.8,34.08c3.6-10.93,6-22.27,8.6-33.4,2.21-11.15,4.61-22.48,5.8-34A325.91,325.91,0,0,0,1052.54,261.22Z" style="fill:#fcbd20"/><path d="M1097.14,335q-5-.29-10-.54s-5-95.64-5-110,20-13.77,20,1.08C1102.14,242.14,1097.15,335,1097.14,335Zm-4.6,8.55a9.67,9.67,0,0,0-10.4,9.67,11,11,0,0,0,10.4,10.93,9.62,9.62,0,0,0,10.2-9.81A11,11,0,0,0,1092.54,343.59Zm-.4-12.63a944.17,944.17,0,0,0,0-111.59A1038.44,1038.44,0,0,0,1092.14,331Z" style="fill:#fcbd20"/></g></g></svg>