<svg xmlns="http://www.w3.org/2000/svg" viewBox="0 0 177.6 177.6"><g id="Layer_2" data-name="Layer 2"><g id="Layer_1-2" data-name="Layer 1"><path d="M63.61,31.44h-58v58a2.73,2.73,0,0,1-2.8,2.8,2.69,2.69,0,0,1-2.6-2.8V26h63.4a2.7,2.7,0,0,1,2.6,2.8A2.65,2.65,0,0,1,63.61,31.44Zm50.39,26a11.59,11.59,0,0,1,2.8,8c0,9-7.2,13.6-14.4,13.6C94,79,88,72.44,88,63a15,15,0,0,1,4-10.4H26.81v65.2a16,16,0,0,1,10.4-4c9.2,0,16,6.2,16,14.4,0,7.2-4.8,14.4-13.6,14.4-4.2,0-6.6-1.4-8-2.81a8.22,8.22,0,0,1,5.8-14.39A2.65,2.65,0,0,1,40,128a2.69,2.69,0,0,1-2.6,2.8c-2.4,0-3.4,1.4-3.4,2.8a2.76,2.76,0,0,0,1.2,2.2c.8,1,2.4,1.4,4.4,1.4,5.6,0,8.2-4.6,8.2-9s-3.2-9-10.6-9a10.5,10.5,0,0,0-10.4,10.6v73.79h-5.4V47.24H177.8v5.4h-74A10.33,10.33,0,0,0,93.4,63c0,7.4,4.4,10.6,9,10.6,4.4,0,9-2.6,9-8.2A6.79,6.79,0,0,0,110,61a3.21,3.21,0,0,0-2.2-1,3,3,0,0,0-3,3.2,2.6,2.6,0,1,1-5.2,0,8.23,8.23,0,0,1,14.4-5.8Z" transform="translate(-0.21 -26.04)" style="fill:#fcbd20"/><path d="M177.6,41H82.2V65H39.8v42.2h-24v95.4H10.6V101.8h24V59.6H76.8v-24H177.6ZM10.6,78V35.6H52.8a2.69,2.69,0,0,1,2.8,2.6A2.73,2.73,0,0,1,52.8,41h-37V78a2.6,2.6,0,0,1-5.2,0Z" transform="translate(-0.21 -26.04)" style="fill:#fbb03b"/></g></g></svg>