<svg xmlns="http://www.w3.org/2000/svg" viewBox="0 0 1008.49 459.79"><g id="Layer_2" data-name="Layer 2"><g id="Layer_1-2" data-name="Layer 1"><path d="M208.5,219.54c-3.2,9.78-17.6,19.56-36.8,15.7-27.8-5.57-41.2-28.24-56.6-44.75-5-5.38-9.8-7.8-13.8-8.35-7.4-1-11.8,4.69-7.6,10.53-12.4-.09-15-13.77-5.6-18.25V48.62c0-1-.2-15.42-3.4-15.94a3.08,3.08,0,0,1-2.8-3.45q16.41,2.7,32.8,4.62a2.28,2.28,0,0,1-2.8,2.66c-3.4-.42-3.6,14.55-3.6,15v124.8c19,9.15,37.8,38.21,65.2,39.26,24.4.7,26.8-20.89,14.8-24.69C203.5,188,213.3,204.53,208.5,219.54ZM96.5,111.47c0,22.2.2,44.43,1.4,66.8,1.2-22,1.4-44.2,1.4-66.4s-.2-52.63-1.4-75C96.7,58.9,96.5,89.27,96.5,111.47Zm11.8,70c5.8,2.73,10.4,7.65,14.6,12.3,5.2,5.55,10,11,15.4,16.09,8,7.69,17.2,14.16,27.8,16.71,12.2,3.08,28.8,1.87,34.6-11.09,3.8-8.77.8-22.14-10-23.78,10,2.82,13,16.61,7.4,24.55-7,10.11-21,10.32-31.8,7.53-11-2.77-20.2-9.65-28.6-17.38-5.2-4.85-10-10.12-15.2-14.87C118.3,187.47,113.7,183.34,108.3,181.46Z" style="fill:#fcbd20"/><path d="M200.3,178.47c-21.6-.29-43.2-1.33-64.8-3.27a2.36,2.36,0,0,1,2.8-2.75c3.2.27,3.4-13.92,3.4-15.12V65.73c0-1.2-.2-15.41-3.4-15.68a2.85,2.85,0,0,1-2.8-3.25c21.13,1.9,42.27,2.94,63.4,3.25,0,9.81-9.4,32.83-10,41.8a3.13,3.13,0,0,0,1.2,3.23v-.4a4.75,4.75,0,0,1,4.8-4.7,4.94,4.94,0,0,1,4.6,4.88c0,2.8-2.2,5.77-5.6,6.9-2.8.95-7,1-10-2.06-12.4-11.83,8.8-41.85-10.6-43q-5.7-.26-11.4-.57v72c2,.15,15.4.36,15.4-2.87,0-3,3-2.48,3-2.49v20a2.63,2.63,0,0,1-3-2.71c0-3.16-13.4-4.18-15.4-4.33v34q5.4.32,10.8.55c15.4,0,18.4-25,18.4-31.38,0-8.78,9.2-6.22,9.2-6.23S193.3,149.57,200.3,178.47Zm-50.2-65.69c0,20,.2,40,1.4,60.1,1.2-20.12,1.4-40.71,1.4-60.91,0-19.8-.2-39.61-1.4-59.29C150.3,72.6,150.1,92.58,150.1,112.78Z" style="fill:#fcbd20"/><path d="M289.9,92.21c0,2.8-2.8,6-5.6,7.37-2.8,1.18-6.8,1.62-10-1.2-12.4-10.75,8.8-42.65-10.6-42.06-1.53.08-3.07.15-4.6.21v102.6c0,.8.4,15.39,3.6,15.24a2.46,2.46,0,0,1,2.8,2.87q-16.4.8-32.8,1.12a2.64,2.64,0,0,1,2.8-3.05c3.2-.08,3.4-14.29,3.4-15.48V57.23l-4.4.1c-19.4.72,1.6,31.19-10.6,42.77a9.54,9.54,0,0,1-10,1.86c-2.4-1-5.6-3.82-5.6-7a4.68,4.68,0,0,1,4.6-4.78A4.86,4.86,0,0,1,217.7,95c0,.2,0,.2-.2.4,1-.41,1.6-1.61,1.4-3.21-.6-9-10-32.18-10-42,26.8.11,53.6-.89,80.4-2.7,0,9.81-9.4,33.61-10,42.64-.2,1.61.4,2.77,1.2,3.12v-.4a5.26,5.26,0,0,1,4.8-5.1A4.35,4.35,0,0,1,289.9,92.21Zm-42.6,22.17c0,20,.2,40,1.4,60,1.2-20.24,1.4-40.84,1.4-61,0-19.8-.2-39.59-1.4-59.15C247.5,74.18,247.3,94.18,247.3,114.38Z" style="fill:#fcbd20"/><path d="M304.1,55c-3.4-1.32-8.8-3.13-8.8-9.13a11.18,11.18,0,0,1,10-10.76c17.4-1.46,13.2,34.94-4.8,35C306.5,65.18,307.9,57.06,304.1,55Z" style="fill:#fcbd20"/><path d="M387.29,133.74c0,17.36-10.19,34.36-35.4,37.13-16,1.74-29.2-8.89-29.2-26.68,0-24.35,24.4-23.75,24.41-11.61-10.2,1-11.2,30.58,4.79,28.89,8-.86,15.21-12.5,15.21-25.3,0-36.06-42.6-28.79-42.6-62.15,0-20.59,13.59-30.24,28-34,15-3.82,30.39-1.73,30.39-1.73,0,9.81-9.4,34.15-10,43.21-.19,1.62.41,2.75,1.4,3-.19-.18-.2-.17-.19-.37a5.64,5.64,0,0,1,4.79-5.38,4.07,4.07,0,0,1,4.6,4.24c0,3-2.2,6.07-5.6,7.68-2.8,1.34-6.79,2-10-.61-12.39-10,11.4-43.89-11.79-41.27-9.21,1-11.6,10.24-11.6,23.25C344.5,96.4,387.29,95.86,387.29,133.74ZM332.9,136c-2.2,3.81-2.61,8.64-2,12.79,1.4,9.46,9.39,17.7,19.2,17.44a22.59,22.59,0,0,1-16.6-18.89c-.21-3.18-.21-6.79,1-9.9a9.93,9.93,0,0,1,11.6-6C341.69,128.76,335.5,131.57,332.9,136Zm.39-61c1.4,12.66,11.41,19.68,20.41,26.69,10.79,8.62,22.19,17.25,22,33.27-.21,12.42-5.6,26.7-19.2,30.62,15-2.87,21.2-19.47,21.39-32.68,0-16-11.4-24.81-22.39-33.41-8.21-6.49-17.81-12.72-20-23.91-2-11,4.8-28.24,17.79-30.25C339.9,46.17,332.09,63.7,333.29,75Z" style="fill:#fcbd20"/><path d="M499.09,146c-5,5.75-28.4,8.61-28.39,8.6-18.61,2.74-33.61-8.95-33.6-26.15V62.08c0-17.2,15-33.11,33.6-35.85l27-4c0,9.8-9.6,34.43-10.2,43.51-.19,1.63.4,2.74,1.4,3v-.4a5.65,5.65,0,0,1,4.6-5.48,4,4,0,0,1,4.6,4.12c0,3-2.4,6.15-5.6,7.83-2.8,1.42-6.8,2.21-10-.32-12.2-9.59,6.8-43.6-10.6-41-9.19,1.35-14.8,16.16-14.8,25.76v66.4c0,20.6,13.8,19.59,20.8,18.55v-17.6c0-1-.2-15.37-3.6-14.87-3,.44-2.59-2.61-2.59-2.61l26.39-3.91C494.89,110.85,495.89,142.7,499.09,146Zm-47-102.49a37.39,37.39,0,0,0-6,16.26c-1,6.15-.61,12.49-.81,18.52v18.8c0,6.6,0,13,.2,19.57,0,5.8,0,11.6,1.61,17.17,2.6,8.83,10.2,17.54,20.79,15.38-11.19,1-17.6-8.84-19.4-18.78a86.82,86.82,0,0,1-.39-16.14V95.72c0-6.2,0-12.6-.21-18.77,0-5.61-.6-11.32,0-17.2a37.74,37.74,0,0,1,5.4-16.18c2.8-4.4,6.41-7.53,10.6-10.74C459.29,35.9,455.29,38.88,452.09,43.54Zm34.4,100.76a79,79,0,0,0,0-33.6A86.33,86.33,0,0,0,486.49,144.3Z" style="fill:#fcbd20"/><path d="M573.69,139.52c-21.6,3-43.2,6.23-64.8,9.45a3,3,0,0,1,2.8-3.42c3.2-.48,3.4-14.71,3.4-15.91V38.05c0-1.2-.2-15.37-3.4-14.9a2.22,2.22,0,0,1-2.8-2.58c21.14-3.15,42.27-6.28,63.4-9.26,0,9.8-9.4,34.34-10,43.42-.2,1.63.4,2.75,1.2,3v-.4a5.81,5.81,0,0,1,4.8-5.48,4.08,4.08,0,0,1,4.6,4.15c0,2.8-2.2,6.11-5.6,7.79-2.8,1.4-7,2.2-10-.37-12.4-9.61,8.8-43.48-10.6-41.06l-11.4,1.67v72c2-.3,15.4-2.66,15.4-5.86a3,3,0,0,1,3-3v20s-3,.83-3-2.17c0-3.2-13.4-1.64-15.4-1.34v34l10.8-1.58c15.4-2.84,18.4-28.25,18.4-34.65,0-8.8,9.2-7.71,9.2-7.7S566.69,111.7,573.69,139.52ZM523.49,83.2c0,20,.2,40,1.4,59.79,1.2-20.38,1.4-41,1.4-61.21,0-19.8-.2-39.56-1.4-59C523.69,43,523.49,63,523.49,83.2Z" style="fill:#fcbd20"/><path d="M736.69,153.61c-2.2,10.32-17.4,20.51-36.6,19.09-22.8-1.51-35.8-14.88-48.4-26.92a531.45,531.45,0,0,0-55,23.78c-59.8,30.22-136.4,80-179.4,63.66-34.19-12.92-16.4-66.48,22.6-63.94,0,0-21.8,9.25-16.4,29.29,6,23.62,39.6,14.66,72.6,4.1,37.4-11.95,99-44.34,150.2-62.08a31.6,31.6,0,0,1-2.8-2.48c-14.4-12.15-27.8.37-21.6,7.59-10,2.65-13.4-5.29-9.6-12.19V13.31l-4.4.57c-19.4,3,1.6,31-10.6,44a10.38,10.38,0,0,1-10,3.15c-2.4-.67-5.6-3-5.6-6.23a5.55,5.55,0,0,1,4.6-5.43,4.14,4.14,0,0,1,4.8,4.14c0,.2,0,.2-.2.43a3.23,3.23,0,0,0,1.4-3.39c-.6-8.92-10-30.83-10-40.63,26.8-3.7,53.6-7.11,80.4-9.92,0,9.79-9.4,34-10,43.07-.2,1.63.4,2.76,1.2,3.07v-.4a5.56,5.56,0,0,1,4.8-5.32,4.3,4.3,0,0,1,4.8,4.3c0,2.8-3,6.11-5.8,7.61-2.8,1.3-6.8,1.94-10-.7-12.4-10,8.8-43.22-10.6-41.37l-4.6.54v114c8.6.57,16.8,6,25.8,11.86,27.4-8.55,50.6-10.94,64.4-5.62C728.89,133.42,739.69,140.64,736.69,153.61Zm-325,35.76c-3.61,9.08-2.81,20.18,2.19,27.31,7.81,10.76,23.4,11.4,36.2,9.95,14.6-1.7,29-6,43-11.51,11.2-4.27,22-9.28,32.8-14.48,14-6.87,28-13.72,41.8-20.68,27.2-13.45,54.2-26.85,82-37,13.4-4.9,27-8.88,40.8-10.7,10.8-1.56,24.4-2.38,32.8,4.69-5-4.48-12.2-6-19-6.24a113,113,0,0,0-26.8,2.75c-28.2,5.92-55.4,18-82.2,30.44-27.8,12.93-55.2,27.37-83.2,40.14-10.8,4.81-21.59,9.42-32.6,12.84-14,4.68-28.8,8.23-42.8,7.41-6.8-.45-13.6-1.91-18.4-6.26-4.59-4-6.39-9.93-6.8-16.28a29.23,29.23,0,0,1,5.8-19.38,32.26,32.26,0,0,1,14.6-11C423.29,173.61,415.29,180.89,411.7,189.37Zm209-119.72c0,20,.2,40,1.4,59.82,1.2-20.35,1.4-41,1.4-61.17,0-19.8-.2-39.58-1.4-59C620.89,29.42,620.69,49.45,620.69,69.65Zm50,85.53c9.8,6,21.8,9.9,34,7.95,5.4-1,10.6-2.4,15.4-5.32,4.8-3.32,8.8-9.56,6.8-15.44.6,4.37-1.6,8.9-4.8,11.71-4.6,3.9-11,5.55-16.6,6.19a47.51,47.51,0,0,1-15.8-.49c-11.8-2.15-22.6-8.06-32-14.65A61.16,61.16,0,0,0,670.69,155.18Zm50.6-11.65c-.6-11.48-37.6-8.07-56-2.2,10.6,6.7,22.4,12.57,36.4,11.44C705.89,152.4,721.49,150.29,721.29,143.53Z" style="fill:#fcbd20"/><path d="M159.7,316.41c0,2.8-2.8,5.63-5.6,6.65a9.88,9.88,0,0,1-10-2.53c-12.4-12.44,8.8-41.43-10.6-43.51l-4.6-.44v102.6c0,.8.4,15.44,3.6,15.75a2.85,2.85,0,0,1,2.8,3.25q-16.4-1.47-32.8-3.67a2.26,2.26,0,0,1,2.8-2.63c3.2.41,3.4-13.77,3.4-15V274.32l-4.4-.57c-19.4-2.3,1.6,31.45-10.6,41.12-3.2,2.53-7.2,1.71-10,.25-2.4-1.38-5.6-4.73-5.6-7.93a3.88,3.88,0,0,1,4.6-4,6,6,0,0,1,4.8,5.57c0,.2,0,.19-.2.36,1-.24,1.6-1.35,1.4-3-.6-9.07-10-33.8-10-43.61a755.17,755.17,0,0,0,80.4,9.07c0,9.82-9.4,32.4-10,41.34a3.25,3.25,0,0,0,1.2,3.28v-.4a4.49,4.49,0,0,1,4.8-4.47A5.08,5.08,0,0,1,159.7,316.41Zm-42.6,16.31c0,20,.2,40,1.4,60.16,1.2-20.06,1.4-40.64,1.4-60.84,0-19.8-.2-39.62-1.4-59.36C117.3,292.55,117.1,312.52,117.1,332.72Z" style="fill:#fcbd20"/><path d="M342.3,425.48c-3.2,10.12-17.6,21.44-36.8,20-23-1.6-36-16-48.6-28.83-18.2,5.37-37.2,11.86-53.2,18.09-59.4,24-136.2,43.93-182-5.2-44.4-48.42-17.4-127.45,51.2-99.62-2.6.61-55.2-1.66-46.2,56.9,4,25.54,27.6,60,76.4,59.59,47-.3,101.4-20.43,148.8-35l-3-2.89c-14.4-13.29-27.8-2.41-21.6,5.52-10,1.53-13.4-6.9-9.4-13.11v-44c-24.2-7.8-23.8,17.35-23.8,17.43V383s.2,15.41,3.6,15.46a2.77,2.77,0,0,1,2.8,3q-16.4-.21-32.8-1s-.4-3,2.6-2.88c3.4.16,3.6-14.24,3.6-15.24v-91.6c0-.8-.2-15.4-3.6-15.56a2.66,2.66,0,0,1-2.6-3.12q16.4.81,32.8,1a2.68,2.68,0,0,1-2.8,3c-3.4-.06-3.6,15.54-3.6,15.54v61c1-.58,1.8-1.17,3-1.75,7.8-4.27,14.4-3.05,20.8-1.68V291.75s-.2-15.6-3.6-15.59a2.59,2.59,0,0,1-2.8-3q16.4,0,32.8-.48a2.67,2.67,0,0,1-2.8,3.08c-3,.08-3.4,13.09-3.4,15.29v57.4a4.24,4.24,0,0,0,1.8-5.45c13.6.19,10.4,16.49.2,18.8-.6,0-1.4.23-2,.25v32.2c8.4,1.39,16.6,7.3,25.6,13.87C338.5,386.3,347.1,409.11,342.3,425.48ZM29.1,337c-9,6.17-14.6,15.8-16.6,27.26-3.2,19.66,3,44,18.6,62a75.92,75.92,0,0,0,29.8,21c21,8.54,43.2,8.79,64,6.13s41-8.59,61-15.41c37-12.92,75-28.9,114.8-35.53-23.6,3.59-46.4,10.73-68.8,18.15-40.4,13.5-79.6,30.08-121.8,31.31-18.8.68-38.2-2.11-56.6-11.95-15.4-8.2-27.4-23.47-33.2-40-6.4-18.31-6-38,2.6-51.32,8.6-13.74,26.4-20.47,44.2-19.79C53.3,326.87,39.1,330.09,29.1,337Zm153.2.46c0,20,.2,40,1.4,60.05,1.2-20.16,1.4-40.76,1.4-61,0-19.8-.2-39.6-1.4-59.24C182.5,297.26,182.3,317.25,182.3,337.45Zm33.8,15.9c-7-4.76-18-2.88-22.2,4.81C200.7,353.1,207.9,352,216.1,353.35Zm10-15.48c0,20,.2,40,1.4,60,1.2-20.22,1.4-40.82,1.4-61,0-19.8-.2-39.59-1.4-59.18C226.3,297.67,226.1,317.67,226.1,337.87Zm64.8,95.47c9,4.38,19.2,6.58,29.6,3.84,9.2-2.21,19.6-9.87,18.6-20.37-.8-8.92-8.4-15.15-17.4-14.73,8.4.84,15.4,6.93,15.4,15.73,0,10-11.6,15.95-19.8,17.26-9.8,1.65-19-.64-27.4-4.47a121.57,121.57,0,0,1-20.6-12.36A89.36,89.36,0,0,0,290.9,433.34Zm37.6-21.69c.2-9-27.8-7.23-58.2,1.14,10.8,7.43,22.6,13.88,37,12.72C319.9,424.29,328.3,418.06,328.5,411.65Z" style="fill:#fcbd20"/><path d="M287.9,398.94q-16.39,1.1-32.8,1.76a2.71,2.71,0,0,1,2.8-3.12c3.2-.13,3.4-14.75,3.4-15.55v-91.6c0-.79-.2-15.38-3.4-15.25a2.47,2.47,0,0,1-2.8-2.88q16.39-.66,32.8-1.76a2.78,2.78,0,0,1-2.8,3.19c-3.4.21-3.6,15.82-3.6,15.82V381s.2,15.39,3.6,15.17A2.42,2.42,0,0,1,287.9,398.94Zm-18.4-62.5c0,20,.2,40,1.4,59.92,1.2-20.26,1.4-40.87,1.4-61.07,0-19.8-.2-39.59-1.4-59.13C269.7,296.23,269.5,316.24,269.5,336.44Z" style="fill:#fcbd20"/><path d="M360.1,360c0,17.36-10.2,34.26-35.4,36.63-16,1.49-29.2-9.39-29.2-27.19,0-24.34,24.4-23.31,24.4-11.17-10.2.87-11.2,30.39,4.8,29,8-.73,15.2-12.27,15.2-25.07,0-36-42.6-29.47-42.6-62.85,0-20.6,13.6-30,28-33.53,15-3.58,30.4-1.29,30.4-1.29,0,9.8-9.4,34-10,43.07-.2,1.62.4,2.76,1.4,3.05-.2-.17-.2-.17-.2-.37a5.57,5.57,0,0,1,4.8-5.32,4.13,4.13,0,0,1,4.6,4.3c0,3-2.2,6.05-5.6,7.61-2.8,1.3-6.8,1.92-10-.75-12.4-10.17,11.4-43.72-11.8-41.44-9.2.87-11.6,10.05-11.6,23.06C317.3,322,360.1,322.12,360.1,360Zm-54.4,1.47c-2.2,3.77-2.6,8.6-2,12.76,1.4,9.49,9.4,17.86,19.2,17.77a23.13,23.13,0,0,1-16.6-19.18c-.2-3.19-.2-6.78,1-9.88a9.76,9.76,0,0,1,11.6-5.78C314.5,354.32,308.3,357,305.7,361.44Zm.4-61c1.4,12.69,11.4,19.88,20.4,27,10.8,8.79,22.2,17.58,22,33.6-.2,12.41-5.6,26.62-19.2,30.33,15-2.64,21.2-19.16,21.4-32.37,0-16-11.4-25-22.4-33.73-8.2-6.62-17.8-13-20-24.24-2-11,4.8-28.15,17.8-30C312.7,271.72,304.9,289.09,306.1,300.41Z" style="fill:#fcbd20"/><path d="M487.9,380.29c0,19.77-9.6,52.09-47.6,57.54-40.4,5.67-51.4-22.75-48.4-40.67,7.4-41.63,52.6-43.26,48.6-19.56-35.2,1.48-35.8,54.76-.2,49.83,19.2-2.73,27.6-27,27.6-44.19,0-43.68-61.2-53.06-56.8-107,1.6-20.81,16.4-31.2,30.8-35.46,14.8-4.3,30.4-2.6,30.4-2.6,0,9.8-14.81,35.17-15.6,44.28,0,1.6.6,2.71,1.4,3v-.4a5.62,5.62,0,0,1,4.6-5.47,4.1,4.1,0,0,1,4.8,4.1c0,2.8-2.6,6.38-5.8,7.85-2.6,1.18-6.81,2.19-10-.35-12.2-9.65,16.8-45-6.4-41.68-9.2,1.31-13,10.83-14.2,24C427.29,315,487.9,329.16,487.9,380.29Zm-60,52.88c-11-3.28-21-9.15-24.6-20.48a30.21,30.21,0,0,1-.2-17.38,34.66,34.66,0,0,1,6.8-13.7c6.6-7.66,21-12.65,28-5.44-5.8-8.38-20.8-4.7-28,2.24a35.64,35.64,0,0,0-10,18.72,29,29,0,0,0,4.4,23.43C409.7,428.25,418.5,431.87,427.9,433.17Zm52.2-58.12c-3-19.56-17.2-34.46-30.4-47-7-6.39-14.6-12.32-20-20.37a56.36,56.36,0,0,1-9.2-27.93c-.6-14.73,7.4-29.8,22.6-34.76a31,31,0,0,0-9.6,4.36c-14.8,9.86-16.6,29.08-13,43.19a58.14,58.14,0,0,0,15,26.52c7.4,7.57,15.8,14.16,22.8,22.14,7,7.79,13.4,16.25,17.2,26.09,3.4,8.69,3,18.35.8,28.08-2,9.89-6.4,20.34-14.4,27.51a41.74,41.74,0,0,1-18.4,9.65,42.14,42.14,0,0,0,21-10.63C476.69,409.75,481.7,390.21,480.1,375.05Z" style="fill:#fcbd20"/><path d="M559.29,281c0,2.8-2.8,6.2-5.6,7.81-2.79,1.4-6.79,2.18-10-.35-12.4-9.58,8.8-43.49-10.6-41l-4.6.68v102.6c0,.8.4,15.34,3.6,14.87a2.22,2.22,0,0,1,2.8,2.58q-16.41,2.42-32.8,4.87a3,3,0,0,1,2.8-3.42c3.2-.47,3.4-14.7,3.4-15.9V251.06l-4.4.65c-19.4,3.29,1.59,31-10.6,44.18a10.47,10.47,0,0,1-10,3.28c-2.4-.64-5.6-3-5.6-6.17a5.64,5.64,0,0,1,4.6-5.48,4.09,4.09,0,0,1,4.8,4.09c0,.2,0,.2-.2.43a3.28,3.28,0,0,0,1.4-3.41c-.6-8.91-10-30.71-10-40.52,26.8-4,53.6-8,80.4-11.86,0,9.8-9.4,34.36-10,43.44-.2,1.63.4,2.75,1.2,3v-.4a5.84,5.84,0,0,1,4.8-5.5A4,4,0,0,1,559.29,281ZM516.7,307.21c0,20,.2,40,1.4,59.79,1.2-20.38,1.39-41,1.4-61.21,0-19.8-.2-39.57-1.4-59C516.9,267,516.7,287,516.7,307.21Z" style="fill:#fcbd20"/><path d="M639.9,353.92q-16.3,1.9-32.6,4a2.39,2.39,0,0,1,2.2-3.29c3.19-.41,1-14.73.8-15.5q-1.11-6.06-2.2-12.12c-22.4-4.66-28.8,10.3-30.4,17.11-.6,3.08-2.8,15.19,0,14.8,3.2-.45,2.2,2.69,2.2,2.69q-12.81,1.77-25.6,3.63a4.14,4.14,0,0,1,3.4-3.49c3.4-.49,7-15.6,7.2-16.43q10.5-47.3,21-94.54c.19-.82,3.39-15.86,0-15.4-3,.42-2-2.72-2-2.72q16.7-2.31,33.4-4.42a2.38,2.38,0,0,1-2.2,3.27c-3.2.41-.8,15.11-.8,15.51q6.09,33.62,12.2,67.27c4.8-4-.2-9.18-.2-9.18,12.6-1.52,15.6,16.33,2.39,21.71q.91,4.89,1.81,9.78c0,.4,2.8,15.06,6.2,14.66A2.78,2.78,0,0,1,639.9,353.92Zm-59.8-54.5c-4.6,19.84-9,39.86-12.4,59.74,5.8-20,10.79-40.32,15.4-60.55,4.4-19.41,8.8-38.81,12.2-58.46C589.5,259.93,584.7,279.78,580.1,299.42Zm26.2,18.27-10.2-56.45q-7,31.44-14,62.91C592.1,317.76,599.7,317.35,606.3,317.69Zm.6,4.52c-7.4-3.24-19.61-1-24.4,7.68C589.7,323.29,598.3,322.33,606.9,322.21Zm4.4-25.37c3.6,18.74,7.2,37.68,12,56.08-2.2-19.33-5.81-38.07-9.2-56.84-3.61-18.74-7.4-37.65-12.2-56C604.3,259.15,607.7,278.1,611.3,296.84Z" style="fill:#fcbd20"/><path d="M931.29,404.08c-4.4,28.69-39,36.63-67.6,34.66-61.8-4.15-96.85-34.71-122.42-66-25.58-31-41.68-62.69-65.57-60.82v19.79c0,.8.4,15.36,3.59,15.06a2.35,2.35,0,0,1,2.81,2.73q-16.41,1.53-32.8,3.38a2.92,2.92,0,0,1,2.8-3.31c3.2-.35,3.4-14.57,3.4-15.77v-91.6c0-1.2-.21-15.38-3.4-15a2.3,2.3,0,0,1-2.8-2.69q18-2,36-3.67c24.8-2.29,44.81,16.81,44.81,42,0,19.61-12,36.66-28.81,44.82a35.72,35.72,0,0,1-4.4,1.16c49.81,15.4,102.8,117.22,166.2,121.93,27,2.16,40.2-14.57,43.2-28.64,3.4-17.83-7.2-43.49-33.6-40.56C897.29,346.71,936.49,370.81,931.29,404.08ZM663.9,287.67c0,20,.19,40,1.39,59.86,1.21-20.33,1.41-40.94,1.41-61.15,0-19.8-.2-39.57-1.41-59C664.09,247.45,663.9,267.47,663.9,287.67Zm11.8,17,1.8-.17c17.59-1.71,32.8-19.6,32.79-40.6,0-20.8-14.79-36.74-32.79-35a5.74,5.74,0,0,0-1.8.38Zm9.4-79.48c5,.14,10,2.91,14.19,5.17a41.16,41.16,0,0,1,14.21,13.3,36.38,36.38,0,0,1,5.39,20.62,44.4,44.4,0,0,1-6.39,23.85c-7,10.91-19,18.25-31.4,20.43,13.19-.65,26.8-8.71,34-20.21a44.47,44.47,0,0,0,6.59-24.45,38.24,38.24,0,0,0-8-24.05,38.69,38.69,0,0,0-12.81-10.42C696.3,227.41,690.5,224.71,685.1,225.2Zm184,209.38c-82.4,1.41-150.2-123.44-176.8-122.82C718.69,318.45,784.29,440.94,869.09,434.58Zm41.2-62.77c5.2,6.33,8.8,14.49,9,22.32.8,22.71-19.6,35.73-39.4,40,21-1.8,42.6-15.36,42.2-38.4a39.58,39.58,0,0,0-9.2-24.19c-9.2-11-23-13.87-35.2-11.42C889.29,359.26,901.69,362,910.29,371.81Z" style="fill:#fcbd20"/><path d="M821.49,260.52c0,2.8-2.8,5.73-5.6,6.87a9.75,9.75,0,0,1-10-2c-12.4-11.49,8.8-42.16-10.6-42.65h-4.6V325.37c0,.81.4,15.4,3.6,15.39a2.58,2.58,0,0,1,2.8,3q-16.4,0-32.8.48a2.68,2.68,0,0,1,2.81-3.08c3.19-.09,3.39-14.29,3.39-15.49V223.07l-4.39.12c-19.4,1,1.6,31.13-10.61,42.95a9.83,9.83,0,0,1-10,2.22c-2.4-.89-5.6-3.52-5.6-6.72a5,5,0,0,1,4.6-5,4.6,4.6,0,0,1,4.8,4.58c0,.2,0,.2-.19.41a3,3,0,0,0,1.39-3.26c-.6-9-10-31.74-10-41.53,26.8-1.36,53.59-1.83,80.39-1.1,0,9.79-9.4,32.77-10,41.78a3.1,3.1,0,0,0,1.2,3.22v-.4a4.74,4.74,0,0,1,4.8-4.7A4.83,4.83,0,0,1,821.49,260.52Zm-42.6,19.78c0,20,.2,40,1.4,60,1.2-20.22,1.4-40.82,1.4-61,0-19.8-.2-39.6-1.4-59.18C779.09,240.1,778.89,260.1,778.89,280.3Z" style="fill:#fcbd20"/><path d="M893.89,349.29c-21.6-2.55-43.2-4.13-64.8-4.92a2.49,2.49,0,0,1,2.8-2.9c3.2.13,3.4-14.05,3.4-15.25v-91.6c0-1.2-.2-15.41-3.4-15.54a2.7,2.7,0,0,1-2.8-3.11c21.14.77,42.27,2.31,63.4,4.76,0,9.78-9.4,32-10,40.9a3.37,3.37,0,0,0,1.2,3.33v-.4a4.28,4.28,0,0,1,4.8-4.29,5.56,5.56,0,0,1,4.6,5.32,6.91,6.91,0,0,1-5.6,6.37,10.19,10.19,0,0,1-10-2.82c-12.39-12.53,8.8-41.44-10.6-43.54q-5.7-.48-11.4-.86v72c2,.1,15.4.76,15.4-2.41,0-3,3-2.33,3-2.33v20a2.8,2.8,0,0,1-3-2.87c0-3.23-13.4-4.69-15.4-4.79v34q5.4.36,10.8.8c15.4.71,18.4-23.84,18.4-30.28,0-8.82,9.2-5.39,9.2-5.37S886.89,319.68,893.89,349.29Zm-50.2-67.87c0,20,.2,40,1.4,60.08,1.2-20.13,1.4-40.72,1.4-60.92,0-19.8-.2-39.61-1.4-59.28C843.89,241.23,843.69,261.23,843.69,281.42Z" style="fill:#fcbd20"/><path d="M979.09,267.26v66.4c0,17.21-15,27.18-33.6,23.61q-20.7-4-41.4-6.71a2.25,2.25,0,0,1,2.8-2.62c3.2.43,3.4-14.13,3.4-14.93v-91.6c0-.8-.2-15.43-3.4-15.87a3,3,0,0,1-2.8-3.38q20.7,2.73,41.4,6.71C964.09,232.44,979.09,250.07,979.09,267.26ZM918.49,289c0,20,.2,40,1.4,60.21,1.2-20,1.4-40.58,1.4-60.78,0-19.8-.2-39.63-1.4-59.42C918.69,248.84,918.49,268.81,918.49,289Zm40.6-26.37c0-13.19-10.6-26.32-23.6-28.62a19.12,19.12,0,0,0-5-.27V346.94a22.08,22.08,0,0,0,5,1.47c13,2.31,23.6-6.16,23.6-19.37Zm3.8-14.37a37.23,37.23,0,0,1,4.8,17.48c.4,5.89,0,11.6,0,17.6-.2,5.75-.2,11.75-.2,17.75v18.6c.2,5.45.4,10.89-.8,16-2.2,9.5-9.4,16.46-19.8,16.82,11,.95,19-6.21,21.8-16,1.6-5.43,1.4-11.27,1.4-17.27.2-6.15.2-12.35.2-18.75,0-6.6,0-13.2-.2-19.85,0-5.8.2-11.56-.6-17.54a43.22,43.22,0,0,0-6.4-16.65c-3.2-4.7-7-7.72-11.4-10.81C956.09,239.39,960.09,243.05,962.89,248.27Z" style="fill:#fcbd20"/><path d="M1002.89,352.42q-5-1.44-10-2.79s-5-96.74-5-111.13,20-9.32,20,5.58C1007.89,260.68,1002.89,352.41,1002.89,352.42Zm-4.6,7.49c-5.8-1.62-10.4,1.79-10.4,7.39,0,5.8,4.6,11.59,10.4,13.21,5.6,1.57,10.2-1.65,10.2-7.45C1008.49,367.46,1003.89,361.48,998.29,359.91Zm-.4-12.71a944.26,944.26,0,0,0,0-111.6A1038.59,1038.59,0,0,0,997.89,347.2Z" style="fill:#fcbd20"/></g></g></svg>