<svg xmlns="http://www.w3.org/2000/svg" viewBox="0 0 446.69 150"><g id="Layer_2" data-name="Layer 2"><g id="Layer_1-2" data-name="Layer 1"><path d="M91.8,137.4c0,23.8-17.4,43-43.4,43-18.8,0-34.2-12.2-34-29.4,0-23.2,24.4-20.8,22.8-8.8-11.8,0-11.2,28.8,11,28.8,18.2,0,23.8-19.6,23.4-32.6-.2-14-2.4-29.2-20.8-34-3-.8-16.8-2.4-23.6,3.8,2-6.8,12.8-10,18.4-13.4C61.4,85.8,64,74.4,64,66.4c0-2.8-.2-27.8-21.8-27.8-20.8,0-22.8,24.6-13.8,32.8,3.6,3.2,12.2,7.8,18,.6,8.8,12-2.6,18.2-9.2,18.8C19,92.4,3,74.8,10.2,53.4c4.4-13.2,17.8-23,34-23C71,30.4,80.6,45.2,82.8,59c2.8,16-6.6,33.8-18,38.8C78.2,102.2,91.8,114,91.8,137.4ZM34.2,82.8c-9-.2-15-9-16.8-17-2-8.6.4-17,5.2-24.2a27.6,27.6,0,0,0-8.2,15.8,26.67,26.67,0,0,0,4.6,19c3.4,5,9,9,15.4,8.4,5-.6,11.2-3.6,11.2-9.4C44.4,80.6,39,82.6,34.2,82.8ZM22.6,142.2a15.36,15.36,0,0,0-2.4,11.4c1.4,10.6,9.2,19.6,19.8,21.4a29.91,29.91,0,0,1-10.4-7.4,27.73,27.73,0,0,1-6.4-12.8c-.8-3.8-1-8,1.2-11.4,2.4-3.6,6.8-4,10.6-2.8C31.2,138,25.6,138.4,22.6,142.2Zm37.6-102C68,45.4,71,54.8,71.2,63.8c.2,12.6-6,24.2-15.8,31.8A37.16,37.16,0,0,0,73.8,67c.8-8.8-1.4-19.4-8-25.6a30.68,30.68,0,0,0-17-7.6c-5.8-.6-12.2,0-17.4,2.8C40.6,33.4,52.2,34.8,60.2,40.2Zm7.4,68.2A30,30,0,0,1,76.8,122a50.53,50.53,0,0,1,.4,27.8c-1.8,6.2-4.8,12-9.6,16.4-4.4,4.4-9.8,7-15.8,9,6.8-1.4,13-3.8,18.2-8.6a36.1,36.1,0,0,0,10.4-18.4,47.48,47.48,0,0,0-1.6-28.4,30.2,30.2,0,0,0-13.2-15A31.8,31.8,0,0,0,48,100.2C55,100.6,62.2,104,67.6,108.4Z" transform="translate(-8.44 -30.4)" style="fill:#fcbd20"/><path d="M204.81,67.8c-8.28,2.76-20.28-.24-32.76-4v80c0,.48.12,9.24,2.16,9.24a1.63,1.63,0,0,1,1.68,1.8H156.21a1.53,1.53,0,0,1,1.57-1.8c2,0,2.16-8.52,2.16-9.24V60.24c-12.48-3.6-24.36-6.12-32.16-1.8-10.92,6-13,25-1.56,30.48,9,4.32,17.16-1.56,18.36-5.88,5.4,7.08,1.56,14.76-5.28,18.36-4.8,2.52-11.64,2.28-16.92.84-11.28-3-21.48-23.88-10.2-39.36C127.66,41.64,154.54,52,167.13,56c12,4,28.68,11.4,37.08,4.92,7.56-5.76,5-20.88-7.44-15.84-1.08-9.12,17.64-13.32,21,.36C219.69,52.92,215.13,64.32,204.81,67.8ZM135.34,96.36c-4.8,1.2-9.6-.36-13.56-3.36-10.08-7.32-10.92-20.64-3.6-30.24,9.48-12.48,27.6-9.48,40.56-5.52,7,2,13.67,4.56,20.63,6.48,5.64,1.56,12.24,3.72,18.12,2.76a28.76,28.76,0,0,1-9.6-1c-22.08-4.92-63-28.8-75.47,3.72-4.92,13,4.44,29.28,19,29.76,8,.36,14-6.72,13.56-14.52C143.86,89.64,140.74,95,135.34,96.36Zm30.59,56.16a853.6,853.6,0,0,0,0-89.64C164.5,92.64,164.5,122.76,165.93,152.52ZM210.09,42.36a9.17,9.17,0,0,1,2,2.76c3.48,7-1.2,17-8,20,7.92-1.8,13.2-12.72,9.84-20a10.75,10.75,0,0,0-4.2-5c-4.2-2.52-9.12-.24-11.76,3.48C201.45,40.44,206.37,38.52,210.09,42.36Z" transform="translate(-8.44 -30.4)" style="fill:#ccc"/><path d="M205.05,148.44H185.38a1.55,1.55,0,0,1,1.68-1.8c1.92,0,2-8.76,2-9.24v-55c0-.48-.12-9.24-2-9.24a1.55,1.55,0,0,1-1.68-1.8h19.67a1.55,1.55,0,0,1-1.67,1.8c-2,0-2.17,9.36-2.17,9.36V137.4s.12,9.24,2.17,9.24A1.55,1.55,0,0,1,205.05,148.44Zm-11-38.16c0,12,.12,24,.84,36,.72-12.12.84-24.48.84-36.6,0-11.88-.12-23.76-.84-35.52C194.14,86.16,194,98.16,194,110.28Z" transform="translate(-8.44 -30.4)" style="fill:#ccc"/><path d="M273.93,148.44H254.25a1.55,1.55,0,0,1,1.68-1.8c1.92,0,2-8.52,2-9.24V95.64l-17.76,52.8L222,94.2v43.2s.12,9.24,2.16,9.24a1.63,1.63,0,0,1,1.68,1.8H210.46a1.54,1.54,0,0,1,1.67-1.8c1.92,0,2-8.76,2-9.24v-55c0-.48-.12-9.24-2-9.24a1.54,1.54,0,0,1-1.67-1.8h15.95l15.84,46.92L258,71.4h16a1.55,1.55,0,0,1-1.68,1.8c-1.92,0-2.16,8.76-2.16,9.24v55c0,.48.24,9.24,2.16,9.24A1.55,1.55,0,0,1,273.93,148.44Zm-57-38.16c0,12,.12,24,.84,36,.72-12.12.84-24.48.84-36.6,0-11.88-.12-23.76-.84-35.52C217.05,86.16,216.93,98.16,216.93,110.28ZM231.57,108c2.88,8.52,5.88,17,9.48,25.2-2.16-8.76-5-17.28-7.92-25.68s-6-16.92-9.6-25.08C225.81,91.08,228.57,99.6,231.57,108Zm18.48-3.72a161.1,161.1,0,0,0-5.4,18.36,162,162,0,0,0,7-17.88,160.58,160.58,0,0,0,5.28-18.36A152.64,152.64,0,0,0,250.05,104.28Zm12.72,6c.12,12,.12,24,.84,36,.72-12.12,1-24.48.84-36.6,0-11.88-.12-23.76-.84-35.52C262.89,86.16,262.89,98.16,262.77,110.28Z" transform="translate(-8.44 -30.4)" style="fill:#ccc"/><path d="M343.89,148.44H324.21a1.55,1.55,0,0,1,1.68-1.8c1.92,0,2-8.52,2-9.24V95.64l-17.76,52.8L291.93,94.2v43.2s.12,9.24,2.16,9.24a1.63,1.63,0,0,1,1.68,1.8H280.42a1.54,1.54,0,0,1,1.67-1.8c1.92,0,2-8.76,2-9.24v-55c0-.48-.12-9.24-2-9.24a1.54,1.54,0,0,1-1.67-1.8h15.95l15.84,46.92L327.93,71.4h16a1.55,1.55,0,0,1-1.68,1.8c-1.92,0-2.16,8.76-2.16,9.24v55c0,.48.24,9.24,2.16,9.24A1.55,1.55,0,0,1,343.89,148.44Zm-57-38.16c0,12,.12,24,.84,36,.72-12.12.84-24.48.84-36.6,0-11.88-.12-23.76-.84-35.52C287,86.16,286.89,98.16,286.89,110.28ZM301.53,108c2.88,8.52,5.88,17,9.48,25.2-2.16-8.76-5-17.28-7.92-25.68s-6-16.92-9.6-25.08C295.77,91.08,298.53,99.6,301.53,108ZM320,104.28a161.1,161.1,0,0,0-5.4,18.36,162,162,0,0,0,7-17.88,160.58,160.58,0,0,0,5.28-18.36A152.64,152.64,0,0,0,320,104.28Zm12.72,6c.12,12,.12,24,.84,36,.72-12.12,1-24.48.84-36.6,0-11.88-.12-23.76-.84-35.52C332.85,86.16,332.85,98.16,332.73,110.28Z" transform="translate(-8.44 -30.4)" style="fill:#ccc"/><path d="M399.81,148.44H380.25s-.6-1.8,1.32-1.8.6-8.76.48-9.24L380.73,130c-13.44-4.56-17.28,3.84-18.24,7.8-.36,1.8-1.68,8.88,0,8.88,1.92,0,1.32,1.8,1.32,1.8H348.45a2.07,2.07,0,0,1,2-1.8c2,0,4.2-8.76,4.32-9.24l12.6-55c.12-.48,2-9.24,0-9.24-1.8,0-1.2-1.8-1.2-1.8h20s.6,1.8-1.32,1.8-.48,9-.48,9.24l7.32,41.28c2.88-2-.12-5.52-.12-5.52,7.56,0,9.36,10.92,1.44,13.2l1.08,6c0,.24,1.68,9.24,3.72,9.24A1.91,1.91,0,0,1,399.81,148.44Zm-35.88-37.32c-2.76,11.52-5.4,23.16-7.44,34.8,3.48-11.52,6.48-23.28,9.24-35,2.64-11.28,5.28-22.56,7.32-34.08C369.57,88.2,366.69,99.72,363.93,111.12Zm15.72,13.08-6.12-34.68-8.4,36.6A21.22,21.22,0,0,1,379.65,124.2ZM380,127c-4.44-2.52-11.76-2.16-14.64,2.64C369.69,126.24,374.85,126.36,380,127Zm2.64-14.88c2.16,11.52,4.32,23.16,7.2,34.56-1.32-11.76-3.48-23.28-5.52-34.8S379.89,88.68,377,77.28C378.45,88.92,380.49,100.56,382.65,112.08Z" transform="translate(-8.44 -30.4)" style="fill:#ccc"/><path d="M455.13,148.44H435.57s-1.32-1.8.48-1.8-3.24-8.76-3.6-9.24c-4.92-8.28-7.32-12-11.16-12v12c0,.48.24,9.24,2.16,9.24a1.55,1.55,0,0,1,1.68,1.8H405.45a1.55,1.55,0,0,1,1.68-1.8c1.92,0,2-8.52,2-9.24v-55c0-.72-.12-9.24-2-9.24a1.55,1.55,0,0,1-1.68-1.8h21.6a27,27,0,0,1,26.88,27.24,27.42,27.42,0,0,1-17.4,25.68l8,13.08s5.76,9.24,7.8,9.24A3.24,3.24,0,0,1,455.13,148.44Zm-40.92-38.16c0,12,.12,24,.84,36,.72-12.12.84-24.48.84-36.6,0-11.88-.12-23.76-.84-35.52C414.33,86.16,414.21,98.16,414.21,110.28Zm27.84-11.76c0-12.48-8.88-22.68-19.68-22.68a3.32,3.32,0,0,0-1.08.12V121.2h1.08C432.93,121.2,442.05,111.12,442.05,98.52ZM426.93,74c3,.36,6,2.28,8.52,3.84A27.89,27.89,0,0,1,444,86.52a23,23,0,0,1,3.24,12.6,25.3,25.3,0,0,1-3.84,14,25.26,25.26,0,0,1-18.84,10.68,23.81,23.81,0,0,0,20.4-10.44,25.35,25.35,0,0,0,4-14.4,24.4,24.4,0,0,0-4.8-14.76,26.27,26.27,0,0,0-7.68-6.84C433.65,76,430.17,74,426.93,74Zm9.6,62.88a58.55,58.55,0,0,0,6.72,9.72A78.82,78.82,0,0,0,438,136.08a69.82,69.82,0,0,0-6.72-9.72A57.87,57.87,0,0,0,436.53,136.92Z" transform="translate(-8.44 -30.4)" style="fill:#ccc"/></g></g></svg>