<svg xmlns="http://www.w3.org/2000/svg" viewBox="0 0 432.93 150"><g id="Layer_2" data-name="Layer 2"><g id="Layer_1-2" data-name="Layer 1"><path d="M73,121.8v27.6c0,16.8-15.8,30.6-34,31-18-.4-33.8-14.2-33.8-31v-88c0-17,16-30.6,34.2-31H64c0,9.8-9.4,33-10,42-.2,1.6.4,2.8,1.4,3.2-.2-.2-.2-.2-.2-.4A4.87,4.87,0,0,1,60,70.4a4.7,4.7,0,0,1,4.6,4.8,3.84,3.84,0,0,1-.8,2.4A8.29,8.29,0,0,1,59,82.2a9.58,9.58,0,0,1-10-1.8c-11.8-10.8,6.8-39.2-8.2-42.2-8.2,0-15.4,14-15.4,23.2V94C31,91.2,39.8,91,40,91,57.8,91.8,73,105.4,73,121.8ZM29,37.2C23,40.4,19,45.8,16.6,52a34.89,34.89,0,0,0-2.8,12.6V72c-.2,9.8-.2,19.6-.2,29.4s0,19.6.2,29.4c0,5.2,0,10.4.2,15.8A36.54,36.54,0,0,0,18.4,163c3.2,5.8,8.4,10.4,15,11.8a20.76,20.76,0,0,1-8.2-4.6,29.56,29.56,0,0,1-8-15.2c-1.6-6.2-1-12.2-1-18.4,0-5,0-10,.2-14.8V92c0-10.2-.2-20.2-.4-30.2a37.56,37.56,0,0,1,7.6-19,22.24,22.24,0,0,1,13.8-8A20.37,20.37,0,0,0,29,37.2Zm23.8,84.6c0-8.6-5.6-16.2-12.4-20.4l-1.4-.6c-7.4,4-13.6,12-13.6,21v27.6c0,9.2,6.2,17.2,13.6,21.2,7.6-4,13.8-12,13.8-21.2ZM41.4,174.4a.2.2,0,0,0-.2.2A.2.2,0,0,0,41.4,174.4Zm13.4-70a27.36,27.36,0,0,1,6.4,16.8c0,3.6,0,7.2-.2,10.6,0,6.6,0,13,.2,19.4a26.53,26.53,0,0,1-9,17.8,31.76,31.76,0,0,1-10.4,5.2A25.43,25.43,0,0,0,57.4,166a28.38,28.38,0,0,0,6.4-14.6c.2-3.2,0-6.6,0-9.8V121.8A28.75,28.75,0,0,0,59,107.4a21.9,21.9,0,0,0-14.2-9.6A23.69,23.69,0,0,1,54.8,104.4Z" transform="translate(-5.2 -30.4)" style="fill:#fcbd20"/><path d="M187.81,67.8c-8.28,2.76-20.28-.24-32.76-4v80c0,.48.12,9.24,2.16,9.24a1.63,1.63,0,0,1,1.68,1.8H139.21a1.53,1.53,0,0,1,1.57-1.8c2,0,2.16-8.52,2.16-9.24V60.24c-12.48-3.6-24.36-6.12-32.16-1.8-10.92,6-13,25-1.56,30.48,9,4.32,17.16-1.56,18.36-5.88,5.4,7.08,1.56,14.76-5.28,18.36-4.8,2.52-11.64,2.28-16.92.84-11.28-3-21.48-23.88-10.2-39.36C110.66,41.64,137.54,52,150.13,56c12,4,28.68,11.4,37.08,4.92,7.56-5.76,5-20.88-7.44-15.84-1.08-9.12,17.64-13.32,21,.36C202.69,52.92,198.13,64.32,187.81,67.8ZM118.34,96.36c-4.8,1.2-9.6-.36-13.56-3.36-10.08-7.32-10.92-20.64-3.6-30.24,9.48-12.48,27.6-9.48,40.56-5.52,7,2,13.67,4.56,20.63,6.48,5.64,1.56,12.24,3.72,18.12,2.76a28.76,28.76,0,0,1-9.6-1c-22.08-4.92-63-28.8-75.47,3.72-4.92,13,4.44,29.28,19,29.76,8,.36,14-6.72,13.56-14.52C126.86,89.64,123.74,95,118.34,96.36Zm30.59,56.16a853.6,853.6,0,0,0,0-89.64C147.5,92.64,147.5,122.76,148.93,152.52ZM193.09,42.36a9.17,9.17,0,0,1,2,2.76c3.48,7-1.2,17-8,20,7.92-1.8,13.2-12.72,9.84-20a10.75,10.75,0,0,0-4.2-5c-4.2-2.52-9.12-.24-11.76,3.48C184.45,40.44,189.37,38.52,193.09,42.36Z" transform="translate(-5.2 -30.4)" style="fill:#ccc"/><path d="M188.05,148.44H168.38a1.55,1.55,0,0,1,1.68-1.8c1.92,0,2-8.76,2-9.24v-55c0-.48-.12-9.24-2-9.24a1.55,1.55,0,0,1-1.68-1.8h19.67a1.55,1.55,0,0,1-1.67,1.8c-2,0-2.17,9.36-2.17,9.36V137.4s.12,9.24,2.17,9.24A1.55,1.55,0,0,1,188.05,148.44Zm-11-38.16c0,12,.12,24,.84,36,.72-12.12.84-24.48.84-36.6,0-11.88-.12-23.76-.84-35.52C177.14,86.16,177,98.16,177,110.28Z" transform="translate(-5.2 -30.4)" style="fill:#ccc"/><path d="M256.93,148.44H237.25a1.55,1.55,0,0,1,1.68-1.8c1.92,0,2-8.52,2-9.24V95.64l-17.76,52.8L205,94.2v43.2s.12,9.24,2.16,9.24a1.63,1.63,0,0,1,1.68,1.8H193.46a1.54,1.54,0,0,1,1.67-1.8c1.92,0,2-8.76,2-9.24v-55c0-.48-.12-9.24-2-9.24a1.54,1.54,0,0,1-1.67-1.8h15.95l15.84,46.92L241,71.4h16a1.55,1.55,0,0,1-1.68,1.8c-1.92,0-2.16,8.76-2.16,9.24v55c0,.48.24,9.24,2.16,9.24A1.55,1.55,0,0,1,256.93,148.44Zm-57-38.16c0,12,.12,24,.84,36,.72-12.12.84-24.48.84-36.6,0-11.88-.12-23.76-.84-35.52C200.05,86.16,199.93,98.16,199.93,110.28ZM214.57,108c2.88,8.52,5.88,17,9.48,25.2-2.16-8.76-5-17.28-7.92-25.68s-6-16.92-9.6-25.08C208.81,91.08,211.57,99.6,214.57,108Zm18.48-3.72a161.1,161.1,0,0,0-5.4,18.36,162,162,0,0,0,7-17.88,160.58,160.58,0,0,0,5.28-18.36A152.64,152.64,0,0,0,233.05,104.28Zm12.72,6c.12,12,.12,24,.84,36,.72-12.12,1-24.48.84-36.6,0-11.88-.12-23.76-.84-35.52C245.89,86.16,245.89,98.16,245.77,110.28Z" transform="translate(-5.2 -30.4)" style="fill:#ccc"/><path d="M326.89,148.44H307.21a1.55,1.55,0,0,1,1.68-1.8c1.92,0,2-8.52,2-9.24V95.64l-17.76,52.8L274.93,94.2v43.2s.12,9.24,2.16,9.24a1.63,1.63,0,0,1,1.68,1.8H263.42a1.54,1.54,0,0,1,1.67-1.8c1.92,0,2-8.76,2-9.24v-55c0-.48-.12-9.24-2-9.24a1.54,1.54,0,0,1-1.67-1.8h15.95l15.84,46.92L310.93,71.4h16a1.55,1.55,0,0,1-1.68,1.8c-1.92,0-2.16,8.76-2.16,9.24v55c0,.48.24,9.24,2.16,9.24A1.55,1.55,0,0,1,326.89,148.44Zm-57-38.16c0,12,.12,24,.84,36,.72-12.12.84-24.48.84-36.6,0-11.88-.12-23.76-.84-35.52C270,86.16,269.89,98.16,269.89,110.28ZM284.53,108c2.88,8.52,5.88,17,9.48,25.2-2.16-8.76-5-17.28-7.92-25.68s-6-16.92-9.6-25.08C278.77,91.08,281.53,99.6,284.53,108ZM303,104.28a161.1,161.1,0,0,0-5.4,18.36,162,162,0,0,0,7-17.88,160.58,160.58,0,0,0,5.28-18.36A152.64,152.64,0,0,0,303,104.28Zm12.72,6c.12,12,.12,24,.84,36,.72-12.12,1-24.48.84-36.6,0-11.88-.12-23.76-.84-35.52C315.85,86.16,315.85,98.16,315.73,110.28Z" transform="translate(-5.2 -30.4)" style="fill:#ccc"/><path d="M382.81,148.44H363.25s-.6-1.8,1.32-1.8.6-8.76.48-9.24L363.73,130c-13.44-4.56-17.28,3.84-18.24,7.8-.36,1.8-1.68,8.88,0,8.88,1.92,0,1.32,1.8,1.32,1.8H331.45a2.07,2.07,0,0,1,2-1.8c2,0,4.2-8.76,4.32-9.24l12.6-55c.12-.48,2-9.24,0-9.24-1.8,0-1.2-1.8-1.2-1.8h20s.6,1.8-1.32,1.8-.48,9-.48,9.24l7.32,41.28c2.88-2-.12-5.52-.12-5.52,7.56,0,9.36,10.92,1.44,13.2l1.08,6c0,.24,1.68,9.24,3.72,9.24A1.91,1.91,0,0,1,382.81,148.44Zm-35.88-37.32c-2.76,11.52-5.4,23.16-7.44,34.8,3.48-11.52,6.48-23.28,9.24-35,2.64-11.28,5.28-22.56,7.32-34.08C352.57,88.2,349.69,99.72,346.93,111.12Zm15.72,13.08-6.12-34.68-8.4,36.6A21.22,21.22,0,0,1,362.65,124.2ZM363,127c-4.44-2.52-11.76-2.16-14.64,2.64C352.69,126.24,357.85,126.36,363,127Zm2.64-14.88c2.16,11.52,4.32,23.16,7.2,34.56-1.32-11.76-3.48-23.28-5.52-34.8S362.89,88.68,360,77.28C361.45,88.92,363.49,100.56,365.65,112.08Z" transform="translate(-5.2 -30.4)" style="fill:#ccc"/><path d="M438.13,148.44H418.57s-1.32-1.8.48-1.8-3.24-8.76-3.6-9.24c-4.92-8.28-7.32-12-11.16-12v12c0,.48.24,9.24,2.16,9.24a1.55,1.55,0,0,1,1.68,1.8H388.45a1.55,1.55,0,0,1,1.68-1.8c1.92,0,2-8.52,2-9.24v-55c0-.72-.12-9.24-2-9.24a1.55,1.55,0,0,1-1.68-1.8h21.6a27,27,0,0,1,26.88,27.24,27.42,27.42,0,0,1-17.4,25.68l8,13.08s5.76,9.24,7.8,9.24A3.24,3.24,0,0,1,438.13,148.44Zm-40.92-38.16c0,12,.12,24,.84,36,.72-12.12.84-24.48.84-36.6,0-11.88-.12-23.76-.84-35.52C397.33,86.16,397.21,98.16,397.21,110.28Zm27.84-11.76c0-12.48-8.88-22.68-19.68-22.68a3.32,3.32,0,0,0-1.08.12V121.2h1.08C415.93,121.2,425.05,111.12,425.05,98.52ZM409.93,74c3,.36,6,2.28,8.52,3.84A27.89,27.89,0,0,1,427,86.52a23,23,0,0,1,3.24,12.6,25.3,25.3,0,0,1-3.84,14,25.26,25.26,0,0,1-18.84,10.68,23.81,23.81,0,0,0,20.4-10.44,25.35,25.35,0,0,0,4-14.4,24.4,24.4,0,0,0-4.8-14.76,26.27,26.27,0,0,0-7.68-6.84C416.65,76,413.17,74,409.93,74Zm9.6,62.88a58.55,58.55,0,0,0,6.72,9.72A78.82,78.82,0,0,0,421,136.08a69.82,69.82,0,0,0-6.72-9.72A57.87,57.87,0,0,0,419.53,136.92Z" transform="translate(-5.2 -30.4)" style="fill:#ccc"/></g></g></svg>