<svg xmlns="http://www.w3.org/2000/svg" viewBox="0 0 1299.74 578.32"><g id="Layer_2" data-name="Layer 2"><g id="Layer_1-2" data-name="Layer 1"><path d="M312,163.3a3.64,3.64,0,0,1-3.6,3.09c-3.2.08-7.8,14.57-8,15.57q-8.89,39.38-17.8,78.62v34.8c0,.8.2,15.4,3.6,15.37,3,0,2.6,3,2.6,3q-16.31.16-32.6-.06s-.4-3,2.6-3c3.4,0,3.6-14.16,3.6-15.36v-31q-10.1-43.4-20.2-87a59.94,59.94,0,0,1-19-6.63c-21.4-10.93-33.2-10.85-44.2-3.71-16.8,10.74-22.2,38.8-3.4,49.51,15,8.49,28.8-.54,30.8-7.63,8.8,12.27,2.6,24.79-9,30.26-7.8,3.51-18.6,3.08-26.4.17-16.6-5.86-37.4-37.16-17.6-65.32,27.6-39.11,76.2-10.61,95-10.5,13.8.25,14.8-8.6,14.8-8.58,6.6,8.24,5,15.64-1.6,19.58q7.31,31.28,14.6,62.46,5.59-27.41,11.2-54.85c.2-.41,4.4-15.45,1-15.41-3,0-1.8-3-1.8-3Q299.25,163.65,312,163.3Zm-122.4,66.76a25.74,25.74,0,0,1-17.2-3.17c-17.2-10.17-20.6-32.84-12.8-48A40.56,40.56,0,0,1,183,159.56c10-3,21-1.11,31.2,2.19,10.4,3.51,20.4,8.27,31.4,8.53,8.2.2,20.6-2.9,17.6-13.52-.8,11.6-14.2,11.85-23.2,10.58-11-1.31-21.4-6.33-32.4-8.74-21.8-4.54-45,2.65-52.8,23.79-6.4,16.68,0,38.91,17.8,48.51a23.53,23.53,0,0,0,20.2,1.58c9.4-3.36,13-12,13.4-21.56C204,220.39,199.56,228.16,189.56,230.06Zm81.2,34.14c.6.6,0,8.4.2,10.4,0,3.4,0,7,.2,10.6.2,7.8.4,15.8.8,23.6.4-7.6.6-15,.8-22.6.2-9.4,1.2-19-.8-28q-3.19-13.11-6.4-26.23c-5.2-21.24-8.4-33.67-14.6-54.58C257.16,209.5,262.56,232.57,270.76,264.2Zm8-15.6a463.81,463.81,0,0,0,18-80.58A482.05,482.05,0,0,0,278.76,248.6Z" style="fill:#fcbd20"/><path d="M379.76,201.82v66.4c-.2,17.2-14.8,30.45-32.6,32.92-18,.3-32.6-12.92-32.6-29.72V205c0-17,14.6-31,32.8-32.28h.2C365.36,172.64,379.76,185,379.76,201.82ZM330,188.11c-3.6,4.73-5.4,10.6-6.2,16.62-.6,6-.4,12.42-.4,18.42-.2,6.4-.2,12.6-.2,18.8v19.6c.2,5.4-.2,11,1.2,16.36,2.8,8.9,11.2,18,21.4,17.5-10.4-.89-17.8-10.83-19.4-20.77-.8-5.17-.6-10.78-.4-16.19v-17.6c0-6.2,0-12.6-.2-18.79,0-6-.6-12.18,0-18.2a34.32,34.32,0,0,1,5.4-15.6c2.8-4.11,6.6-6.87,10.6-9.66C337.16,181.22,333.16,183.78,330,188.11Zm29.6,15a22.74,22.74,0,0,0-12.4-20.53,25.59,25.59,0,0,0-12.4,21.76v66.4a22.9,22.9,0,0,0,12.4,20.63,25.76,25.76,0,0,0,12.4-21.86Zm4.4-15.45a30.78,30.78,0,0,1,4.8,15.11c.6,6.16,0,12.2,0,18.2s0,11.8-.2,17.81c0,6.2,0,12.4.2,18.59,0,5.2.6,10.76-.4,16-1.6,9.9-9.4,20-19.6,21.9,10.6-.53,19.2-10.87,21.6-20.63,1.4-5.68,1-11.66,1-17.46v-38.4c-.2-5.79,0-11.6-.8-17.35a31,31,0,0,0-6.4-15.6c-3.2-3.81-7-5.79-11.4-7.76C357.16,180.63,361.16,183.2,364,187.63Z" style="fill:#fcbd20"/><path d="M464.36,166.29c-3.4.36-3.6,16-3.6,16v78.8c0,16.79-14.4,32-32.6,34.24-18,1.07-32.6-11.44-32.6-28.24v-79c0-.8-.2-15.38-3.4-15.14a2.39,2.39,0,0,1-2.8-2.79q16.39-1.21,32.8-2.68a2.84,2.84,0,0,1-2.8,3.24c-3.4.3-3.6,15.92-3.6,15.92v78.8a21.74,21.74,0,0,0,12.4,20.09,26.64,26.64,0,0,0,12.4-22.38v-79c0-.8-.2-15.38-3.6-15-3,.29-2.6-2.75-2.6-2.75q16.39-1.56,32.8-3.34A3.07,3.07,0,0,1,464.36,166.29Zm-60.2,71.9v19.4c0,5.2-.2,10.22,1.2,15.1a26,26,0,0,0,8.2,12.72c3,2.54,7.6,5.34,11.8,4.95-4.2,0-8.2-3.26-10.8-6.24a26.94,26.94,0,0,1-7.2-13c-1-5.12-.4-10.57-.4-15.77V237c-.2-21.58-.4-43.16-1.4-64.48C404.36,194.38,404.16,216.39,404.16,238.19Zm44.8-5.1v18.4c.2,5.18.6,10.54-.4,15.84a31.65,31.65,0,0,1-7.2,14.32c-2.8,3.47-6.6,7.44-11,8.25,4.8-.45,9.4-4.29,12.6-7.81a35.68,35.68,0,0,0,8-14.4c1.2-5.12.8-10.48.8-15.48v-18.4c0-21.8-.2-43.78-1.4-65.46C449.36,189.85,449.16,211.47,449,233.09Z" style="fill:#fcbd20"/><path d="M483,169.83c-3.4-1.21-8.8-2.81-8.8-8.81a11.7,11.7,0,0,1,10-11.13c17.39-2,13.2,34.49-4.8,35.15C485.36,180,486.76,171.8,483,169.83Z" style="fill:#fcbd20"/><path d="M585.76,148.12a3.86,3.86,0,0,1-3.4,3.46c-3.2.44-6.8,15.53-7,16.36q-10.61,47.25-21.2,94.45c-.2.83-3.2,15.83,0,15.4,3-.4,2,2.74,2,2.74q-16.71,2.22-33.4,4.32a2.49,2.49,0,0,1,2.2-3.27c3.4-.43,1-15.13.8-15.5q-8-44.79-16-89.61c-.21-.38-3-15-6.4-14.63a2.76,2.76,0,0,1-3.2-2.61q16.39-2,32.8-4.07s.8,2.9-2.2,3.28c-3.4.44-1,14.73-.8,15.5q7,39,14,78,9.19-41.1,18.4-82.24c.2-.43,3.4-15.86,0-15.4-3,.4-2-2.73-2-2.73Q573.05,149.88,585.76,148.12Zm-59.4,72.08c3.79,19.12,7.8,38.21,12.6,57-2.6-19.87-6.2-39.4-10-58.92-3.8-18.72-7.6-37.64-12.4-56C519.16,181.71,522.76,200.86,526.36,220.2Zm31.4-11.69c-3.6,17.28-7.41,34.59-10,51.93,5-17.46,9.19-35,13-52.73,4-17.53,7.59-35.22,10.4-53C566,172.62,561.75,190.58,557.76,208.51Z" style="fill:#fcbd20"/><path d="M657.35,266.44q-32.4,4.6-64.8,9.13a3,3,0,0,1,2.8-3.38c3.2-.45,3.41-14.68,3.4-15.88v-91.6c0-1.2-.19-15.37-3.4-14.92a2.24,2.24,0,0,1-2.8-2.61q31.71-4.4,63.4-8.94c0,9.8-9.4,34.33-10,43.42-.2,1.63.4,2.74,1.2,3v-.4a5.81,5.81,0,0,1,4.8-5.48,4.08,4.08,0,0,1,4.6,4.15c0,2.79-2.2,6.11-5.6,7.79-2.8,1.4-7,2.19-10-.38-12.39-9.64,8.8-43.45-10.6-41.1L619,150.88v72c2-.28,15.4-2.57,15.4-5.78a3,3,0,0,1,3-3v20s-3,.83-3-2.18c0-3.19-13.4-1.7-15.4-1.42v34l10.8-1.52c15.4-2.79,18.4-28.21,18.4-34.61,0-8.8,9.2-7.71,9.2-7.71S650.35,238.63,657.35,266.44Zm-50.2-56.5c0,20,.2,40,1.4,59.8,1.2-20.37,1.4-41,1.4-61.19,0-19.8-.2-39.57-1.4-59C607.35,169.71,607.15,189.74,607.15,209.94Z" style="fill:#fcbd20"/><path d="M770.15,246.62c-5,5.61-28.4,8.09-28.4,8.1-18.6,2.49-33.6-9.22-33.6-26.42V161.9c0-17.2,15-33.09,33.6-35.57q13.5-1.81,27-3.53c0,9.79-9.6,34.23-10.2,43.31-.2,1.63.4,2.75,1.4,3v-.4a5.5,5.5,0,0,1,4.6-5.39,4,4,0,0,1,4.6,4.21c0,3-2.4,6.1-5.6,7.71-2.8,1.36-6.8,2.08-10-.5-12.2-9.79,6.8-43.5-10.6-41.19-9.2,1.22-14.8,16-14.8,25.59v66.39c0,20.6,13.8,19.74,20.8,18.82v-17.6c0-1-.2-15.38-3.6-14.93-3,.4-2.6-2.65-2.6-2.65q13.2-1.75,26.4-3.45C766,211.35,767,243.23,770.15,246.62Zm-47-103.18a37,37,0,0,0-6,16.22c-1,6.14-.6,12.48-.8,18.51V197c0,6.6,0,13,.2,19.57,0,5.8,0,11.6,1.6,17.18,2.6,8.84,10.2,17.6,20.8,15.58-11.2.9-17.6-9-19.4-19a86.91,86.91,0,0,1-.4-16.15v-18.6c0-6.2,0-12.6-.2-18.77,0-5.6-.6-11.32,0-17.2a37.54,37.54,0,0,1,5.4-16.14c2.8-4.38,6.4-7.47,10.6-10.63C730.35,135.86,726.35,138.8,723.15,143.44Zm34.4,101.2a79.29,79.29,0,0,0,0-33.6A86.34,86.34,0,0,0,757.55,244.64Z" style="fill:#fcbd20"/><path d="M1009.75,77.89c26.4,5.16,37.2-18.25,33.6-36.76-2.8-14.6-16.2-33.55-43.2-33.1-55.4.86-119.8,96-172.8,111.36,10.8,4,18.2,13.46,18.2,25.46v66.4c0,16.8-14.6,31.89-32.6,34.56-18.2,1.5-32.6-10.27-32.6-27.08v-66.4c0-17,14.6-32.44,32.8-34.94l.8-.09C861.35,110.11,891,3.41,1001,0c28.4-.65,63,13.68,67.6,43.53C1073.54,77.63,1034.35,94,1009.75,77.89ZM787.55,188.64v19.6c.2,5.37-.2,11,1.2,16.25,2.8,8.66,11.2,17,21.4,15.85-10.4-.19-18.2-9.44-19.8-19.24-.8-5.1-.2-10.78,0-16.2V187.3c0-6.2,0-12.6-.2-18.78,0-6-.8-24.5-1.6-13.6C787.35,178.46,787.55,182.44,787.55,188.64Zm26.6-31.56c-24,7-23.8-24.39-5.2-33.2C788.75,128.49,786.35,169.34,814.15,157.08Zm11.2-10.27a24.65,24.65,0,0,0-3-11.06,10.14,10.14,0,0,0-8.6-3c-14.6,1.7-14,24.44-2,21.43a5.09,5.09,0,0,1-.6-2.53,6.2,6.2,0,0,1,5.4-6c3-.34,5.6,1.37,5.4,5.39-.8,9.69-12.2,16-21.4,13.68v51.6A21.07,21.07,0,0,0,813,236a27.73,27.73,0,0,0,12.4-22.61Zm3-15.33a29.53,29.53,0,0,1,4.8,14.88c.6,6.14,0,12.2,0,18.2s0,11.8-.2,17.82c0,6.2,0,12.4.2,18.58,0,5.2.6,10.74-.4,16-1.6,10-9.4,20.42-19.6,23,10.6-1.22,19.2-11.94,21.6-21.8,1.4-5.75,1-11.71,1-17.51v-38.4c-.2-5.78,0-11.6-.8-17.31a29.58,29.58,0,0,0-6.4-15.31c-3.2-3.65-7-5.42-11.4-7.12C821.55,124.84,825.55,127.19,828.35,131.48Zm38.8-42.77c15-14,28.8-29,43.8-42.48,25-22.61,52.6-40,85.6-42.32-33,.1-61.4,17.16-86.2,39.37-15.2,13.32-29,28.5-43.6,42.87-12.2,12-25.4,24.09-41.4,30.67C841.35,111.44,854.75,100.09,867.15,88.71Zm190-37.11c2.2-22.94-17.8-42.52-39.2-45.38,20.2,5.46,39.6,24,36.2,46.71-2.6,18.32-21.6,29.34-39.4,26.91C1034.35,85.05,1055.15,71.53,1057.15,51.6Z" style="fill:#fcbd20"/><path d="M935.15,151.22c0,2.8-2.8,6-5.6,7.34-2.8,1.18-6.8,1.64-10-1.14-12.4-10.52,8.8-42.83-10.6-41.84l-4.6.35V218.52c0,.81.4,15.37,3.6,15.13a2.39,2.39,0,0,1,2.8,2.79q-16.41,1.22-32.8,2.68a2.85,2.85,0,0,1,2.8-3.25c3.2-.28,3.4-14.5,3.4-15.7V117.58l-4.4.38c-19.4,2.16,1.6,31.05-10.6,43.57a10.13,10.13,0,0,1-10,2.75c-2.4-.76-5.6-3.24-5.6-6.44a5.31,5.31,0,0,1,4.6-5.26,4.33,4.33,0,0,1,4.8,4.33c0,.2,0,.2-.2.42a3.1,3.1,0,0,0,1.4-3.33c-.6-8.95-10-31.23-10-41,26.8-2.68,53.6-4.91,80.4-6.53,0,9.8-9.4,33.59-10,42.63-.2,1.62.4,2.78,1.2,3.13v-.4a5.26,5.26,0,0,1,4.8-5.11A4.37,4.37,0,0,1,935.15,151.22Zm-42.6,23c0,20,.2,40,1.4,59.89,1.2-20.3,1.4-40.92,1.4-61.12,0-19.8-.2-39.58-1.4-59.08C892.75,134.05,892.55,154.06,892.55,174.26Z" style="fill:#fcbd20"/><path d="M1062.74,149c0,2.8-2.8,5.71-5.6,6.84a9.71,9.71,0,0,1-10-2c-12.41-11.58,8.79-42.09-10.6-42.74l-4.6,0v102.6c0,.8.39,15.4,3.59,15.42a2.62,2.62,0,0,1,2.8,3q-16.39-.16-32.79.07a2.61,2.61,0,0,1,2.8-3c3.2,0,3.39-14.24,3.4-15.44V111.07l-4.4.05c-19.4.72,1.6,31.16-10.6,42.78a9.75,9.75,0,0,1-10,2c-2.4-.94-5.6-3.64-5.6-6.84a4.85,4.85,0,0,1,4.6-4.93,4.7,4.7,0,0,1,4.8,4.67c0,.2,0,.2-.2.41,1-.43,1.6-1.64,1.4-3.24-.61-9-10-31.93-10-41.72,26.8-.83,53.6-.94,80.4-.15,0,9.79-9.41,32.75-10,41.75a3.11,3.11,0,0,0,1.2,3.22v-.4a4.72,4.72,0,0,1,4.8-4.68A4.86,4.86,0,0,1,1062.74,149Zm-42.59,19.45c0,20,.19,40,1.4,60,1.19-20.21,1.4-40.81,1.4-61,0-19.8-.21-39.59-1.4-59.19C1020.34,128.21,1020.15,148.21,1020.15,168.41Z" style="fill:#fcbd20"/><path d="M1141.14,198.42v20.8s.2,15.42,3.6,15.77a2.84,2.84,0,0,1,2.6,3.28q-16.39-1.77-32.8-3s-.2-3,2.8-2.78c3.4.27,3.6-14.31,3.6-15.12V191.18c-24.2-9.87-23.8,15.78-23.8,15.71v8.8s.2,15.41,3.6,15.62a2.77,2.77,0,0,1,2.8,3.18q-16.39-1.06-32.8-1.67a2.49,2.49,0,0,1,2.8-2.89c3.2.13,3.4-14.46,3.4-15.26v-91.6c0-.8-.2-15.41-3.4-15.54a2.7,2.7,0,0,1-2.8-3.11q16.41.61,32.8,1.68a2.42,2.42,0,0,1-2.8,2.82c-3.4-.22-3.6,15.37-3.6,15.37v61l3-1.61c7.8-3.92,14.6-2.21,20.8-.5v-57.4c0-.8-.2-15.42-3.6-15.69a3,3,0,0,1-2.8-3.22q16.41,1.25,32.8,3s.4,3-2.6,2.73c-3.4-.36-3.6,15.23-3.6,15.22v57a3.93,3.93,0,0,0,1.8-5.21c13.6,2.06,10.6,17.93.4,18.84C1142.54,198.37,1141.74,198.48,1141.14,198.42Zm-55.8-28.57c0,20,.2,40,1.4,60.07,1.2-20.14,1.4-40.73,1.4-60.93,0-19.8-.2-39.61-1.4-59.27C1085.54,129.66,1085.34,149.65,1085.34,169.85Zm33.8,17.58c-7-5.38-18-4.11-22.2,3.45C1103.74,186.09,1110.94,185.37,1119.14,187.43Zm10-14.55c0,20,.2,40,1.4,60.12,1.2-20.09,1.4-40.67,1.4-60.87,0-19.8-.2-39.61-1.4-59.32C1129.34,132.7,1129.14,152.68,1129.14,172.88Z" style="fill:#fcbd20"/><path d="M1224.14,249.64q-32.4-6.16-64.8-10a2.28,2.28,0,0,1,2.8-2.66c3.2.4,3.4-13.77,3.4-15V130.4c0-1.2-.2-15.43-3.4-15.82a3,3,0,0,1-2.8-3.34q31.71,3.8,63.4,9.74c0,9.78-9.4,31.26-10,40.17a3.59,3.59,0,0,0,1.2,3.41v-.4a3.94,3.94,0,0,1,4.8-3.93,6.1,6.1,0,0,1,4.6,5.66c0,2.8-2.2,5.38-5.6,6a10.76,10.76,0,0,1-10-3.58c-12.4-13.48,8.8-40.75-10.6-44.35q-5.7-.92-11.4-1.76v72c2,.26,15.4,2,15.4-1.2,0-3,3-2.1,3-2.1v20a3.06,3.06,0,0,1-3-3.1c0-3.23-13.4-5.74-15.4-6v34q5.4.8,10.8,1.66c15.4,1.9,18.4-22.45,18.4-28.88,0-8.82,9.2-4.71,9.2-4.7S1217.14,219.52,1224.14,249.64Zm-50.2-71.75c0,20,.2,40,1.4,60.19,1.2-20,1.4-40.6,1.4-60.8,0-19.8-.2-39.63-1.4-59.4C1174.14,137.72,1173.94,157.7,1173.94,177.89Z" style="fill:#fcbd20"/><path d="M342.16,555.58c-3.2,9.94-17.4,20.44-36.6,17.87-23-2.92-36-18-48.6-31.57-18.2,4.37-37.2,9.86-53.4,15.29-59.2,20.85-136,38.7-182-10-44.2-47.71-17.2-127.89,51.4-99.26-2.6.41-55.2-2.09-46.2,56.58C30.56,530,54.16,564.15,103,565c47,.87,101.6-16.63,149-28.55-1.07-1-2.13-2-3.2-3.06-14.2-14.07-27.6-3.87-21.4,4.38-10.4,1.19-13.8-8.21-9-14.38q-6.71-39-13.4-78.09-7,29.81-14,59.51c-.2,1-3.2,15.17,0,15.4,3,.2,2,3.13,2,3.13q-16.69-1.14-33.4-2.81s-.8-3.08,2.2-2.78c3.4.33,1-14.9.8-15.32q-8-46.59-16-93.29c-.2-.42-3-15.74-6.4-16.15a3.69,3.69,0,0,1-3.2-3.39q16.39,2,32.8,3.5s.8,3.08-2.2,2.8c-3.4-.32-1,14.51-.8,15.33q7,40.54,14,81c0,.05,18.4-78.64,18.6-79.07-.6-3-3.2-15-6.2-15.21a3.46,3.46,0,0,1-3.2-3.22q13.2.93,26.4,1.56,8.7,49.51,17.4,98.9,9.19-39.6,18.4-79.34c0-.4,3.2-15.35,0-15.4s-2-3-2-3q12.71.25,25.4.24a3.45,3.45,0,0,1-3.4,3c-3.2,0-6.8,14.57-7.2,15.37q-10.5,45.72-21,91.27c-.2.79-1.8,8.35-1.6,12.56,7,2.78,13.8,8.09,21.2,14,23.4-5.4,44.8-8.47,62-5.69C342,532.05,346.16,543.17,342.16,555.58ZM28.56,454.48c-9,6.17-14.6,15.86-16.6,27.33-3.2,19.7,3,43.91,18.6,62a77.77,77.77,0,0,0,29.8,21.15c21,8.79,43.2,9.57,64,7.6s41-7.09,61-13c37-11.21,75-25,114.8-29.39-23.6,2.24-46.4,8.08-68.8,14.31-40.4,11.36-79.6,26.1-121.8,26.11-18.8.14-38.2-3-56.6-13-15.4-8.35-27.4-23.59-33.2-40.09-6.4-18.28-6-38,2.6-51.33,8.6-13.78,26.4-20.48,44.2-19.54C52.76,444.43,38.56,447.57,28.56,454.48Zm134.8,2.17c3.8,20,7.8,39.94,12.6,59.74-2.6-20.42-6.2-40.73-10-61.09-3.8-19.56-7.6-39.33-12.4-58.84C156.16,416.54,159.76,436.51,163.36,456.65Zm28.6,9.78c-2.8,11.6-5.6,23.19-7.2,35.07a337.42,337.42,0,0,0,9.8-34.1,299,299,0,0,0,7.2-35.14A344.8,344.8,0,0,0,192,466.43Zm24.6-6c3.8,19.78,7.8,39.55,12.6,59.13-2.6-20.3-6.2-40.44-10-60.61-3.8-19.37-7.6-39-12.4-58.22C209.36,420.7,213,440.49,216.56,460.46Zm31.8-6.52c-3.8,16.72-7.4,33.42-10,50.35,5-16.66,9.2-33.56,13-50.69,4-16.93,7.6-34.09,10.4-51.46C256.56,419.29,252.36,436.62,248.36,453.94Zm42,106.57c9,4.9,19.2,7.68,29.6,5.55,9.2-1.69,19.6-8.76,18.6-19.31A17.45,17.45,0,0,0,321.16,531c8.4,1.32,15.4,7.81,15.4,16.61,0,10-11.6,15.3-19.8,16.13-9.8,1.09-19-1.73-27.4-6a132.27,132.27,0,0,1-20.6-13.53A96.83,96.83,0,0,0,290.36,560.51ZM328.56,541c.2-9.22-27.8-8.82-58.4-2.16,11,8,22.8,15.15,37,14.82C320,553.11,328.36,546.56,328.56,541Z" style="fill:#fcbd20"/><path d="M354.56,484.56v20.8s.2,15.39,3.6,15.2c3-.17,2.6,2.85,2.6,2.85q-16.41.95-32.8,1.57a2.85,2.85,0,0,1,2.8-3.11c3.4-.13,3.6-14.74,3.6-15.54v-26.2c-24.2-7.07-23.8,18.16-23.8,18.2v8.8s.2,15.4,3.6,15.3a2.51,2.51,0,0,1,2.8,2.92q-16.4.49-32.8.62a2.61,2.61,0,0,1,2.8-3c3.2,0,3.4-14.64,3.4-15.44v-91.6c0-.8-.2-15.39-3.4-15.36a2.57,2.57,0,0,1-2.8-3q16.39-.12,32.8-.62a2.68,2.68,0,0,1-2.8,3.09c-3.4.09-3.6,15.69-3.6,15.69v61l3-1.88c7.8-4.62,14.6-3.66,20.8-2.72v-57.4c0-.8-.2-15.39-3.6-15.26-3,.12-2.8-2.89-2.8-2.89q16.4-.61,32.8-1.56a2.68,2.68,0,0,1-2.6,3.14c-3.4.19-3.6,15.8-3.6,15.8v57c3.4-2.38,1.8-5.5,1.8-5.5,13.6-.18,10.6,16.19.4,18.78C356,484.29,355.16,484.53,354.56,484.56Zm-55.8-22.37c0,20,.2,40,1.4,60,1.2-20.22,1.4-40.82,1.4-61,0-19.8-.2-39.6-1.4-59.17C299,422,298.76,442,298.76,462.19Zm33.8,14.41c-7-4.5-18-2.16-22.2,5.74C317.16,477,324.36,475.53,332.56,476.6Zm10-15.83c0,20,.2,40,1.4,59.93,1.2-20.26,1.4-40.87,1.4-61.07,0-19.8-.2-39.59-1.4-59.13C342.76,420.56,342.56,440.57,342.56,460.77Z" style="fill:#fcbd20"/><path d="M438.36,419.94v66.4c-.2,17.22-14.81,30.87-32.6,33.92-18,.88-32.6-11.81-32.6-28.6v-66.4c0-17,14.6-31.52,32.8-33.41l.2,0C424,391.17,438.36,403.14,438.36,419.94Zm-49.8-12.14c-3.6,4.86-5.4,10.78-6.2,16.84-.6,6-.4,12.43-.4,18.43-.2,6.41-.2,12.61-.2,18.81v19.6c.2,5.38-.2,11,1.2,16.31,2.8,8.81,11.2,17.61,21.4,16.78-10.4-.55-17.8-10.23-19.4-20.12-.8-5.14-.6-10.75-.4-16.17v-17.6c0-6.2,0-12.6-.2-18.78,0-6-.6-12.16,0-18.2a35.38,35.38,0,0,1,5.4-15.79c2.8-4.21,6.6-7.1,10.6-10C395.76,400.66,391.76,403.36,388.56,407.8Zm29.6,14a21.92,21.92,0,0,0-12.4-20.15,26.64,26.64,0,0,0-12.4,22.18v66.4a22,22,0,0,0,12.4,20.22,26.76,26.76,0,0,0,12.4-22.25Zm4.4-15.59a30,30,0,0,1,4.8,15c.6,6.15,0,12.2,0,18.2s0,11.8-.2,17.82c0,6.2,0,12.4.2,18.58,0,5.2.59,10.75-.4,16-1.6,9.94-9.4,20.27-19.6,22.51,10.6-.88,19.2-11.47,21.6-21.3,1.4-5.73,1-11.69,1-17.49v-38.4c-.2-5.78,0-11.6-.8-17.32a30.16,30.16,0,0,0-6.4-15.42c-3.2-3.71-7-5.57-11.4-7.4C415.76,399.42,419.76,401.87,422.56,406.22Z" style="fill:#fcbd20"/><path d="M513.15,509.05q-32.4,4-64.79,7.3a2.88,2.88,0,0,1,2.8-3.28c3.4-.35,3.4-15.75,3.4-15.75v-91.4s0-15.6-3.4-15.25a2.32,2.32,0,0,1-2.8-2.71q16.39-1.66,32.8-3.52a3.09,3.09,0,0,1-2.8,3.31c-3,.34-3.4,13.18-3.6,15.6v102.8q5.39-.6,10.79-1.22C501,502.55,504,477.16,504,470.77c0-8.8,9.19-7.52,9.19-7.52S506.15,481.11,513.15,509.05Zm-50.39-57.79c0,20,.19,40,1.4,59.85,1.19-20.33,1.4-40.95,1.4-61.15,0-19.8-.2-39.58-1.4-59C463,411,462.76,431.06,462.76,451.26Z" style="fill:#fcbd20"/><path d="M584.55,499.68q-32.4,4.45-64.8,8.55a3,3,0,0,1,2.8-3.35c3.2-.4,3.41-14.63,3.4-15.83v-91.6c0-1.2-.2-15.37-3.4-15a2.28,2.28,0,0,1-2.8-2.65q31.71-4,63.4-8.36c0,9.81-9.4,34.29-10,43.37-.2,1.63.4,2.75,1.2,3v-.4a5.78,5.78,0,0,1,4.8-5.46,4.11,4.11,0,0,1,4.6,4.17c0,2.8-2.2,6.1-5.6,7.77-2.8,1.38-7,2.15-10-.44-12.4-9.73,8.8-43.38-10.6-41.18l-11.4,1.51v72c2-.26,15.4-2.44,15.4-5.64a3,3,0,0,1,3-3v20s-3,.81-3-2.19c0-3.2-13.4-1.82-15.4-1.56v34L557,496c15.4-2.66,18.4-28.08,18.4-34.48,0-8.8,9.2-7.66,9.2-7.66S577.55,471.84,584.55,499.68Zm-50.2-56.9c0,20,.2,40,1.4,59.82,1.2-20.36,1.41-41,1.4-61.18,0-19.8-.2-39.57-1.4-59C534.55,402.56,534.35,422.58,534.35,442.78Z" style="fill:#fcbd20"/><path d="M790.35,382.3c0,31-22.4,54.72-47.2,58a39,39,0,0,1-9.6.08v30.8c0,.8.4,15.35,3.6,14.92,3-.4,2.8,2.62,2.8,2.62q-16.4,2.21-32.8,4.48a3,3,0,0,1,2.8-3.39c3.2-.44,3.4-14.67,3.4-15.87V371.58c0-1.2-.2-15.37-3.4-14.93a2.24,2.24,0,0,1-2.8-2.61q16.4-2.28,32.8-4.47a3.16,3.16,0,0,1-2.8,3.37c-3.2.43-3.6,15.08-3.6,15.88v64.6l1.8-.24c17.6-2.38,35.8-23.89,35.8-48.89,0-44.68-55.2-62.43-93.4-30.34-17,14.41-24.6,45.49-5.6,52,15,5.07,28.6-6.82,30.6-14.1,9,10.55,3,25-8.4,32.57-8,5.32-19.2,6.3-27,5.4-16.4-2.07-36-27.09-17.4-61.13,17-31,67.4-51.41,104.4-36.43C775.75,340.86,790.35,358.3,790.35,382.3Zm-96.8,30.63a25.58,25.58,0,0,1-19.4,5.53c-18-2.45-25.4-21.6-20.6-38.88,7.2-26,34.6-42.32,58.6-46-26.2,2-56,20.67-62.2,49.14-4,19,7.2,38.38,26.8,38,13.8-.36,27.2-12.22,25.8-26.82A25.74,25.74,0,0,1,693.55,412.93Zm28,7.72c.2,22.38.2,44.58,1.4,66.81,1.4-22.59,1.4-44.79,1.4-67.19,0-22.2,0-44.6-1.4-66.61C721.75,376,721.75,398.43,721.55,420.65Zm44.6-70.12c9.4,10,13.6,24.08,13,38.55a46.17,46.17,0,0,1-7.8,25.18c-7.4,10.54-20,19.57-32.2,22.21,13.2-1.57,27.2-11.18,35-22.76,5.2-7.46,7.4-15.93,7.8-24.38.6-15.47-3.6-30.36-14-40.63-9.6-9.37-22.6-14.27-36.4-15.6C744.55,335.74,757.15,340.88,766.15,350.53Z" style="fill:#fcbd20"/><path d="M868.15,463q-16.29,1.53-32.6,3.28a2.34,2.34,0,0,1,2.2-3.23c3.2-.34,1-14.71.8-15.49q-1.09-6.07-2.2-12.16c-22.4-5.18-28.8,9.64-30.4,16.41-.6,3.07-2.8,15.13,0,14.8,3.2-.38,2.2,2.74,2.2,2.74q-12.79,1.5-25.6,3.09A4,4,0,0,1,786,469c3.4-.42,7-15.46,7.2-16.28q10.5-47.08,21-94.08c.2-.82,3.4-15.79,0-15.4-3,.34-2-2.77-2-2.77q16.71-1.93,33.4-3.66a2.34,2.34,0,0,1-2.2,3.23c-3.2.33-.8,15.08-.8,15.48q6.11,33.76,12.2,67.56c4.8-3.88-.2-9.19-.2-9.18,12.6-1.24,15.6,16.68,2.4,21.76l1.8,9.82c0,.4,2.8,15.12,6.2,14.8A2.85,2.85,0,0,1,868.15,463Zm-59.8-55.87c-4.6,19.73-9,39.66-12.4,59.47,5.8-19.9,10.8-40.09,15.4-60.22,4.4-19.31,8.8-38.61,12.2-58.18C817.75,367.86,813,387.61,808.35,407.15ZM834.55,426q-5.1-28.35-10.2-56.68-7,31.28-14,62.59C820.35,425.76,828,425.52,834.55,426Zm.6,4.53c-7.4-3.41-19.6-1.43-24.4,7.13C818,431.23,826.55,430.47,835.15,430.54Zm4.4-25.26c3.6,18.82,7.2,37.84,12,56.36-2.2-19.38-5.8-38.21-9.2-57.06-3.6-18.82-7.4-37.82-12.2-56.29C832.55,367.42,836,386.46,839.55,405.28Z" style="fill:#fcbd20"/><path d="M877.55,431.16v-66.4c0-17.6,15.4-31.42,33.6-33.74q13.5-1,27-1.78c0,9.79-9.6,33.58-10.2,42.62-.2,1.62.4,2.78,1.4,3.11v-.4a5.06,5.06,0,0,1,4.6-5.08,4.38,4.38,0,0,1,4.6,4.53c0,3-2.4,5.93-5.6,7.33-2.8,1.17-6.8,1.63-10-1.16-12.2-10.56,6.8-43.08-10.6-41.86-9.2.67-14.8,15.13-14.8,24.73v66.4c0,9.6,5.4,21.15,13.6,20.55,18.6-1.31,18.4-30,8-29.36,0-8.84,21.6-13.6,21.6,7.24,0,11.8-5.2,21.68-14.6,27.09,52.4,6.83,116.6,94.41,171.8,98,26.8,1.67,40.2-15.37,43-29.74,3.6-18-7.2-43.15-33.4-39.64,24.4-15.18,63.8,7.26,58.6,40.71-4.4,28.94-39,38.27-67.6,36.71-111.2-4.9-140.4-103.87-188.8-101.46C891.75,460.25,877.55,448,877.55,431.16Zm14.8-84.08a35.16,35.16,0,0,0-6,15.91c-1,6.08-.6,12.45-.8,18.46v18.8c0,6.6,0,13,.2,19.59,0,5.8,0,11.6,1.6,17.26,2.6,9,10.2,18.13,20.8,16.74-11.2.24-17.6-10-19.4-20.06a87.23,87.23,0,0,1-.4-16.17V399c0-6.19,0-12.59-.2-18.78,0-5.6-.6-11.35,0-17.2a35.78,35.78,0,0,1,5.4-15.85c2.8-4.23,6.4-7.12,10.6-10C899.55,339.89,895.55,342.62,892.35,347.08Zm39.8,77.12c1,3.34.8,7.35.2,11-1.8,8.91-8,15.09-16.4,18.08,10.8-1.56,18-10.38,18.8-21,.2-4-.2-8.79-2.8-12-2.6-3.44-8-3.89-11.6-1A7.87,7.87,0,0,1,932.15,424.2ZM966,482.45c14.4,12.21,28.2,25,43.2,36.85,24.8,19.52,53.4,37.39,86.2,38.08-34.4-3.16-63-22.77-88.6-43.65-15.6-12.79-30.4-26.55-46.6-38.43-10.8-7.91-23-16.06-37-16.72C939.75,460.47,953.55,472.17,966,482.45Zm175.8,7.63c9,7.13,12.6,18,12.6,28.57,0,22-18.2,32.47-37,37.63,21.4-2.95,40.8-15.39,39.6-39.13-.4-10.64-4.2-20.92-13.2-28.06-7.6-6-19.6-10.1-28.4-7C1124,480.38,1134.55,484.34,1141.75,490.08Z" style="fill:#fcbd20"/><path d="M1033.35,455q-16.3-.11-32.6.19s-2.2-3,.8-3c3.2-.06-5.4-14.51-6-15.29q-6.7-10.76-13.4-21.45-2.6,5.79-5.2,11.57v10.4c0,.8.4,15.39,3.6,15.28a2.51,2.51,0,0,1,2.8,2.92q-16.4.48-32.8,1.32a2.73,2.73,0,0,1,2.8-3.14c3.2-.15,3.4-14.36,3.4-15.56v-91.6c0-.8-.2-15.39-3.4-15.23a2.46,2.46,0,0,1-2.8-2.86q16.4-.84,32.8-1.33a2.67,2.67,0,0,1-2.8,3.08c-3.4.11-3.6,15.72-3.6,15.72v52.6q12.1-26.81,24.2-53.42c.6-1.22,6.8-15.51,3.6-15.46s-1.4-3-1.4-3q12.79-.21,25.6-.17s-1.2,3-4.2,3c-3.2,0-10.2,14.64-10.6,15.45q-11.7,25.59-23.4,51.38,12.5,20,25,40.2s9.6,15.35,13,15.38A5.43,5.43,0,0,1,1033.35,455Zm-68-62.35c0,20,.2,40,1.4,59.94,1.2-20.25,1.4-40.85,1.4-61.05,0-19.8-.2-39.59-1.4-59.15C965.55,352.47,965.35,372.48,965.35,392.68ZM994,371c-6.2,13.74-12.4,27.72-17.4,42.09,7.4-13.45,13.8-27.22,20-40.95,6.2-13.93,12.4-27.61,17.4-41.85C1006.55,343.31,1000.35,357.22,994,371Zm5.4,59.29c4.6,7.31,9.4,14.84,15,21.6a195.51,195.51,0,0,0-12.6-23.25c-4.6-7.32-9.2-14.82-14.8-21.47C990.35,415.24,995,422.73,999.35,430.25Z" style="fill:#fcbd20"/><path d="M1124.35,459.06q-16.3-1.4-32.6-2.28s-1-3,2.2-2.87,1-14.55.8-15.36q-1.11-6.26-2.2-12.52c-22.4-8.78-28.8,5.2-30.4,11.71-.6,3-2.8,14.72,0,14.8,3.2.1,2.2,3.07,2.2,3.07q-12.8-.41-25.6-.54a3.4,3.4,0,0,1,3.4-3c3.4.05,7-14.48,7.2-15.28q10.5-45.6,21-91c.2-.79,3.4-15.27,0-15.4-3-.11-2-3.07-2-3.07q16.7.57,33.4,1.64s1,3.06-2.2,2.86-.8,15-.8,15.35q6.09,34.77,12.2,69.61c4.8-3-.2-9.21-.2-9.21,12.6,1,15.6,19.42,2.4,22.18l1.8,10.13c0,.4,2.8,15.61,6.2,15.89A3.52,3.52,0,0,1,1124.35,459.06Zm-59.8-65.65c-4.6,19.06-9,38.35-12.4,57.68,5.8-19.08,10.8-38.54,15.4-58,4.4-18.65,8.8-37.27,12.2-56.32C1074,355.53,1069.15,374.56,1064.55,393.41Zm26.2,22.92q-5.1-29.18-10.2-58.31-7,30.19-14,60.46C1076.55,413.81,1084.15,414.77,1090.75,416.33Zm.6,4.63c-7.4-4.62-19.6-4.53-24.4,3.33C1074.15,418.93,1082.75,419.49,1091.35,421Zm4.4-24.55c3.6,19.41,7.2,39,12,58.37-2.2-19.76-5.8-39.2-9.2-58.6-3.6-19.42-7.4-39-12.2-58.28C1088.75,357.42,1092.15,377,1095.75,396.41Z" style="fill:#fcbd20"/><path d="M1195.75,463.29c-5,4.11-28.4.25-28.4.34-18.61-2.39-33.6-17.52-33.6-34.73V362.5c0-17.19,15-29.66,33.6-27.27q13.5,1.72,27,3.84c0,9.79-9.6,31.53-10.2,40.46a3.25,3.25,0,0,0,1.4,3.4v-.4a3.94,3.94,0,0,1,4.6-4.11,5.7,5.7,0,0,1,4.6,5.51c0,3-2.4,5.42-5.6,6.14a10.55,10.55,0,0,1-10-3.26c-12.2-13.07,6.8-41.7-10.6-44-9.2-1.18-14.81,12.21-14.8,21.8V431c0,20.58,13.8,23.21,20.8,24.2v-17.6c0-1-.2-15.43-3.6-15.89a2.9,2.9,0,0,1-2.6-3.33q13.2,1.69,26.4,3.77C1191.55,426.83,1192.55,459,1195.75,463.29Zm-47-115.67c-3.4,4-5.2,9.25-6,14.77-1,5.9-.6,12.34-.8,18.32v18.8c0,6.6,0,13,.2,19.62,0,5.8,0,11.6,1.6,17.56,2.6,9.47,10.19,20.06,20.8,20.78-11.2-2-17.61-13.43-19.4-23.83a88.42,88.42,0,0,1-.4-16.24V398.8c0-6.2,0-12.6-.2-18.82,0-5.61-.6-11.47,0-17.2A29.94,29.94,0,0,1,1150,348c2.8-3.7,6.4-5.89,10.6-8C1156,341.82,1152,343.77,1148.75,347.62Zm34.4,110.16a79.28,79.28,0,0,0,0-33.6A86.34,86.34,0,0,0,1183.15,457.78Z" style="fill:#fcbd20"/><path d="M1270.34,482.72q-32.4-8-64.79-13.42a2.17,2.17,0,0,1,2.8-2.52c3.2.55,3.4-13.61,3.4-14.81v-91.6c0-1.2-.2-15.44-3.4-16a3.12,3.12,0,0,1-2.8-3.48q31.7,5.37,63.39,13.07c0,9.79-9.39,30.74-10,39.62a3.76,3.76,0,0,0,1.21,3.48v-.4a3.7,3.7,0,0,1,4.79-3.66,6.53,6.53,0,0,1,4.6,5.91c0,2.8-2.19,5.26-5.6,5.65a11.31,11.31,0,0,1-10-4.12c-12.39-14.15,8.8-40.29-10.6-44.93q-5.7-1.22-11.4-2.35v72c2,.36,15.41,2.78,15.41-.39,0-3,3-1.94,3-1.94q0,10,0,20a3.25,3.25,0,0,1-3-3.26c0-3.23-13.41-6.45-15.41-6.81v34q5.4,1.08,10.8,2.23c15.4,2.72,18.4-21.45,18.4-27.89,0-8.81,9.2-4.2,9.2-4.18S1263.34,452.21,1270.34,482.72Zm-50.2-74.43c0,20,.2,40,1.4,60.26,1.2-20,1.41-40.53,1.4-60.73,0-19.8-.2-39.64-1.4-59.47C1220.34,368.13,1220.15,388.09,1220.14,408.29Z" style="fill:#fcbd20"/><path d="M1294.14,470.33q-5-1.38-10-2.7s-5-96.7-5-111.1,20-9.47,20,5.4C1299.15,378.53,1294.14,470.33,1294.14,470.33Zm-4.6,7.55c-5.8-1.57-10.4,1.85-10.4,7.45,0,5.8,4.6,11.58,10.4,13.15,5.6,1.51,10.2-1.78,10.2-7.58C1299.74,485.3,1295.14,479.39,1289.54,477.88Zm-.4-12.71a944.27,944.27,0,0,0,0-111.6A1038.59,1038.59,0,0,0,1289.14,465.17Z" style="fill:#fcbd20"/></g></g></svg>