<svg xmlns="http://www.w3.org/2000/svg" viewBox="0 0 178.02 177.6"><g id="Layer_2" data-name="Layer 2"><g id="Layer_1-2" data-name="Layer 1"><path d="M178,41H60.42a45.31,45.31,0,0,1-42.2,42.8v117h-5.4V81.16l.2-2.6h2.6A39.82,39.82,0,0,0,55,38.77v-3H178ZM12.82,71.56V35.77h36a2.6,2.6,0,1,1,0,5.19H18.22v30.6a2.69,2.69,0,0,1-2.6,2.8A2.73,2.73,0,0,1,12.82,71.56Z" transform="translate(0 -23.2)" style="fill:#fbb03b"/><path d="M33.8,98,0,98.2v-75H74.8V57h-41ZM0,200.8V110.6A2.65,2.65,0,0,1,2.6,108a2.69,2.69,0,0,1,2.8,2.6v90.2ZM28.4,51.6h41v-23H5.4V92.8h23Zm78.4,12a13.32,13.32,0,0,1,3,9c0,10.2-8.2,15.4-16.4,15.4C84.8,88,78.2,81.8,77,72.6H49.4v27.8c9,1,15.4,7.6,15.4,16.2,0,8.2-5.4,16.4-15.4,16.4-4.8,0-7.6-1.6-9.2-3a9.68,9.68,0,0,1-3.2-7.2,9.2,9.2,0,0,1,7-8.8v-8.2a12.88,12.88,0,0,0-10.2,12.6v82.4H28.4V118.4a18.13,18.13,0,0,1,15.6-18V70a2.69,2.69,0,0,1,2.6-2.8H77A18.49,18.49,0,0,1,95.2,51.6h82.4V57H95.2A12.88,12.88,0,0,0,82.6,67.2h8.2a9.07,9.07,0,0,1,8.8-6.8A9.3,9.3,0,0,1,106.8,63.6ZM49.4,105.8v10.6a2.69,2.69,0,0,1-2.8,2.6,3.9,3.9,0,0,0-4.2,3.8,4.72,4.72,0,0,0,1.4,3.2,8.89,8.89,0,0,0,5.6,1.6c6.8,0,10-5.6,10-11C59.4,110.2,54.6,106.6,49.4,105.8Zm55-33.2a9.31,9.31,0,0,0-1.6-5.6,5.15,5.15,0,0,0-3.2-1.4c-1.8,0-3.8,1.4-3.8,4.4a2.65,2.65,0,0,1-2.6,2.6H82.6c.8,5.2,4.4,10,10.8,10C98.6,82.6,104.4,79.6,104.4,72.6Zm73.2-44H87.4A2.65,2.65,0,0,1,84.8,26a2.69,2.69,0,0,1,2.6-2.8h90.2Z" transform="translate(0 -23.2)" style="fill:#fcbd20"/></g></g></svg>