<svg xmlns="http://www.w3.org/2000/svg" viewBox="0 0 837.97 174.84"><g id="Layer_2" data-name="Layer 2"><g id="Layer_1-2" data-name="Layer 1"><path d="M0,122.6s18.6-21.6,60-16c39,5.4,56.2,27,56.2,27S90.8,111.8,63,109.8c-20.2-1.4-24.4,5.4-33,8.4C20.8,121.2,14,115.6,0,122.6Zm403.59,46c6.2-14.6,4.6-30.6-2.8-41-9.8-14.2-29-23.6-40.6-25.4-18.8-3-18.6,15.6-18.6,15.6-13.2-11.2-1.4-23-1.4-23-10,.2-29.19,4-44,17.2-21.8,19.4-9.6,53,2.8,59,12.6,6,21.4.4,24.79-5.8,3.61-6.2-2.59-13.2-9.59-18.6-7-5.6-3-19.2,7.39-19.6,13.41-.4,20.2,11.6,20,23.6-.2,10.2-7.8,29-31,32.4-23.6,3.2-45.2-13.6-44.4-41.2a51.22,51.22,0,0,1,2.4-15c-8,6.8-19.6,16.4-35.6,27.8-27.4,19.6-58.2,23.8-88.6,12.4-21.6-8-35.4-20-55.6-27.4-20-7.6-46-6-60.6,12.4-14.4,18.6-11,44.6.6,53.6C40,214.4,55.2,209,51,202c-5-8.4-5.2-17,.8-24,8-8.8,22.8-3.2,26.6,3.8,4.2,7.4,8.8,37.2-26.6,43.2-29.2,5-50.2-21.4-45.6-45.8,4.4-23.2,21.6-44.8,51.8-49,32.2-4.6,74.8,24.2,80.4,28.2a36.47,36.47,0,0,1-6.8-6.8c-5-3-11.4-7-18.8-12C95.6,128.4,69.4,117.4,48,123.8c-21.6,6.6-20.4,11-26,16.2-5.4,5.2-16.2,4.4-20.4,12.4,0,0,5.2-25.2,48.8-31.8,31-4.8,62.2,16.2,79.6,28.8-6.4-8.2-9.6-18.2-11.2-29.6-2.6-16.2,6.6-35,12-49,5.2-14-6.2-17-5-17.8C143.2,44,147,65.2,147,65.2c5.2-2.8,25.2-18.6,54.4-6.4,26.8,11.2,30,37,26.8,51.6-2.8,13.2-20.6,26.4-31.2,19.4-9-6.2-6.2-20.2,4.6-21,15.4-1.2,21-31.6-5.4-40.8-30.4-10.8-51.4,15.8-56.4,34-5.2,18.6-2.8,52,34.2,58.6,37.2,6.8,66.2-20.4,79-29.2,6-4.2,15-11.6,23-18.4a63.41,63.41,0,0,1,16.8-14.8c22.79-14.2,49-8.6,49-8.6A9.77,9.77,0,0,1,350,83.8c-2.21,5.8,5.39,10.2,21.59,16.6,18.8,7.4,32.2,19.4,36.6,35.6C412.39,151.6,403.59,168.6,403.59,168.6Zm-282.19,3c-17-6.4-29.4-9-38.8-5-9.2,3.8-22.2-1.2-33.2-2.6-10.4-1-17,9.4-17.6,10.6,4.4-23.2,34.4-24.6,57-17.6,22.8,6.8,61,25.4,101.6,23.6,38.6-1.8,60.4-32.6,62.4-35.4-11.8,22-41.2,36.6-61,39.2C171.8,186.8,138.6,178,121.4,171.6Zm138-29.4C256,150.6,242,172,228.2,183c-14,11.4-37.6,14-51.2,12.2-13.6-1.6-24.6.8-31,5.8s-17.2,6.4-29.8,9.2c-10.8,2.2-14,9.4-14.4,11.6,1.8-21.4,19-33.4,36.2-34.8s54.8,7.6,76.8-.4C235.8,178.8,257.8,144.8,259.4,142.2ZM169.2,98.6c-4.4,8.4-1.2,16.6,6.2,23.2,8.2,7.4,8.8,20,20.4,20,16.2,0,43.2-17.6,59-28.4,11.4-7.8,49.2-41.2,76.59-27.2,0,0-19.19-5.4-41,7.2-17.8,10.6-58.8,44.4-84,54-18.6,7-58.4.2-53.6-35.4,3.4-26.4,24.8-28.2,31.8-21.6C184.6,90.4,174.8,88,169.2,98.6Zm62.4-20c3.4,11,16.2,10.8,21.4,5.2,5.2-5.4,13.2,0,18,2.2s17.8-9.8,36-11.4c17.4-1.4,29.79,8.4,30.59,9.2-.59-.4-14.19-7.4-28.39-6-20.8,2-31.8,17.4-53.2,19.8C229,100.8,231.6,78.6,231.6,78.6Zm21.2,66.6.2-.4A.62.62,0,0,0,252.8,145.2Zm6.6-3a.62.62,0,0,0,.2-.4C259.6,142,259.4,142,259.4,142.2Z" transform="translate(0 -50.78)" style="fill:#fcbd20"/><path d="M831.19,183.8c-13.2,28.6-58.4,49.8-91.4,30.4-26.6-15.6-22-34-14.8-37.2,7.8-3.4,12.8,6.8,8.6,16.2-3.8,8,15.4,17.4,33.6,18.6,26.4,2,44.2-12.6,55.6-34.6,10.6-20.8,4.8-62.8-40-72.8a25.72,25.72,0,0,0-3.8-.8l3.6,3.2c17.8,18,11.2,52.8-11.2,60.2-18.6,6.2-33.2.4-39.6-11-6.2-11.4-3-28.2,9.2-31.4,11.2-3,14.8,9.4,3,14.2-7.4,3-3,17.2,8.4,19.8s28.6-2.6,31.2-21.8c2.2-15-3.6-26.8-15.2-34.8-26.6-3-52.6,2.4-78.2,11.2,4.8,6.4,8.2,13.6,11.8,20.2,7.4,14.4,20,13.6,20,13.6-5.6,16-23.8,9.4-23.8,9.4.2,36.4-31,58-66.8,48.2-25.39-7-24.8-25.8-23.2-34.6,2.4-14.6,26.6-14.6,26.6-.4,0,10.6,7.4,16,14.8,17.6s41-12.4,23.4-48.2a47.26,47.26,0,0,0-10.8-14.8c-30,13.6-62.4,33.2-85.6,39,0,0,54.6-28,73.8-38.4,2.2-1.4,4.8-2.6,7.6-4a38.1,38.1,0,0,0-7.8-4.6c-27,13.6-56.4,30.8-84.59,46.4-60.8,33.6-89,23.6-89,23.6,55.4-4.2,77.2-25,103.8-39.2,14-7.4,37-21,61.39-33.8-17.8-4.2-38.2.6-54,7.8-27.19,12.6-40.19,32-65,48.2-29.2,19-68.8,13.8-90.6.2-24.8-15.8-19-45.6-19-45.6,1.8-11.4,11-8.2,11.2,1.6.2,7-4,6.4-3.4,15.6.8,9,14,24.8,37.2,26.2,15.6,1,35.2,0,49.6-11.6A51.05,51.05,0,0,0,522.4,137c-13.8,8.4-29,15.4-45.8,18.2-32.6,5.6-47.2-18.6-47.2-18.6-3.8-8,1.8-8.8,7.8,1,2.2,3.6,3.2,7.6,13.2,12,14.8,6.8,38.8.4,54.6-7.2A194.25,194.25,0,0,0,524.6,131a33.5,33.5,0,0,0-.2-20.8c-3.4-9.6-7.6-16-13.8-5.6-5.2,9.2-12,10.8-20.8,9.6-8.8-1-20-15.8-2.2-28.6,21.4-15.4,44.6-6.8,54.6,11,3.2,5.8,4.2,12.8,4,19.6,3.8-2.6,7-5,9.4-6.8,10.19-7.8,18.8-22.6,36.79-36,20.4-15.2,49.6-13,63.8-5.2,14.2,8,13.2,20,13.2,20s-6.6-7.6-30.8-10.8c-24.2-3-52,11.8-73.39,28.4-5.8,4.6-12.2,9.8-19.2,15a92.62,92.62,0,0,1-4.6,21.4s13.2-18,26.39-29.4c31.6-26.8,64.4-28.4,88.4-22.6a59.52,59.52,0,0,1,18,7.6c4.8-2,9.6-4,14-5.6,32.6-11.8,60.2-9.2,81.2,4.2a234.23,234.23,0,0,1,32.8,5.6c13,3.2,28-2.4,26.8-9,0,0,9.2,12.6-5.8,20.4C823.19,113.4,850.19,142.8,831.19,183.8Zm-76-88.4a103.76,103.76,0,0,0-25.6-5c-13-1-30,3.8-49.4,11.8a45.38,45.38,0,0,1,6.2,6.2c17.2-6.2,37.2-11.6,57.6-12.8C747.79,95.4,751.59,95.4,755.19,95.4Z" transform="translate(0 -50.78)" style="fill:#fcbd20"/><path d="M15,115.5a51,51,0,0,0-14,7l-.8.4c9.4-9.6,23-14.6,36-16.2,5.2-.6,6.4-.6,11.2-.8a89.63,89.63,0,0,1,12.8,1c39,5.4,56.2,27,56.2,27-29-26.2-56.8-26-65.8-26s-14.4,5.2-18.6,7S25.21,112.1,15,115.5Zm-7.6,29.6a21.44,21.44,0,0,0-5,6.8c-.4.4-.2,0-.6.8,0,0,5.2-25.2,48.8-31.8,6.4-.8,6.4-.8,11.6-.6,16.8.4,34.8,8,49.8,17.4a197,197,0,0,0-27.2-12.6c-23.8-8.4-40.8-2-49,.6-8,2.6-13.4,9.8-15.6,12.6S12.41,141.3,7.41,145.1Zm62,53.6s-4,17.6-26.4,19.8c-22.2,2.2-30.6-24.6-28.2-38,2.4-13.2,7.2-27.2,19-35a23,23,0,0,1,6.6-3.4,41.79,41.79,0,0,0-12,10.2c-14.4,18.6-11,44.6.6,53.6,11.2,8.8,26.4,3.4,22.2-3.6l-.6-.8c3,3.2,7.6,3.8,10.2,3.6C63.81,204.9,67.81,202.3,69.41,198.7Zm35-34.4c-7.8-2.6-19.2-3.8-27.6-2.4s-23.4-7-33.4-.2c-5,3.2-8.4,7.8-11.2,12.8,5.6-25,37.8-22.8,56.8-17.2,22.8,6.8,61,25.4,101.6,23.6,24.6-1.2,47.2-14.8,61.6-34.4-18.8,27.4-46,38-78.6,35.6C140.81,179.3,112,166.7,104.41,164.3Zm33.6-6.2c3.6,3,7,6,10.8,8.6,0,0-22-11.8-31.2-16.6-20.2-11.4-38-19.6-61.6-19.2l2.2-.4,5-.6C89,129.9,117,143.7,138,158.1Zm121.6-15.8a74.62,74.62,0,0,1-8.8,15.6c-8,9.2-16.4,18.8-26.8,25.8-9.6,6.2-20.8,10.6-42.6,9s-32.6.2-41.2,4.8c-8.6,4.8-17.8-4-28.2,7a43.17,43.17,0,0,0-10,18c1.6-19.4,17.4-33.2,36.2-35.2,17.2-1.4,54.8,7.6,76.8-.4C236,179.1,258.21,144.7,259.61,142.3ZM126,53.3c17.4-9,21.2,12.2,21.2,12.2a76,76,0,0,0-17.8,28.2,82.69,82.69,0,0,1,8-21.2C141.61,64.7,135.81,52.1,126,53.3Zm19.4,36.6c5.2-13.4,17.2-24,31.4-26.6a41.5,41.5,0,0,1,8.6-.6,42.25,42.25,0,0,1,6.8.8c24.4,4.4,30.2,19.6,29.8,31.4s-7.4,21.8-13.6,25.2c-6,3.6-12.4-1-12.2-5.4a6.2,6.2,0,0,1,2-4.8,7.84,7.84,0,0,1,3.6-.8c15.4-1.2,21-31.6-5.4-40.8-15.8-5.6-31.4-1-42.8,10.8A48.12,48.12,0,0,0,145.41,89.9Zm14.4,30.2c3,4,14.4,8.4,16,13.8,1.4,5.2,6.2,12.4,14.2,12.8,8.2.6,30.2-5.2,54.8-23,19-13.4,39-31,59.4-37.2,5.4-1.6,6.4-1.2,12-1.8A52.55,52.55,0,0,1,331,86.5c-13.79-3-28.19.4-40.39,7.2-17.8,10.6-58.8,44.4-84,54-18.6,7-58.4.2-53.6-35.4,1.4-12.2,8.2-24.8,23.2-24.8a13.11,13.11,0,0,1,8.4,3,18.63,18.63,0,0,0-18.4,2.4C154,102.1,156.81,116.1,159.81,120.1ZM229,155.3c17-13,36.4-28,43.2-35.2l-3.6,7.2c-11.4,9.8-23.2,18.8-35.4,27.6-10.6,7.8-22.4,12.8-35,16.2A106.93,106.93,0,0,0,229,155.3Zm2.8-76.4a15.15,15.15,0,0,0,5.6,10.8c6.2,4.6,15,.2,20.4-.6s9,3.6,14.4,1.4c5.6-2,20.6-11.2,28.4-12.8A61.45,61.45,0,0,1,309,76.3h4.21c8.59.2,16.39,3.4,23.79,7.4a55.23,55.23,0,0,0-27.59-5.6c-20.8,2-31.8,17.4-53.2,19.8C229.21,101.1,231.81,78.9,231.81,78.9Zm27.8,63.4.2-.2A.2.2,0,0,1,259.61,142.3Zm23,24.4s-20-21-4-49.6c16-28.4,56-26.8,63-25.8a5.34,5.34,0,0,0,.2,2.4S310,92.9,293,109.5C272.21,129.9,275.61,154.9,282.61,166.7Zm49-20.2c3.61,8.8,2.61,24-12.6,29.2-6.19,2-14.59,2-19.39-.6-9.8-5-15-18.8-15-32.4.8,10,5.2,23.4,14.6,28.6,12.6,6,21.4.4,24.79-5.8,3.6-6.2-2.59-13.2-9.59-18.6a5.58,5.58,0,0,1-1.8-2c-.61-3,0-6.4,2.6-8.2,1.79-.8.79-.4,3.2-.8C325,135.9,329.21,140.9,331.6,146.5Zm73.6,18.2c4-12.8,3.2-25.4-4.2-36.8-9.8-14.2-29-23.6-40.6-25.4-18.8-3-18.6,15.6-18.6,15.6h-.2c-4.6-18.2,6.61-19.8,11.2-20.2a30.38,30.38,0,0,1,9.4,2c10.4,3.4,36,12,45.4,37.6C410.8,146.5,408.6,156.1,405.2,164.7Z" transform="translate(0 -50.78)" style="fill:#fbb03b"/><path d="M517.61,172.5c-25.8,13.8-60,12.2-85.2-2.8-24.8-15.8-19-45.6-19-45.6.6-3.4,1.8-7.2,5.8-7.2,2.4.4,4.2,2.6,4.8,5-.6,0-1-2.6-3.8-2.2-5.4,1-5.2,7.2-5.4,11.4-.4,9.2,3.8,25,17.8,35.2C455.21,183.1,490.41,183.5,517.61,172.5Zm11.8-77.2c5.6,5.8,5.8,17.6,4.4,26.2-4.4,26.6-23.6,43.4-50,44.8A52.34,52.34,0,0,0,508,155.9c16-12.8,21.6-31.4,16.6-45.4-2-5.6-6.4-16.2-12.4-7.6,1.4-8-6.4-13.8-14.2-11.4C498,91.5,517.21,82.7,529.41,95.3Zm36,10.8-8,6.4c3.2-3.8,1.8-2.2,4.4-5,8.8-9.4,41-32.2,53.59-36.4a52.12,52.12,0,0,1,13.4-2.2c2-.2,4,0,6,0,8.8.4,17.6,2.6,24.8,7.8,3.6,3,9,7,10,11.8-7.6-7-21.2-9.4-30.8-10.8C614.6,74.7,586.8,89.5,565.41,106.1Zm119,47.6c3.2,22.4-13.2,35.6-23.8,40.6s-25.6,2.6-32.6-3.8c-6.8-6.6-4.4-18.8,1.4-21a9.19,9.19,0,0,1,4.6-.6c.4,0,.6.2,1,.4v.6c0,10.6,7.4,16,14.8,17.6s41-12.4,23.4-48.2-58-30.4-85.2-18a104,104,0,0,0-10.39,5.6,81.77,81.77,0,0,1,43.59-20,89.84,89.84,0,0,1,10.2-.6c5.8.6,3.4.2,7.4.8C664.4,111.7,681.4,131.3,684.4,153.7Zm37.2-6.4h.6c-3.8,10.6-14,12.6-23.8,9.4-1.4-16.2-7.8-32-17-45.4,6.2,4.8,13.2,22.6,19.6,33C705.6,150.9,715,149.7,721.6,147.3Zm104.8-1.4a46.65,46.65,0,0,1,1,27.2,39.71,39.71,0,0,1-1.8,5.8c-8.2,20.8-23.4,30.4-40.4,35.6-16.8,5-38.6-.4-48.6-7.2-10.2-6.8-11.6-17.2-9.8-21.6,1.6-3,3-3.4,5.8-2.6,1.6.6,2.2,2.6,2.6,3a18.73,18.73,0,0,1-1.4,7.4c-3.8,8,15.4,17.4,33.6,18.6,26.4,2,44.2-12.6,55.6-34.6a49.68,49.68,0,0,0,4.2-26.8Zm-90.6-7.8c1.4-5.2,6.4-9.6,11.2-9a4.47,4.47,0,0,1,3.6,5c-1.4,2.4-3.8,3.8-6.4,5-7.4,3-3,17.2,8.4,19.8s28.6-2.6,31.2-21.8a40.18,40.18,0,0,0-1-16.2l-.6-1.8c7,10.2,5.6,23.6-1.2,33.4a31.23,31.23,0,0,1-6.6,7c-6.2,4.2-18.8,6.8-29.4,1.4C734.2,155.5,734.4,143.3,735.8,138.1Zm78.4-31.2a.2.2,0,0,0,.2.2Zm.2.2a.2.2,0,0,0,.2.2A.2.2,0,0,1,814.4,107.1Zm15.6,1a18,18,0,0,1-6.6,5.6,30.12,30.12,0,0,0-8.8-6.4c5.2.6,11-.2,13.6-5.6a16,16,0,0,0,1.2-8C832.2,97.9,833,103.5,830,108.1Z" transform="translate(0 -50.78)" style="fill:#fbb03b"/></g></g></svg>