<svg xmlns="http://www.w3.org/2000/svg" viewBox="0 0 444.91 169.06"><g id="Layer_2" data-name="Layer 2"><g id="Layer_1-2" data-name="Layer 1"><path d="M444.59,122c-5.2,46.4-60.2,61-113.59,53-14.6-2.2-34.4-6-55.6-10.6a62.65,62.65,0,0,1-5,9.6c18.6,4.2,37.8,8.2,49.6,9.8,29.39,3.4,59.79,4.6,73.79-1.2,14.2-5.6,24.6-7.8,29.2-4.6,4.2,2.8-1.8,14.2-25.6,17.2-16.2,2.2-48.2,2-88.79-8.2-15-3.6-28.2-7.4-39.6-10.6a91.75,91.75,0,0,1-6.6,8.8c4.2,1.4,8.4,2.6,12,3.6,23.4,7.6,49,13.2,59.19,16.8,10,3.4,2.41,10.4-10.19,8.6s-33.6-11.2-49.8-18c-4.2-1.8-9.6-3.8-15.8-6.2-16.4,16-40.4,25-70,19.4-71.6-13.6-111.8-54.2-134-49.6,12.4,3,19.4,30.8-2.6,41-37.8,17.4-68-22-40.6-55.2C32.8,118.8,69.8,117,114,123.8c-1-15.8,4-33.6,16.2-49,34.2-43.4,112.2-39.4,143,17.8,11,20.4,12,44.4,4.6,65.4,31.6,6.2,58.4,10.8,72.2,11.8,27.19,2.2,25-17,41.59-23,17.8-6.4,29.6.8,38-16.4,7-14.6,5.2-30.8-12.2-38.2-12.8-5.6-13.6,4.2-25.8,4.2-14.4.2-16.4-14.8-6.8-20.2C398,68.8,449.59,77,444.59,122ZM262.4,161.6c-17-3.6-34.4-7.6-51-11.4C206,159,195,167.6,181.6,171c-22.8,5.6-52-5.8-62.4-26.8a49.28,49.28,0,0,1-4.6-14.8c-42.6-5.6-75.4.2-91.2,18.6-13.8,16-10.8,36,0,42.8,13.2,8.4,24.2-2,24-9-.2-8.2-9.4-2.2-14-8.2-7.2-9.4,1.6-17.6,7.8-20,8.8-3.4,28.2-5.8,64.4,11.8,39,19.2,89.6,43.6,127.2,27.6a58.14,58.14,0,0,0,12.4-7.4c-15-5.4-32.4-11.2-47-16.2,0,0,27,6,51.2,12.4a40.43,40.43,0,0,0,7.4-9.2c-10.6-3.2-19.2-6.2-25.6-8l26.6,6.4A58.35,58.35,0,0,0,262.4,161.6ZM126.2,126c12,2.2,24.4,4.8,37.2,7.6l21,4.8a18.24,18.24,0,0,1,3.4-3.4c8.4-5.8,20.2-10,19.6-27,0,0,10.2,14,8.4,30a49.17,49.17,0,0,1-1.8,6.8l50.6,10.6a99.67,99.67,0,0,0,2-39.2c-4.2-30.4-39.2-50.8-59-52-19.8-1.4-15.6,10.2-27.2,11s-18.6-3.8-24.4,4.2c-5.6,7.8-6,14.2-15.8,17.4-9.8,3-13.2,6.8-14.6,20.8A20.62,20.62,0,0,0,126.2,126Zm14.2,8c-4.2-1-8.4-1.8-12.6-2.6,4.6,12.4,16,24.8,32.4,23.8,14.8-.8,18.4-6.4,21.4-11.8C164.4,139.4,149.8,136,140.4,134Zm87.2,29.8a8.66,8.66,0,0,0,1,.2A8.66,8.66,0,0,1,227.6,163.8Zm2.8.6.8.2C230.8,164.6,230.6,164.6,230.4,164.4Z" transform="translate(-0.02 -45.53)" style="fill:#fcbd20"/><path d="M52.65,184.49c-2.2,6.8-6.4,10.6-14.6,11.6-7,.8-18.6-2.8-21.4-13.4a19,19,0,0,0,7,8.2c13.2,8.4,24.2-2,24-9-.2-8.2-9.6-2.2-14-8.2-2.6-3.4,1.4-6.4,5.8-5.8C46.45,168.69,55.25,176.49,52.65,184.49Zm-35.8-25.2c5.4-20.2,22.4-28.6,41.6-32.6,19-4,55.8.2,55.8.2l.6,2.6c-42.6-5.6-75.4.2-91.2,18.6A39.11,39.11,0,0,0,16.85,159.29Zm115,29.6c20.4,8.8,47,20.4,77.8,22.2a102,102,0,0,1-21.6-1.6c-71.6-13.6-111.8-54.2-134-49.6a21.48,21.48,0,0,0-17.4-.6s7.8-6.4,22.4-5.2C78.25,155.69,108.25,178.69,131.85,188.89Zm-2-98.8c4.8-2.2,12.8-3.8,16.6-10,3.8-6.4,8.4-14.6,13.8-16.4,5.6-2,17.6,0,24.8-1.4,7.2-1.2,12.4-9.4,32-4.4,19.8,5.2,39.4,21,50.8,40s3.2,58.6,3.2,58.6l-6.2-1a99.67,99.67,0,0,0,2-39.2c-4.2-30.4-39.2-50.8-59-52-19.8-1.4-15.6,10.2-27.2,11s-18.6-3.8-24.4,4.2c-5.6,7.8-6,14.2-15.8,17.4-9.8,3-13.2,6.8-14.6,20.8a19.68,19.68,0,0,0,.6,8.2l-3-.8S114.85,96.49,129.85,90.09Zm52,53.4s1.2-2.4,2.8-5a18.24,18.24,0,0,1,3.4-3.4c8.4-5.8,20-10,19.6-26.8l.6,2.2c.4,1.6,3.8,23.4-6.4,31.8-12.8,10.4-14.8,4.8-28.6,14.8-5,3.8-39.2,4.6-45.2-25.6,4.6,12.4,16,24.8,32.4,23.8C175.25,154.49,178.85,148.89,181.85,143.49Zm81.8,15.2c-.2.8-1,3-1,3-17-3.6-34.4-7.6-51-11.4.4-1,1.4-2.8,1.4-2.8Zm10.2,37.6c-4.2-1.8-9.6-3.8-15.8-6.2a10.43,10.43,0,0,0,2.6-2.4s18.4,7.8,26.2,10.4c7.6,2.6,27.6,11.6,34,13.2,5.2,1.2,12.2,1.4,17,0-2,2.4-7.2,4-14.2,3C311.05,212.49,290.05,203.09,273.85,196.29Zm123.8-1c-16.2,2.2-48.2,2-88.8-8.2-15-3.6-28.2-7.4-39.6-10.6l.8-1.2a432.61,432.61,0,0,0,51.4,12,285.47,285.47,0,0,0,70,3.8c17-.8,28.6-6.6,33-10.2C424.05,185.29,416.45,192.89,397.65,195.29Zm-66.4-20.2c-14.6-2.2-34.4-6-55.6-10.6l1.6-3.2s28,8,53.8,11c20.8,2.6,35.2,2,41.4.6s12.4-10.8,20.4-14.2,12.6,5.6,31-6.6c11.6-7.6,17.2-16.6,20-23.6C434.45,169.89,382.05,182.69,331.25,175.09Zm60.6-78.6a10.35,10.35,0,0,1-4.4-.4,6.15,6.15,0,0,1-2.8-5.8c-.2-3.2,7-8.2,20.8-5.8,11.6,2,26.8,11.6,27.8,25.6-1.6-7.4-6.4-13.8-15.6-17.8C404.85,86.69,404.05,96.49,391.85,96.49Z" transform="translate(-0.02 -45.53)" style="fill:#fbb03b"/></g></g></svg>