<svg xmlns="http://www.w3.org/2000/svg" viewBox="0 0 188.96 182.36"><g id="Layer_2" data-name="Layer 2"><g id="Layer_1-2" data-name="Layer 1"><path d="M60.4,100.6c-6,3.6-10.8-1-9-8.4C53,85,43.6,73.2,32.6,78c-21.8,9.6-10.2,23.8-8.6,34.4,1.8,10.6-3,23,6.8,31.2,5.8,5,25,8.4,57.4,5,32.2-3.2,72-36.2,73.6-71,1.8-34.6-26.4-39-37.4-28-13.6,13.6,1.2,27.2,1.2,27.2-15.6,2.8-30.2-24-10-43.4s49-6.4,49-6.4C184,17.6,189,32.2,189,32.2c-11.4-1.4-3.8,28.8-15.4,64.2-13.8,41.8-61.6,56.4-64,57,46,9.8,32,48.8,15.6,51.2-12,2-22-2-21-11.4,1.2-9.6,11.8-9.2,17-6.8,11.4,5.4,13.4-18.8-1.8-23.8-15.2-4.8-45.2-1-64.6-1.6-31.6-1-61-21.6-53.6-54.2C7,80.4,26.2,72.2,39,72,64.4,71.8,67,96.8,60.4,100.6Zm7,36.6c36,.2,49.4-21.4,56.8-31.4,6.4-8.6,10.6-7.8,11.6-7.4-.4-.4-2.8-3.2,3.8-9.6,7.2-6.8,10.4-13.4,9.4-21s-12-11.4-13-3c-.2,3.4-6.2,4.6-9.2,2.4-3-2.4-3.4-10,5.4-12.8,15.4-5.2,23,9.2,22.8,19,0,11.2-4.6,40.6-46.6,59.4s-73.6,0-73.6,0S44.6,137,67.4,137.2Z" transform="translate(-0.05 -22.74)" style="fill:#fcbd20"/><path d="M1.21,106.65c5-23.2,20.4-32.4,32.8-34.4-3.2,1.2-10,4-13.6,7C11.61,86.45,6,97.05,7,103.85s6.2,8,7.4,15.8,1.8,19.8,4.4,23.6c2,3,7.2,10.6,24.4,16.4C16.61,154.65-5.19,135.25,1.21,106.65ZM155,73.25c0,11.2-4.6,40.6-46.6,59.4-36.2,16.2-64.8,4.4-72,1,5.6,1.8,18.8,5.8,34.2,5.6,20.6-.2,39.6-10.8,46.8-15.4,7-4.4,12.4-18.2,16.6-19.8,4.4-1.4,6.4-1,7.4-3,.8-2-.2-6.2,2.4-9.6,2.6-3.2,10-9.8,9.4-20.2-.2-6.2-7.6-24.6-25-15a12.51,12.51,0,0,1,4-2C147.61,49.05,155.21,63.45,155,73.25Zm-51.2,74.6c-16.6,5.6-45,5.4-62.6-.2,9.8,2.4,25.4,3,47,.8,32.2-3.2,72-36.2,73.6-71,1.8-34.6-26.4-39-37.4-28-13.6,13.6,1.2,27.2,1.2,27.2a21.19,21.19,0,0,1-11.8-15.6c-2-11.6,3.4-22,16.6-25.2s35,4.6,36.8,28S156.81,130.05,103.81,147.85Zm20.4,48.2c1.4-2,3.2-6.8-1.6-9.2,10.2,2.8,11.4-19.6-3.2-24.4-5.8-1.8-14-2.4-22.8-2.4v-.2c33.6-2.6,38.4,12.4,37.6,22.2C133.41,189.65,124.21,196.05,124.21,196.05Zm64.8-164c-12-7-12.2,5.6-12.2,14.4-1.6-15-12.2-19.6-12.2-19.6C184,17.45,189,32.05,189,32.05Z" transform="translate(-0.05 -22.74)" style="fill:#fbb03b"/></g></g></svg>