<svg xmlns="http://www.w3.org/2000/svg" viewBox="0 0 542.23 190.98"><g id="Layer_2" data-name="Layer 2"><g id="Layer_1-2" data-name="Layer 1"><path d="M228.8,168.8c10.4,20,26,16.4,36.4,34,10.4,18,19.2,36,50,43.2,33.6,8,88.8,2,133.6-8.8,60.4-14.4,134-37.6,174.39-44,49.2-7.2,97.6,10.8,113.2,30.4,24.4,31.6-36.8,40.8-34.4,8.4,1.2-14-3.6-32.8-61.2-32-41.6.8-165.59,45.6-230.79,60-56.8,12.8-149.6,23.2-186.4-22.8-36.4-46-27.6-86.8,4.8-103.6C228.4,133.6,218,148.4,228.8,168.8ZM334,297.6c89.2-6.8,148-33.6,193.59-48,45.2-14.4,104.8-30.8,152.8-17.2,0,0-38.4-3.6-112.4,16.8-51.2,14-80.39,25.6-112.79,38-32.4,12.8-51.6,20.8-72,29.6-20.4,8.4-38.8,10.8-41.2,3.2,0,0-32.4,10-40.8-6.4,0,0-56,.8-100.4-56.4C199.6,255.6,244.8,304.4,334,297.6Z" transform="translate(-199.92 -133.6)" style="fill:#fcbd20"/><path d="M223.57,237.5c-36.4-46-27.6-86.8,4.8-103.6v.4c-5.6,4-13.6,11.2-14.8,18.4-2,12-1.6,39.6,12.8,47.6s30.4,26,34,38.8,40.8,27.6,88,24.8c38.8-2,82.4-11.2,132-22.4-26.4,7.6-51.19,14.8-70.39,18.8C353.17,273.1,260.37,283.5,223.57,237.5Zm456.79-4.8c-82.4-10.8-162.8,26.8-205.6,40.4-42.8,14-111.59,43.6-118,43.6-6,0-6-7.2-6-7.2a258.24,258.24,0,0,1-31.6,3.2c-18.4.4-18-8.8-18-8.8-58.4-8.4-89.2-34.8-98.8-44.8-.8-.4-1.2-1.2-1.6-1.6-1.2-1.6,44,47.2,133.2,40.4s148-33.6,193.59-48C572.76,235.5,632.36,219.1,680.36,232.7Zm35.2-7.6c4,8.8-3.2,16.4-7.6,18-1.6.4-2.8,0-4.4-1.6-1.2-2.4-1.6-5.6-1.6-9.2,1.2-14-3.6-32.8-61.2-32-18.8.4-54.8,10-94.8,21.6,30-10.4,71.2-24.4,100.8-25.2C697.16,195.5,711.56,216.7,715.56,225.1Z" transform="translate(-199.92 -133.6)" style="fill:#fbb03b"/></g></g></svg>