<svg xmlns="http://www.w3.org/2000/svg" viewBox="0 0 1808.9 1023.38"><g id="Layer_2" data-name="Layer 2"><g id="Layer_1-2" data-name="Layer 1"><path id="instagram" d="M850.08,516.49c56.2,0,62.86.22,85,1.23A116.48,116.48,0,0,1,974.21,525a69.71,69.71,0,0,1,39.94,39.94A116.43,116.43,0,0,1,1021.4,604c1,22.19,1.22,28.85,1.22,85s-.21,62.85-1.22,85.05a116.48,116.48,0,0,1-7.25,39.08,69.71,69.71,0,0,1-39.94,39.94,116.48,116.48,0,0,1-39.08,7.25c-22.19,1-28.85,1.22-85,1.22s-62.85-.21-85-1.22A116.48,116.48,0,0,1,726,853.1,69.71,69.71,0,0,1,686,813.16a116.48,116.48,0,0,1-7.25-39.08c-1-22.2-1.22-28.85-1.22-85.05s.21-62.85,1.22-85A116.43,116.43,0,0,1,686,564.91,69.71,69.71,0,0,1,726,525,116.43,116.43,0,0,1,765,517.72c22.19-1,28.85-1.23,85-1.23m0-37.92c-57.15,0-64.32.25-86.77,1.27a154.65,154.65,0,0,0-51.09,9.78,107.65,107.65,0,0,0-61.55,61.55,154.65,154.65,0,0,0-9.78,51.09c-1,22.45-1.27,29.62-1.27,86.77s.25,64.33,1.27,86.78a154.55,154.55,0,0,0,9.78,51.08,107.66,107.66,0,0,0,61.55,61.56,154.65,154.65,0,0,0,51.09,9.78c22.45,1,29.62,1.26,86.77,1.26s64.33-.24,86.78-1.26a154.55,154.55,0,0,0,51.08-9.78,107.68,107.68,0,0,0,61.56-61.56,154.55,154.55,0,0,0,9.78-51.08c1-22.45,1.27-29.62,1.27-86.78s-.25-64.32-1.27-86.77a154.65,154.65,0,0,0-9.78-51.09,107.66,107.66,0,0,0-61.56-61.55,154.55,154.55,0,0,0-51.08-9.78C914.41,478.82,907.24,478.57,850.08,478.57Zm0,102.39A108.08,108.08,0,1,0,958.16,689,108.08,108.08,0,0,0,850.08,581Zm0,178.23A70.16,70.16,0,1,1,920.24,689,70.16,70.16,0,0,1,850.08,759.19ZM962.43,551.43a25.26,25.26,0,1,0,25.25,25.26,25.26,25.26,0,0,0-25.25-25.26Z" transform="translate(-8 0)" style="fill:#fff"/><path d="M1041.67,908.41s3.19,26-28.8,22c-16-2-28-23.6-24.4-45.2l-4,2.81c-35.6,28.79-15.2,64-.4,64,14.39,0,19.2-22,40.8-8.8,22,13.6,6,40.8-18.41,47.2s-70.79-2.8-69.59-60.4c.4-18.8,18.8-50.8,58.4-62.39,5.6-8.41,14.8-16,27.6-21.2,53.19-20.8,116,30,147.19,42.39,30,12,79.6,16.4,87.6-15.6,7.2-26.39-8.4-46-31.2-40.79-15.2,3.6,0,18.8-17.2,24-16.4,4.79-22-17.6-10.8-32.4,18.4-24,63.6-14,74.4,18,11.2,31.6-11.6,76.79-67.6,67.19-56-10-120-68.39-171.2-57.19-10.39,2.4-17.6,7.19-22,12.4,9.6-1.21,20.39-.8,32,.79,73.6,10,146,68.8,215.2,66.8,67.2-2,101.2-50.39,95.6-72.39-4.4-16.8-24-2.41-29.2-21.6-4.4-16.4,18.4-22.8,35.2-14,21.6,11.6,25.2,42,9.6,68.4-14,24.39,3.2,28.79-13.2,44-6.4,5.6-16.8,8-22.4,11.2-6.4,3.6-10.4,12-22.4,18-16,7.6-29.6-1.6-39.6,1.2s-12.4,12.8-41.2,9.6c-28.4-3.2-93.2-38.4-116.4-54.4-19.2-13.6-71.59-51.19-110.8-43.2a44.65,44.65,0,0,0-1.19,18.4C1006.87,915.62,1024.06,924.41,1041.67,908.41Zm179.19,88.4c-63.2-19.2-99.2-51.2-118-65.6,11.2,7.2,114,74.4,193.2,61.2,90.8-15.6,148.8-75.6,168.4-111.6s26.4-82.79-9.2-104c0,0,52.4,14.8,58.4,70,6,55.6-23.2,77.19-56,89.59-33.2,12.4-54,36.4-87.2,51.2C1344.86,998.81,1291.26,1018.81,1220.86,996.81Zm563.59-29.2c-31.6,6.8-35.6-24.4-19.2-30.8,16.4-6.8,30.4-12.8,26.4-27.6-4-15.19-31.2-28.79-61.2-14.79-29.6,13.59-33.6,25.59-65.59,18-32-7.2-59.6-9.2-105.2,17.6-45.2,27.2-128.8,69.2-168.4,78.8-40,9.6-72.4,20.8-145.6,10.4,0,0,87.2,10,172.8-36.4,73.6-40,184.4-115.6,253.59-128,60.8-11.2,114.8,4,134,29.2C1828.85,913.62,1812.85,962,1784.45,967.61Z" transform="translate(-8 0)" style="fill:#fff"/><path d="M246,258.4v67.2c0,.8.4,30.8,7.2,30.8,6,0,5.2,6,5.2,6H193.2s-.8-6,5.2-6c6.8,0,7.2-29.2,7.2-30.8V257.2a278.11,278.11,0,0,0-60.8,6.4v67.2h-5.2a70.72,70.72,0,0,0-20.8,3.2V272C71.2,291.2,48,328,50,373.6c2.4,58,40.4,90,82,78.79,26.8-7.6,38-44.79,21.6-69.59-13.6-20.4-45.6-16.4-62.8-2,1.2-56.8,94.8-60.4,107.2,6,4.4,23.2-3.2,78.79-67.2,89.59C63.2,488,8,444,8,380.8c0-79.6,55.2-116,110.8-132V99.2c0-1.6-.4-30.8-6.8-30.8s-5.6-6-5.6-6h51.2s.4,6-5.6,6c-6.8,0-7.2,30-7.2,30.8V242.4a331.77,331.77,0,0,1,60.8-5.6V99.2c0-1.6-.4-30.8-7.2-30.8-6,0-5.2-6-5.2-6h65.2s.8,6-5.2,6c-6.8,0-7.2,30-7.2,30.8V230.8c14.8-10,12.4-28.4,12.4-28.4,20.4,12.8,16.8,41.6-.4,51.2A37.72,37.72,0,0,1,246,258.4Zm-25.6-12.8c-21.2,1.2-42.4.8-63.6,3.6-21.6,3.2-43.6,8.8-62.8,19.2a123.3,123.3,0,0,0-53.6,52.4c-15.6,30.4-17.6,66.4-2.8,97.59C53.2,450.79,86,469.59,122,466A95.26,95.26,0,0,1,72,453.2c-34.4-20-46.8-70-36-106.4a124.43,124.43,0,0,1,28.4-50c29.6-31.2,74-42,114.8-45.6,21.6-2,104,1.2,82.4-42C273.2,236.4,240.4,244,220.4,245.6ZM170,370.4c21.2,27.2,7.6,71.19-20,88.79C183.6,444,198.4,392,171.6,364c-22-21.6-61.2-17.6-76,10C112.8,351.2,151.2,346,170,370.4ZM132.8,242.8a1048.22,1048.22,0,0,0,0-173.6A1048.22,1048.22,0,0,0,132.8,242.8Zm0,82.8c4.4-17.6,4.4-38.8,0-56C128.4,286.8,128.4,308,132.8,325.6ZM225.2,236a958.61,958.61,0,0,0,0-166A958.61,958.61,0,0,0,225.2,236Zm0,119.2a349,349,0,0,0,0-100A349,349,0,0,0,225.2,355.2Z" transform="translate(-8 0)" style="fill:#fcbd20"/><path d="M358.39,340.8H292.8s-.8-6,5.6-6,6.8-29.2,6.8-30.8V120.8c0-1.6-.4-30.8-6.8-30.8s-5.6-6-5.6-6h65.59s.8,6-5.6,6c-6.79,0-7.2,31.2-7.2,31.2V304s.41,30.8,7.2,30.8C359.19,334.8,358.39,340.8,358.39,340.8Zm-36.8-127.2c0,40,.41,80,2.81,120,2.39-40.4,2.8-81.6,2.8-122,0-39.6-.41-79.2-2.8-118.4C322,133.2,321.59,173.2,321.59,213.6Z" transform="translate(-8 0)" style="fill:#fcbd20"/><path d="M534.39,173.6c0,5.6-5.6,11.6-11.2,14-5.6,2-13.6,2.4-20-3.6-24.8-22.8,17.6-84.4-21.2-85.2h-9.2V304c0,1.6.8,30.8,7.2,30.8s5.6,6,5.6,6H420s-.8-6,5.6-6,6.8-28.4,6.8-30.8V98.8h-8.8c-38.8.8,3.2,62.4-21.2,85.2-6.4,6-14.4,5.6-20,3.6-4.8-2-11.2-7.6-11.2-14a9.39,9.39,0,0,1,9.2-9.6,9.73,9.73,0,0,1,9.6,9.6c0,.4,0,.4-.4.8,2-.8,3.2-3.2,2.8-6.4-1.2-18-20-64.4-20-84h160.8c0,19.6-18.8,66-20,84-.4,3.2.8,5.6,2.4,6.4v-.8a9.73,9.73,0,0,1,9.6-9.6A9.39,9.39,0,0,1,534.39,173.6Zm-85.2,40c0,40,.4,80,2.8,120,2.4-40.4,2.8-81.6,2.8-122,0-39.6-.4-79.2-2.8-118.4C449.59,133.2,449.19,173.2,449.19,213.6Z" transform="translate(-8 0)" style="fill:#fcbd20"/><path d="M708.79,173.6c0,5.6-5.6,11.6-11.2,14-5.6,2-13.6,2.4-20-3.6-24.8-22.8,17.6-84.4-21.2-85.2h-9.2V304c0,1.6.8,30.8,7.2,30.8s5.6,6,5.6,6h-65.6s-.8-6,5.6-6,6.8-28.4,6.8-30.8V98.8H598c-38.8.8,3.2,62.4-21.2,85.2-6.4,6-14.4,5.6-20,3.6-4.8-2-11.2-7.6-11.2-14a9.39,9.39,0,0,1,9.2-9.6,9.73,9.73,0,0,1,9.6,9.6c0,.4,0,.4-.4.8,2-.8,3.2-3.2,2.8-6.4-1.2-18-20-64.4-20-84h160.8c0,19.6-18.8,66-20,84-.4,3.2.8,5.6,2.4,6.4v-.8a9.73,9.73,0,0,1,9.6-9.6A9.39,9.39,0,0,1,708.79,173.6Zm-85.2,40c0,40,.4,80,2.8,120,2.4-40.4,2.8-81.6,2.8-122,0-39.6-.4-79.2-2.8-118.4C624,133.2,623.59,173.2,623.59,213.6Z" transform="translate(-8 0)" style="fill:#fcbd20"/><path d="M870,340.8h-65.2s-2-6,4.4-6,2-29.2,1.6-30.8l-4.4-24.8c-44.8-15.2-57.6,12.8-60.8,26-1.2,6-5.6,29.6,0,29.6,6.4,0,4.4,6,4.4,6h-51.2s.8-6,6.8-6c6.8,0,14-29.2,14.4-30.8l42-183.2c.4-1.6,6.8-30.8,0-30.8-6,0-4-6-4-6h66.8s2,6-4.4,6-1.6,30-1.6,30.8l24.4,137.6c9.6-6.8-.4-18.4-.4-18.4,25.2,0,31.2,36.4,4.8,44l3.6,20c0,.8,5.6,30.8,12.4,30.8C869.59,334.8,870,340.8,870,340.8ZM750.39,216.4c-9.2,38.4-18,77.2-24.8,116,11.6-38.4,21.6-77.6,30.8-116.8,8.8-37.6,17.6-75.2,24.4-113.6C769.19,140,759.59,178.4,750.39,216.4Zm52.4,43.6-20.4-115.6-28,122C774.39,256.4,789.59,257.6,802.79,260Zm1.2,9.2c-14.8-8.4-39.2-7.2-48.8,8.8C769.59,266.8,786.79,267.2,804,269.2Zm8.8-49.6c7.2,38.4,14.4,77.2,24,115.2-4.4-39.2-11.6-77.6-18.4-116-7.2-38.4-14.8-77.2-24.4-115.2C798.79,142.4,805.59,181.2,812.79,219.6Z" transform="translate(-8 0)" style="fill:#fcbd20"/><path d="M1181.58,340.8H1116s-.8-6,5.6-6,6.8-28.4,6.8-30.8V164.8l-59.2,176L1008.38,160V304s.41,30.8,7.2,30.8c6,0,5.6,6,5.6,6H970s-.8-6,5.59-6,6.8-29.2,6.8-30.8V120.8c0-1.6-.39-30.8-6.8-30.8S970,84,970,84h53.19L1076,240.4,1128.38,84h53.2s.8,6-5.6,6-7.2,29.2-7.2,30.8V304c0,1.6.8,30.8,7.2,30.8S1181.58,340.8,1181.58,340.8Zm-190-127.2c0,40,.41,80,2.8,120,2.41-40.4,2.8-81.6,2.8-122,0-39.6-.39-79.2-2.8-118.4C992,133.2,991.58,173.2,991.58,213.6Zm48.8-7.6c9.6,28.4,19.6,56.8,31.6,84-7.2-29.2-16.8-57.6-26.4-85.6-10-28.4-20-56.4-32-83.6C1021.18,149.6,1030.38,178,1040.38,206Zm61.6-12.4c-6.8,20-13.6,40.4-18,61.2,9.2-19.2,16.4-39.6,23.2-59.6s13.2-40.4,17.6-61.2C1115.58,153.2,1108.78,173.2,1102,193.6Zm42.4,20c.4,40,.4,80,2.8,120,2.4-40.4,3.2-81.6,2.8-122,0-39.6-.4-79.2-2.8-118.4C1144.78,133.2,1144.78,173.2,1144.38,213.6Z" transform="translate(-8 0)" style="fill:#fcbd20"/><path d="M1265.18,340.8h-65.6s-.8-6,5.6-6,6.8-29.2,6.8-30.8V120.8c0-1.6-.4-30.8-6.8-30.8s-5.6-6-5.6-6h65.6s.8,6-5.6,6c-6.8,0-7.2,31.2-7.2,31.2V304s.4,30.8,7.2,30.8C1266,334.8,1265.18,340.8,1265.18,340.8Zm-36.8-127.2c0,40,.4,80,2.8,120,2.4-40.4,2.8-81.6,2.8-122,0-39.6-.4-79.2-2.8-118.4C1228.78,133.2,1228.38,173.2,1228.38,213.6Z" transform="translate(-8 0)" style="fill:#fcbd20"/><path d="M1406.78,332c-10,10-56.8,8.8-56.8,8.8-37.2,0-67.2-27.6-67.2-62V146c0-34.4,30-62,67.2-62h54c0,19.6-19.2,66-20.4,84-.4,3.2.8,5.6,2.8,6.4v-.8a9.21,9.21,0,1,1,18.4,0c0,6-4.8,11.6-11.2,14-5.6,2-13.6,2.4-20-3.6-24.4-22.8,13.6-85.2-21.2-85.2-18.4,0-29.6,28-29.6,47.2V278.8c0,41.2,27.6,43.2,41.6,43.2V286.8c0-2-.4-30.8-7.2-30.8-6,0-5.2-6-5.2-6h52.8C1398.38,260.4,1400.38,324.4,1406.78,332Zm-94-218.8c-6.8,8.8-10.4,19.6-12,30.8-2,12-1.2,24.8-1.6,36.8v37.6c0,13.2,0,26,.4,39.2,0,11.6,0,23.2,3.2,34.8,5.2,18.4,20.4,38,41.6,36.8-22.4-1.2-35.2-22.8-38.8-43.2-1.6-10.8-1.2-21.6-.8-32.4V216.4c0-12.4,0-25.2-.4-37.6,0-11.2-1.2-22.8,0-34.4,1.2-10.8,4.4-21.6,10.8-30.8,5.6-8,12.8-13.2,21.2-18.4C1327.18,100,1319.18,104.8,1312.78,113.2Zm68.8,211.6a158.6,158.6,0,0,0,0-67.2A172.7,172.7,0,0,0,1381.58,324.8Z" transform="translate(-8 0)" style="fill:#fcbd20"/><path d="M1769.17,403.2c-4.4,20.4-34.8,39.19-73.2,33.19-45.59-6.79-72-36.39-96.79-63.19a1135.41,1135.41,0,0,0-110,34c-119.6,44.39-272.8,119.59-358.8,75.59-68.4-34.8-32.8-137.59,45.2-121.59,0,0-43.6,12.4-32.8,54,12,48.79,79.2,40.39,145.2,29.19,74.8-12.79,198-58.79,300.4-82.79a73.92,73.92,0,0,1-5.6-5.6c-28.8-27.6-55.6-6-43.2,10-20,2.8-26.8-14-19.2-26.8V120.8c0-2.4-.4-30.8-6.8-30.8s-5.6-6-5.6-6h72c49.6,0,90,40.4,90,90.8s-40.39,91.6-90,91.6a78.9,78.9,0,0,1-19.2-2.4v62.8c17.2,3.2,33.6,16,51.6,29.6,54.79-11.2,101.19-12.4,128.79,0C1753.57,362,1775.17,377.6,1769.17,403.2Zm-648-9.6c-7.2,17.19-5.6,39.6,4.4,55.19,15.6,23.6,46.8,29.2,72.4,30,29.2.8,58-3.6,86-10.4,22.4-5.2,44-12,65.6-19.19,28-9.61,56-19.2,83.6-29.2,54.4-19.21,108.4-38.8,164-52.8,26.8-6.8,54-12,81.59-13.2,21.6-1.2,48.8-.8,65.6,14.4-10-9.6-24.4-13.6-38-15.2-17.6-2-36-1.2-53.6.8-56.39,6.4-110.79,24-164.39,41.6C1432.78,414,1378,434.79,1322,452c-21.6,6.4-43.2,12.4-65.2,16-28,5.2-57.6,8-85.6,2.4-13.6-2.8-27.2-7.6-36.8-17.6-9.2-9.2-12.8-21.59-13.6-34.4-.8-13.19,2.8-26.79,11.6-37.19a53.38,53.38,0,0,1,29.2-18C1144.38,365.2,1128.38,377.6,1121.18,393.6Zm415.6-180c0,40,.4,80,2.8,120,2.4-40.4,2.8-81.6,2.8-122,0-39.6-.4-79.2-2.8-118.4C1537.18,133.2,1536.78,173.2,1536.78,213.6Zm24,36.4h3.6c35.2,0,65.6-33.6,65.6-75.6,0-41.6-29.6-75.6-65.6-75.6a11.07,11.07,0,0,0-3.6.4Zm18.4-157.2c10,1.2,20,7.6,28.4,12.8,11.2,7.6,21.2,16.8,28.39,28.8a76.59,76.59,0,0,1,10.8,42c0,16.4-3.6,32.8-12.8,46.8-14,20.8-38,33.6-62.79,35.6,26.4,1.2,53.6-12.8,68-34.8a84.5,84.5,0,0,0,13.21-48,81.41,81.41,0,0,0-16-49.2,87.55,87.55,0,0,0-25.6-22.8C1601.58,99.2,1590,92.8,1579.18,92.8Zm60,303.2c19.6,14,43.6,24,68,22,10.8-1.21,21.2-3.21,30.8-8.4,9.6-6,17.6-18,13.6-30,1.2,8.8-3.2,17.6-9.6,22.8-9.2,7.2-22,9.6-33.2,10-10.8.39-21.2-.4-31.6-3.61-23.59-6.39-45.19-20.39-64-35.59A140.2,140.2,0,0,0,1639.17,396Zm99.2-14.8c-1.2-22.8-75.2-21.6-112-14,21.2,15.6,44.79,29.59,72.79,29.59C1707.57,396.79,1738.77,394.79,1738.37,381.2Z" transform="translate(-8 0)" style="fill:#fcbd20"/><path d="M1814.78,340.8h-65.2s-2-6,4.4-6,2-29.2,1.6-30.8l-4.4-24.8c-44.8-15.2-57.6,12.8-60.8,26-1.2,6-5.6,29.6,0,29.6,6.4,0,4.4,6,4.4,6h-51.2s.8-6,6.8-6c6.8,0,14-29.2,14.4-30.8l42-183.2c.4-1.6,6.8-30.8,0-30.8-6,0-4-6-4-6h66.8s2,6-4.4,6-1.6,30-1.6,30.8L1788,258.4c9.6-6.8-.4-18.4-.4-18.4,25.2,0,31.2,36.4,4.8,44l3.6,20c0,.8,5.6,30.8,12.4,30.8C1814.38,334.8,1814.78,340.8,1814.78,340.8Zm-119.6-124.4c-9.2,38.4-18,77.2-24.8,116,11.6-38.4,21.6-77.6,30.8-116.8,8.8-37.6,17.6-75.2,24.4-113.6C1714,140,1704.38,178.4,1695.18,216.4Zm52.4,43.6-20.4-115.6-28,122C1719.18,256.4,1734.38,257.6,1747.58,260ZM1762,31.2a30.9,30.9,0,0,1-30.8,31.2,31.2,31.2,0,0,1,0-62.4A30.9,30.9,0,0,1,1762,31.2Zm-13.2,238c-14.8-8.4-39.2-7.2-48.8,8.8C1714.38,266.8,1731.58,267.2,1748.78,269.2Zm2.4-238c0-11.2-9.2-20.4-20-20.4a20.49,20.49,0,0,0-20.4,20.4,20.2,20.2,0,0,0,40.4,0Zm6.4,188.4c7.2,38.4,14.4,77.2,24,115.2-4.4-39.2-11.6-77.6-18.4-116-7.2-38.4-14.8-77.2-24.4-115.2C1743.58,142.4,1750.38,181.2,1757.58,219.6Z" transform="translate(-8 0)" style="fill:#fcbd20"/><path d="M706.81,508c-12.8,23.2-42,114-147.19,101.6-68.4-8-119.6-60-158-86.8s-94.4-28.8-103.6,22c-5.6,30.4,24,42,36,35.6,11.6-6.4,20.4-28.8,38.4-22,19.2,7.6,13.2,31.6-5.6,44-17.6,11.6-81.2,20-92-42C262.82,492,342,464,396,490.83c53.6,26.8,112,72,145.19,80.8,34.4,8.8,72,2.4,88.8-12,12.8-10.8,27.6-28.4,21.2-46.8s-24.4-22-18-40c5.2-14,2-24.79-10.4-32s-31.2,6.8-49.6.4-34.79,7.2-39.19,19.6c-4.81,12.8-.4,30,7.19,41.6,0,0-32-6-24.79-51.6,7.2-46.79,59.19-74.79,106.79-65.19,49.2,10.4,69.2,49.19,74.4,66.4,22.4-22.41,78-2.41,65.6,43.19C747.21,476,722,480,706.81,508Zm-237.19-14.8c-56.4-68-92-84-112-77.6-20.4,6.81-44.4,11.2-51.6-9.19-7.2-20.8,28.4-46.4,73.2-20,43.6,25.6,63.2,50,90.4,86,26,34.8,64.8,73.6,123.19,61.2C592.81,533.63,525.62,561.63,469.62,493.23Z" transform="translate(-8 0)" style="fill:#fff"/></g></g></svg>