<svg id="Layer_1" data-name="Layer 1" xmlns="http://www.w3.org/2000/svg" viewBox="0 0 656.54 538.1"><path d="M415.85-655.13h-32.8s-.8-3,2.2-3c3.4,0,1-14.6.8-15.4l-7.4-42.19c-6.8-.6-14.6-2.4-23.8-5.6l-5.6,22.6c-4.2,17.2-12.8,53.39-45.8,54-33,.8-41.2-21.4-40.6-40.79.4-16.4,10.4-26.2,20.8-31,11.6-5.2,24.2-.8,28,9.6,2.4-6.6,6.4-13.2,17.4-19a35.5,35.5,0,0,1,14.2-3.6c6.6-26.6,13.8-57.2,13.8-57.2,1.8-9.4.4-11.4-.4-11.8-20.8-11-39.4-4.6-46.6,0-17.2,11.6-24.4,42-5.6,51.2,15,7.2,28.8-2.8,30.8-9.8,8.8,11.8,2.4,24.6-9,30.6-7.8,4.2-18.6,4.4-26.4,2.4-16.6-4.4-40.4-31.2-17.6-63.6,29.6-42.4,91.2-18.4,102-17.4h2.8c11.2-.4,12.2-9,12.2-9,8.8,11.4,1.4,21.4-13.4,22.6.2,2.6.6,4.6.6,4.8l9.4,54c7.8-5.4,6.8-12.8,6.8-12.8,10.4,6.4,7.6,20.4-1,25.4l-3.2,1.8,7.8,44.79c.2.41,3,15.4,6.4,15.4A3.18,3.18,0,0,1,415.85-655.13Zm-58-105.19c-6.2,23.4-11.8,46.8-18.4,70-5.2,18.39-18.2,35-38.8,34.19-13.4-.4-23.6-9.4-25.6-23-2-11.8,2.4-24.4,14-29.4a20.37,20.37,0,0,1,22,4.2c-4.6-6.8-13.8-9-21.4-6.8-8.6,2.4-14.6,9.2-17,17.8-4.2,15.39,2.4,32.79,17.6,38.59,14.6,5.8,32-1,41.2-13,5.8-7.6,9-16.79,11.4-26,3-12.59,6-25.19,9.2-37.79,5-20.6,9.8-41.2,14.6-61.6Zm-48.6,25.6c-9.6-.6-18.2-7-22.2-15.4-8.8-17.6-1-39.6,15.2-49.8,13-8.2,28-10,42.6-6.4,11.4,2.8,22.6,8,34.6,8.2,8.6,0,21.8-2.4,20.4-13.8-1.4,10.2-12,11.8-20.8,11.6-10.6-.2-21-4.4-31.2-7-17.6-4.2-36.4-1.8-50.8,9.6a41.94,41.94,0,0,0-14.4,21.6c-5.2,17.6,2.2,40,21.8,44.2,14,2.6,34.4-5.6,31-22.8C335.25-741.12,321.65-733.92,309.25-734.72Zm32.4,11.4c-21,.8-28.8,23.2-28.8,23.2-5.6-11.2-32.8-4.8-27.2,18,2.4,9.39,12.4,15.19,21.6,14.79,16-.6,23.6-18.19,27.8-31.39C336.85-704.52,339.05-713.32,341.65-723.32Zm.6-3c-13.6-.4-24,8-28.6,20.4C320.45-717.32,329.05-724.12,342.25-726.32Zm35.4,5.4c-6.8-2-14.2-4.4-21.4-4.6C362.85-722.92,370.45-720.72,377.65-720.92Zm-1-6.6-8.4-47.4c-2.8,11.4-7.2,29.4-11.4,45.6C363.85-728.72,370.65-727.52,376.65-727.52Zm22.8,69.79a1278.06,1278.06,0,0,0-24-134.39A1227.56,1227.56,0,0,0,399.45-657.73Zm4.4-85.79c1.8,7-.6,13.6-5.8,18.4C404.65-728.12,407.85-737.32,403.85-743.52Z" transform="translate(-188.38 908)" style="fill:#fcfcfc"/><path d="M538.45-627.13c-3.8,9.8-19,17.4-36.6,13.6-15.6-3.4-24.8-18.2-31-35.4a448.94,448.94,0,0,0-67,20.2c-59.2,23.6-136.2,53.6-182,17.4-44.2-34.8-17.2-125,51.4-110.59-2.6.4-55.2,9.8-46.2,66.79,3.8,24.6,27.4,52.2,76.2,45,52.4-7.8,114.2-34,165-45.2h.4c-4.2-10.4-18.4-54-19-56.19l-8.2,27.19c-.2,1-4.2,15.4-1,15.4s2,3,2,3h-25.6a3.75,3.75,0,0,1,3.6-3c3.4,0,8-15,8.2-15.4l14.2-48.79-13.2-42.8c-.2-.4-5.2-15.4-8.4-15.4a3.83,3.83,0,0,1-3.8-3h32.8s1.4,3-1.8,3,1,14.6,1.2,15.4l9,28.4,8.2-28.4c.2-.4,4.4-15.4,1-15.4-3,0-1.8-3-1.8-3h25.6a3.83,3.83,0,0,1-3.8,3c-3.2,0-7.8,14.6-8,15.4l-14.6,49.8s18,56.39,21.4,68c17-1.8,31.2-1.4,40.6,3.8C534.65-650.13,543.84-640.13,538.45-627.13Zm-296.4-88.19c-17.6,8.6-28.8,25.2-31,44.59-2.4,20.4,4.6,42.2,20.6,55.4,14.6,12.4,34.8,15.4,53.4,15,21.4-.6,42.6-5.6,63-12,20-6.2,39.6-14.2,59.4-21.2,16.4-6,41.4-13.2,59.2-17.4-5.6,1.2-13.8,2.8-22.6,5-39.6,10.2-77,27.8-116.8,37-34.6,8-83.8,12.8-104.4-23.6-9.8-17.4-11-40.4-2-58.39,8.6-16.6,26.6-28.2,45-31A61.31,61.31,0,0,0,242.05-715.32Zm194.8,20a180.91,180.91,0,0,0-5.8,25c3.6-7.79,6-16,8.6-24.19,2.2-8.2,4.6-16.4,5.8-25A174.09,174.09,0,0,0,436.85-695.32Zm15.6-34c6.2,19.8,29.8,106.19,49.6,110.59-16.2-7.6-41-92.39-47.2-112.59-6-19.4-12.2-39-19.4-58C440.45-769.12,446.45-749.32,452.45-729.32Zm16.6-36.2a216.4,216.4,0,0,0-6,25,174.09,174.09,0,0,0,8.6-24.2,174.57,174.57,0,0,0,5.8-25A203.51,203.51,0,0,0,469.05-765.52Zm-2.4,114.59a.7.7,0,0,1,.4-.2A.7.7,0,0,0,466.65-650.93Zm67.2,19.8a19.62,19.62,0,0,0-6.2-18.8c-6.6-5.4-15.8-6.4-24-6.8-7.4-.4-20.2,1.8-15,1.2a76.59,76.59,0,0,1,13.6-.6c7.8.4,16.4,1.8,23,6.6a16.29,16.29,0,0,1,6.4,16c-1.61,7.6-7.8,11.6-14.8,13.6C524.45-618.93,532-623.73,533.85-631.13Zm-7.8-11c-1.6-9.6-17-12.4-37.8-10,3.6,12,8.6,23.2,16.4,25.6C518.05-622.53,527.65-633.33,526.05-642.13Z" transform="translate(-188.38 908)" style="fill:#fcfcfc"/><path d="M558.65-763.32v66.4c-.2,17.19-14.8,29.39-32.6,31-18-.6-32.6-14.19-32.6-31v-66.4c0-17,14.6-30.6,32.8-31h.2C544.25-793.52,558.65-780.12,558.65-763.32Zm-49.8-16.4c-3.6,4.6-5.4,10.4-6.2,16.4-.6,6-.4,12.4-.4,18.4-.2,6.4-.2,12.6-.2,18.8v19.6c.2,5.4-.2,11,1.2,16.4,2.8,9,11.2,18.39,21.4,18.39-10.4-1.39-17.8-11.6-19.4-21.59-.8-5.2-.6-10.8-.4-16.2v-17.6c0-6.2,0-12.6-.2-18.8,0-6-.6-12.2,0-18.2a33.17,33.17,0,0,1,5.4-15.4c2.8-4,6.6-6.6,10.6-9.2C516.05-786.32,512.05-783.92,508.85-779.72Zm29.6,16.4a24.23,24.23,0,0,0-12.4-21.2,24.23,24.23,0,0,0-12.4,21.2v66.4a24.22,24.22,0,0,0,12.4,21.19,24.22,24.22,0,0,0,12.4-21.19Zm4.4-15.2a32.39,32.39,0,0,1,4.8,15.4c.6,6.2,0,12.2,0,18.2s0,11.8-.2,17.8c0,6.2,0,12.4.2,18.6,0,5.2.6,10.8-.4,16-1.6,9.79-9.4,19.4-19.6,20.79,10.6,0,19.2-9.79,21.6-19.39,1.4-5.6,1-11.6,1-17.4v-38.4c-.2-5.8,0-11.6-.8-17.4a33.07,33.07,0,0,0-6.4-16c-3.2-4-7-6.2-11.4-8.4C536.05-785.92,540.05-783.12,542.85-778.52Z" transform="translate(-188.38 908)" style="fill:#fcfcfc"/><path d="M464.85-486.69c0,17.4-11,37.6-39.39,37.6-22.6,0-35.2-15.6-35.2-33.4,0-32.4,43.19-36.2,44-13.4-16.4-7-29.19,5.4-28.79,16.4.4,9.6,8.6,20.4,20,21,19,1,27.39-16.6,24.39-30.8-5.4-23.8-53.19-50.2-53.19-83.4,0-20.6,13.6-29,28-31.2,15-2.2,30.6,1.8,30.6,1.8,0,9.8-9.6,33-10.2,42-.2,1.6.4,2.8,1.4,3.2,0-.2-.2-.2-.2-.4a4.87,4.87,0,0,1,4.8-4.8,4.7,4.7,0,0,1,4.6,4.8,5.33,5.33,0,0,1-.6,2.4,9.88,9.88,0,0,1-5,4.6,9.58,9.58,0,0,1-10-1.8c-12.2-11.4,11.4-42.6-11.8-42.6-9.19,0-12,9-11.59,22C417.66-544.49,464.85-524.49,464.85-486.69Zm-67.79-1.4c-5.8,18.2,9.2,34.6,27.19,35.4-15.4-3.2-29-15.8-25-33,3.6-14.6,21.59-23,33.79-12.2C422.06-511.29,401.86-502.49,397.06-488.09Zm10-74.8c4.4,14,15.4,25.6,25,36.4s21.6,21.6,24.2,36.4c3.2,16.8-6.2,30.4-21.6,36.2,16-4.6,26-18.2,24-35.2-1.6-14.4-11.6-25-21-35.4-10.19-11.2-21.8-22.8-27.59-36.8-6.2-15-1.21-34.2,16-38.4C408.66-597.09,402.46-578.09,407.06-562.89Z" transform="translate(-188.38 908)" style="fill:#fcfcfc"/><path d="M548.05-557.29c0,2.8-2.8,5.8-5.6,7a9.58,9.58,0,0,1-10-1.8c-12.4-11.4,8.8-42.2-10.6-42.6h-4.6v102.6c0,.8.4,15.4,3.6,15.4a2.59,2.59,0,0,1,2.8,3h-32.8a2.6,2.6,0,0,1,2.8-3c3.2,0,3.4-14.2,3.4-15.4v-102.6h-4.4c-19.4.4,1.6,31.2-10.59,42.6a9.58,9.58,0,0,1-10,1.8c-2.4-1-5.6-3.8-5.6-7a4.7,4.7,0,0,1,4.6-4.8,4.86,4.86,0,0,1,4.79,4.8c0,.2,0,.2-.19.4,1-.4,1.59-1.6,1.4-3.2-.6-9-10-32.2-10-42h80.39c0,9.8-9.4,33-10,42a3.05,3.05,0,0,0,1.2,3.2v-.4a4.87,4.87,0,0,1,4.8-4.8A4.7,4.7,0,0,1,548.05-557.29Zm-42.6,20c0,20,.2,40,1.4,60,1.2-20.2,1.4-40.8,1.4-61,0-19.8-.2-39.6-1.4-59.2C505.65-577.49,505.45-557.49,505.45-537.29Z" transform="translate(-188.38 908)" style="fill:#fcfcfc"/><path d="M628.65-602.09a3.75,3.75,0,0,1-3.6,3c-3.4,0-7.6,13-8.2,15.4-3.8,17-15.4,67.6-15.4,67.6v24c0,1,.2,12.4,2.6,15,52.6,9.8,116.8,99.19,172.2,99.19,27,0,40.2-18.59,43-33.19,3.6-18.4-7.2-42.2-33.4-36.8,24.6-16.6,63.8,1,58.6,35-4.4,29.6-39,43-67.6,43-111,0-140.2-103.39-188.6-103.79h-13.2a2.59,2.59,0,0,1,2.8-3c3.2,0,3.4-14.2,3.4-15.4v-20.2l-16.4-71.4c-.2-.4-5-15.4-8.4-15.4a3.75,3.75,0,0,1-3.6-3h32.8s1.2,3-1.8,3,.8,14,1.2,15.4l10.2,43.8s6.6-32.8,8.8-43.8c.4-2,3.6-15.4,1-15.4-3.2,0-2-3-2-3Zm-38,85.4c.2,13.2.6,26,1.4,39,.6-12.6,1-25.4,1.2-38,0-3.6-1.6-7.2-2.4-10.8l-2.6-10-4.6-17c-4-14.8-8.2-29.4-13-44C576.25-570.29,583.25-543.49,590.65-516.69Zm14.2-47.6a339.23,339.23,0,0,0-5.8,34.2c3.6-11,6-22.4,8.6-33.6,2.2-11.2,4.6-22.6,5.8-34.2A331,331,0,0,0,604.85-564.29Zm38,116.4c14.4,12.8,28.2,26,43.2,38,24.8,19.8,53.4,37.39,86.2,36.2-34.4-1.21-63-20.6-88.6-41.8-15.6-13-30.4-27.2-46.6-39.8-10.8-8.4-23-17.2-37-18.8C616.65-471.09,630.45-458.69,642.85-447.89Zm175.8,3.2c9,6.2,12.6,16.6,12.6,27.2,0,22-18.2,34.6-37,41.2,21.4-4.6,40.8-19.4,39.6-43-.4-10.6-4.2-20.4-13.2-26.6-7.6-5.2-19.6-8.2-28.4-4.4C800.85-452.69,811.45-449.69,818.65-444.69Z" transform="translate(-188.38 908)" style="fill:#fcfcfc"/><path d="M733.65-484.69c0,.4,1.6,7.4,3.6,11H635.65a2.59,2.59,0,0,1,2.8-3c3.4,0,3.4-15.4,3.4-15.4v-91.4s0-15.6-3.4-15.6a2.59,2.59,0,0,1-2.8-3h32.8a2.59,2.59,0,0,1-2.8,3c-3,0-3.4,12.8-3.6,15.2v102.8h58.2C730.25-481.09,733.25-484.29,733.65-484.69Zm-83.2-52.6c0,20,.2,40,1.4,60,1.2-20.2,1.4-40.8,1.4-61,0-19.8-.2-39.6-1.4-59.2C650.65-577.49,650.45-557.49,650.45-537.29Zm35,27v-73.2s-.2-15.6-3.6-15.6a2.72,2.72,0,0,1-2.8-3h55c0,7-6.8,23.8-7.4,30.2a2.73,2.73,0,0,0,1,2.4v-.4a3.5,3.5,0,0,1,3.4-3.4,3.5,3.5,0,0,1,3.4,3.4c0,1.8-1.6,4-4.2,5a6.64,6.64,0,0,1-7.2-1.2c-8.8-8.2,4.6-28.6-9.6-28.6h-7.8v44c1.8,0,15.2-.4,15.2-3.6,0-3,3-2.6,3-2.6v20a2.59,2.59,0,0,1-3-2.8c0-3.2-13.4-3.4-15.2-3.6v44h3.6c13.6-2.2,13.8-16.2,13.8-21.8,0-9,9.2-6.6,9.2-6.6a77.79,77.79,0,0,0,0,35.8h-53.2a2.72,2.72,0,0,1,2.8-3C685.25-494.89,685.45-510.29,685.45-510.29Zm8.4-35.6c0,17.2.2,34.4,1.2,51.6,1.2-17.4,1.4-35,1.4-52.4,0-17-.2-34-1.4-50.8C694.05-580.29,693.85-563.09,693.85-545.89Z" transform="translate(-188.38 908)" style="fill:#fcfcfc"/><path d="M337.31-836.51c4.35,3.51,2.95,6.08-.46,6-3.29-.26-3.33-1.58-5.73-2.86s-3.59-4.36-13.2-2.37c-8,1.75-30.17,15.15-42.05,20.87-10.37,4.9-28,11-37,3.73-8.85-7-9.15-15.22-3.91-19.82a7.07,7.07,0,0,0,1.81,6.38c2.87,3.43,5.76,2,8.56,5s5.32,6.17,11.53,6.16c6.8.05,17.22-3.53,25.48-7.68,11-5.44,24.24-13.27,31.8-16.14C323.22-841,333.46-839.64,337.31-836.51ZM327-831.31s-7.71.82-21.2,7.65a190.14,190.14,0,0,0-20.43,12l-12.81,8.51c-3.63,2.45-7,3.67-7.79,2.31,0,0-5.89,3.22-8.23.31,0,0-10.87,2.46-21.69-6.91.31.1,10.79,7.16,27.41,2.53,17-4.83,27.46-12.4,35.66-17C306.25-826.54,317.12-832.1,327-831.31Zm-.07-28.07c-1,4.14-1,8.28,1.52,8.5a4.13,4.13,0,0,0,1.72-.4c2.83-.85,7.58-3.76,8.36-6.53,1.11-3.56,4.09-2.37,3-.44-3.07,5.32-9.18,10-14,11.63l-1.55.52c-3.62.52-5.44-1.87-5.65-5.39-2.85,4.85-5.67,8.8-8.59,10.11-3.47,1.54-4.8-.48-4.66-3.61.48-10,11.2-26.74,5.27-24.85-3.81,1.29-11.13,9.89-17.78,34.35l-6.06,2.06c6-22.6,16.58-46.73,21.66-57.52-2.27.63-4.73,1-7,1.47-2.58,4.65-7.65,14.55-14.19,29.54-7.4,16.29-15,41.62-33.83,37.85-13.61-3.2-12.62-24.92-.1-29.24,7.57-2.87,12.41,0,13.7,2.74s.26,5.87-2.22,8.15c0,0,.14-6.22-6.4-4.39-6.36,2-9.16,10.19-6.5,15.28,2.91,5.78,9,5.19,14.29-1.34,10.29-12.57,19.14-45.33,30.16-58-3.18.47-6.1.74-8.68,1.26-9.66,1.7-15.39,9-16.56,15.26-1.09,5.77,4,10.21,4,10.06-11.22,3.11-14.23-10.5-7.15-18.76,7.57-8.93,21.28-10.18,27.69-10.81a57.45,57.45,0,0,0,15.46-4.46l1.12-.46a30.26,30.26,0,0,0,5.28-3.28,19.59,19.59,0,0,0,5.66-7.91c3.12.14,5.55,4.67,1.3,9a25.21,25.21,0,0,1-8.64,5.68,316,316,0,0,0-14.27,31,17.6,17.6,0,0,0-1.17,3.13c4.2-8.74,8.12-12.26,11.51-13.35,11.16-3.53,1.61,15.14-.16,21.31-3.49,11.58,4,1,5.93-1.9a7.81,7.81,0,0,0,1.07-1.78,21.06,21.06,0,0,1,1.67-5.86c4.59-11.15,13.44-18.35,18.78-19.27,6.63-1.11,6.5,5.12,2.29,10.75C339.22-864.12,332.1-859.25,326.91-859.38Zm1.76-5.13a19.31,19.31,0,0,0-1.17,3.12c7.2.73,18.52-18.05,13.6-17.33C338.35-878.33,332.28-873.31,328.67-864.51Z" transform="translate(-188.38 908)" style="fill:#fff"/><path d="M203-595.28c6.7,6.31,14.63,3.59,21.18,9s12.31,11.32,28.87,11.14c18.09-.14,46.59-7.32,69.35-15.29,30.7-10.7,67.76-25.77,88.49-31.75,25.29-7.07,51.75-4.93,61.14.77,14.75,9.25-16.69,18.12-17.47,6.16-.25-5.19-3.94-11.57-34-6.06-21.72,4.06-83.79,31.53-117,42.66-28.91,9.78-76.81,22-99,8.61-21.93-13.38-19.89-29-4-38C200.58-608,196.07-601.7,203-595.28Zm63.13,37.18c46.24-10.55,75.33-25.59,98.28-34.94,22.75-9.32,52.9-20.66,78.87-20.08,0,0-20.32,2.17-57.75,16.27-25.91,9.72-40.46,16.57-56.64,24s-25.69,12.21-35.81,17.25-19.63,7.43-21.36,4.89c0,0-16.32,6.56-21.75,1.38,0,0-29.25,5.36-56.07-11.36C193.17-561.16,219.88-547.56,266.13-558.1Z" transform="translate(-188.38 908)" style="fill:#fff"/><path d="M583.8-649.15s1,7.82-8.66,6.62c-4.81-.61-8.42-7.1-7.34-13.59l-1.2.84C555.9-646.62,562-636,566.48-636s5.77-6.61,12.27-2.65,1.8,12.27-5.54,14.2-21.28-.85-20.92-18.16c.12-5.66,5.65-15.28,17.56-18.77a17.8,17.8,0,0,1,8.3-6.37c16-6.26,34.87,9,44.26,12.75,9,3.61,23.93,4.93,26.33-4.69,2.17-7.94-2.52-13.83-9.38-12.27-4.57,1.08,0,5.65-5.17,7.22-4.93,1.44-6.61-5.3-3.25-9.75,5.54-7.21,19.13-4.21,22.37,5.42S649.83-646,633-648.91s-36.08-20.57-51.48-17.2a12,12,0,0,0-6.61,3.73,37.49,37.49,0,0,1,9.62.24c22.13,3,43.9,20.69,64.71,20.09,20.2-.6,30.42-15.16,28.74-21.77-1.32-5-7.22-.72-8.78-6.5-1.32-4.93,5.53-6.85,10.58-4.21,6.5,3.49,7.58,12.63,2.89,20.57-4.21,7.34,1,8.66-4,13.23-1.92,1.68-5.05,2.4-6.73,3.37-1.93,1.08-3.13,3.61-6.74,5.41-4.81,2.28-8.9-.48-11.91.36s-3.72,3.85-12.38,2.89-28-11.55-35-16.36c-5.77-4.09-21.53-15.39-33.32-13a13.42,13.42,0,0,0-.36,5.53C573.34-647,578.51-644.34,583.8-649.15Zm53.88,26.58c-19-5.77-29.83-15.39-35.48-19.72,3.37,2.16,34.28,22.37,58.09,18.4,27.3-4.69,44.74-22.73,50.63-33.56s7.94-24.89-2.76-31.27c0,0,15.75,4.45,17.56,21.05s-7,23.21-16.84,26.94-16.24,10.94-26.22,15.39A62.09,62.09,0,0,1,637.68-622.57Zm169.46-8.78c-9.5,2.05-10.7-7.34-5.77-9.26s9.14-3.85,7.93-8.3-9.38-8.66-18.4-4.45-10.1,7.7-19.72,5.41-17.92-2.76-31.63,5.3-38.73,20.8-50.64,23.69-21.76,6.25-43.77,3.13c0,0,26.21,3,52-10.95,22.13-12,55.45-34.76,76.25-38.49,18.28-3.36,34.52,1.21,40.29,8.78C820.49-647.59,815.68-633,807.14-631.35Z" transform="translate(-188.38 908)" style="fill:#fff"/></svg>