<svg xmlns="http://www.w3.org/2000/svg" viewBox="0 0 179.33 179.2"><g id="Layer_2" data-name="Layer 2"><g id="Layer_1-2" data-name="Layer 1"><path d="M25.73,38.32c2.8,2.8,3.2,12.8,3.2,12.8s-10.2-.4-12.8-3a6.77,6.77,0,0,1,0-9.8A6.88,6.88,0,0,1,25.73,38.32Zm22.8,163.2h-4.6v-39.6h-8.6v-39.2a2.43,2.43,0,0,1,2.4-2.4,2.31,2.31,0,0,1,2.4,2.4v34.6h8.4Zm86.4-111.8h44.4v4.8h-39.6v5H77.13v62.4h-5v39.6h-4.6v-44.2h5V97.12a2.31,2.31,0,0,1,2.4-2.4h60Zm44.4-23.6v4.8h-44.4v-8.4h-34.6a2.43,2.43,0,0,1-2.4-2.4,2.31,2.31,0,0,1,2.4-2.4h39.4v8.4Z" transform="translate(0 -22.6)" style="fill:#fbb03b"/><path d="M60.6,201.8H55.8V95.6A18.31,18.31,0,0,0,40,77.6V90.8c4.8,1,9.2,4.6,9.2,10.8a10.91,10.91,0,0,1-4,8.4c-2.6,2.4-6.4,3.8-11,3.8-12.8,0-19.4-10.2-19.4-20.4,0-11.2,8.4-19.6,20.4-20.6V62.6c-6.6-.4-23.8-2-29.8-8a18.8,18.8,0,0,1,13.4-32A18.47,18.47,0,0,1,32,28.2c5.8,5.8,7.4,23.2,7.8,29.6H50.2c1-11.8,9.2-20.4,20.4-20.4C80.8,37.4,91,44.2,91,56.8c0,4.6-1.2,8.4-3.6,11.2A11.39,11.39,0,0,1,79,71.8c-6.2,0-9.8-4.4-10.8-9.2H55A17.84,17.84,0,0,0,73,78.4H179.2v4.8H73A22.69,22.69,0,0,1,50.2,62.6H40V72.8A23.14,23.14,0,0,1,60.6,95.6ZM35,57.8c-.2-2.4-.4-6.2-1-10-1.8-11.2-4-15-5.4-16.2a13.32,13.32,0,0,0-9.8-4.2,13.44,13.44,0,0,0-10,4.2,14.12,14.12,0,0,0,0,19.8C10.2,52.6,14,55,25,56.6,29,57.2,32.6,57.6,35,57.8Zm2.6,37.6a2.38,2.38,0,0,1-2.4-2V77.6c-9.4,1-15.6,7.2-15.6,15.8,0,7.6,4.6,15.6,14.6,15.6a12.31,12.31,0,0,0,8-2.4,7.16,7.16,0,0,0,2.2-5C44.4,98.6,42.2,95.4,37.6,95.4ZM55,57.8H70.2a.73.73,0,0,1,.6.2,2.35,2.35,0,0,1,2,2.2C72.8,65,76,67,79,67a6.39,6.39,0,0,0,4.8-2.2,12,12,0,0,0,2.6-8c0-10-8.2-14.6-15.8-14.6C62,42.2,55.8,48.6,55,57.8Z" transform="translate(0 -22.6)" style="fill:#fcbd20"/></g></g></svg>