<svg xmlns="http://www.w3.org/2000/svg" viewBox="0 0 839.63 252.23"><g id="Layer_2" data-name="Layer 2"><g id="Layer_1-2" data-name="Layer 1"><path d="M215.56,159h-32.8s-.8-3,2.2-3c3.4,0,1-14.6.8-15.4l-7.4-42.2c-6.8-.6-14.6-2.4-23.8-5.6L149,115.4c-4.2,17.2-12.8,53.4-45.8,54-33,.8-41.2-21.4-40.6-40.8.4-16.4,10.4-26.2,20.8-31,11.6-5.2,24.2-.8,28,9.6,2.4-6.6,6.4-13.2,17.4-19A35.5,35.5,0,0,1,143,84.6c6.6-26.6,13.8-57.2,13.8-57.2,1.8-9.4.4-11.4-.4-11.8-20.8-11-39.4-4.6-46.6,0-17.2,11.6-24.4,42-5.6,51.2C119.16,74,133,64,135,57c8.8,11.8,2.4,24.6-9,30.6-7.8,4.2-18.6,4.4-26.4,2.4C83,85.6,59.16,58.8,82,26.4,111.56-16,173.16,8,184,9h2.8C198,8.6,199,0,199,0c8.8,11.4,1.4,21.4-13.4,22.6.2,2.6.6,4.6.6,4.8l9.4,54c7.8-5.4,6.8-12.8,6.8-12.8,10.4,6.4,7.6,20.4-1,25.4l-3.2,1.8,7.8,44.8c.2.4,3,15.4,6.4,15.4A3.18,3.18,0,0,1,215.56,159Zm-58-105.2c-6.2,23.4-11.8,46.8-18.4,70-5.2,18.4-18.2,35-38.8,34.2-13.4-.4-23.6-9.4-25.6-23-2-11.8,2.4-24.4,14-29.4a20.37,20.37,0,0,1,22,4.2c-4.6-6.8-13.8-9-21.4-6.8-8.6,2.4-14.6,9.2-17,17.8-4.2,15.4,2.4,32.8,17.6,38.6,14.6,5.8,32-1,41.2-13,5.8-7.6,9-16.8,11.4-26,3-12.6,6-25.2,9.2-37.8,5-20.6,9.8-41.2,14.6-61.6ZM109,79.4c-9.6-.6-18.2-7-22.2-15.4-8.8-17.6-1-39.6,15.2-49.8,13-8.2,28-10,42.6-6.4,11.4,2.8,22.6,8,34.6,8.2,8.6,0,21.8-2.4,20.4-13.8-1.4,10.2-12,11.8-20.8,11.6-10.6-.2-21-4.4-31.2-7C130,2.6,111.16,5,96.76,16.4A41.94,41.94,0,0,0,82.36,38c-5.2,17.6,2.2,40,21.8,44.2,14,2.6,34.4-5.6,31-22.8C135,73,121.36,80.2,109,79.4Zm32.4,11.4c-21,.8-28.8,23.2-28.8,23.2-5.6-11.2-32.8-4.8-27.2,18,2.4,9.4,12.4,15.2,21.6,14.8,16-.6,23.6-18.2,27.8-31.4C136.56,109.6,138.76,100.8,141.36,90.8Zm.6-3c-13.6-.4-24,8-28.6,20.4C120.16,96.8,128.76,90,142,87.8Zm35.4,5.4c-6.8-2-14.2-4.4-21.4-4.6C162.56,91.2,170.16,93.4,177.36,93.2Zm-1-6.6L168,39.2c-2.8,11.4-7.2,29.4-11.4,45.6C163.56,85.4,170.36,86.6,176.36,86.6Zm22.8,69.8a1277.79,1277.79,0,0,0-24-134.4A1228.17,1228.17,0,0,0,199.16,156.4Zm4.4-85.8c1.8,7-.6,13.6-5.8,18.4C204.36,86,207.56,76.8,203.56,70.6ZM338.16,187c-3.8,9.8-19,17.4-36.6,13.6-15.6-3.4-24.8-18.2-31-35.4a448.94,448.94,0,0,0-67,20.2c-59.2,23.6-136.2,53.6-182,17.4C-22.64,168,4.36,77.8,73,92.2c-2.6.4-55.2,9.8-46.2,66.8,3.8,24.6,27.4,52.2,76.2,45,52.4-7.8,114.2-34,165-45.2h.4c-4.2-10.4-18.4-54-19-56.2l-8.2,27.2c-.2,1-4.2,15.4-1,15.4s2,3,2,3h-25.6a3.75,3.75,0,0,1,3.6-3c3.4,0,8-15,8.2-15.4L242.56,81l-13.2-42.8c-.2-.4-5.2-15.4-8.4-15.4a3.83,3.83,0,0,1-3.8-3H250s1.4,3-1.8,3,1,14.6,1.2,15.4l9,28.4,8.2-28.4c.2-.4,4.4-15.4,1-15.4-3,0-1.8-3-1.8-3h25.6a3.83,3.83,0,0,1-3.8,3c-3.2,0-7.8,14.6-8,15.4L265,88s18,56.4,21.4,68c17-1.8,31.2-1.4,40.6,3.8C334.36,164,343.56,174,338.16,187ZM41.76,98.8c-17.6,8.6-28.8,25.2-31,44.6-2.4,20.4,4.6,42.2,20.6,55.4,14.6,12.4,34.8,15.4,53.4,15,21.4-.6,42.6-5.6,63-12,20-6.2,39.6-14.2,59.4-21.2,16.4-6,41.4-13.2,59.2-17.4-5.6,1.2-13.8,2.8-22.6,5-39.6,10.2-77,27.8-116.8,37-34.6,8-83.8,12.8-104.4-23.6-9.8-17.4-11-40.4-2-58.4,8.6-16.6,26.6-28.2,45-31A61.31,61.31,0,0,0,41.76,98.8Zm194.8,20a181,181,0,0,0-5.8,25c3.6-7.8,6-16,8.6-24.2,2.2-8.2,4.6-16.4,5.8-25A174.09,174.09,0,0,0,236.56,118.8Zm15.6-34c6.2,19.8,29.8,106.2,49.6,110.6-16.2-7.6-41-92.4-47.2-112.6-6-19.4-12.2-39-19.4-58C240.16,45,246.16,64.8,252.16,84.8Zm16.6-36.2a216.4,216.4,0,0,0-6,25,174.09,174.09,0,0,0,8.6-24.2,174.57,174.57,0,0,0,5.8-25A203.51,203.51,0,0,0,268.76,48.6Zm-2.4,114.6a.7.7,0,0,1,.4-.2A.7.7,0,0,0,266.36,163.2Zm67.2,19.8a19.62,19.62,0,0,0-6.2-18.8c-6.6-5.4-15.8-6.4-24-6.8-7.4-.4-20.2,1.8-15,1.2A76.59,76.59,0,0,1,302,158c7.8.4,16.4,1.8,23,6.6a16.29,16.29,0,0,1,6.4,16c-1.6,7.6-7.8,11.6-14.8,13.6C324.16,195.2,331.76,190.4,333.56,183Zm-7.8-11c-1.6-9.6-17-12.4-37.8-10,3.6,12,8.6,23.2,16.4,25.6C317.76,191.6,327.36,180.8,325.76,172Zm32.6-121.2v66.4c-.2,17.2-14.8,29.4-32.6,31-18-.6-32.6-14.2-32.6-31V50.8c0-17,14.6-30.6,32.8-31h.2C344,20.6,358.36,34,358.36,50.8Zm-49.8-16.4c-3.6,4.6-5.4,10.4-6.2,16.4-.6,6-.4,12.4-.4,18.4-.2,6.4-.2,12.6-.2,18.8v19.6c.2,5.4-.2,11,1.2,16.4,2.8,9,11.2,18.4,21.4,18.4-10.4-1.4-17.8-11.6-19.4-21.6-.8-5.2-.6-10.8-.4-16.2V87c0-6.2,0-12.6-.2-18.8,0-6-.6-12.2,0-18.2a33.17,33.17,0,0,1,5.4-15.4c2.8-4,6.6-6.6,10.6-9.2C315.76,27.8,311.76,30.2,308.56,34.4Zm29.6,16.4a24.23,24.23,0,0,0-12.4-21.2,24.23,24.23,0,0,0-12.4,21.2v66.4a24.23,24.23,0,0,0,12.4,21.2,24.23,24.23,0,0,0,12.4-21.2Zm4.4-15.2a32.39,32.39,0,0,1,4.8,15.4c.6,6.2,0,12.2,0,18.2s0,11.8-.2,17.8c0,6.2,0,12.4.2,18.6,0,5.2.6,10.8-.4,16-1.6,9.8-9.4,19.4-19.6,20.8,10.6,0,19.2-9.8,21.6-19.4,1.4-5.6,1-11.6,1-17.4V67.2c-.2-5.8,0-11.6-.8-17.4a33.07,33.07,0,0,0-6.4-16c-3.2-4-7-6.2-11.4-8.4C335.76,28.2,339.76,31,342.56,35.6Zm117,99.83c0,17.4-11,37.6-39.4,37.6-22.6,0-35.2-15.6-35.2-33.4,0-32.4,43.2-36.2,44-13.4-16.4-7-29.2,5.4-28.8,16.4.4,9.6,8.6,20.4,20,21,19,1,27.4-16.6,24.4-30.8-5.4-23.8-53.2-50.2-53.2-83.4,0-20.6,13.6-29,28-31.2C434.37,16,450,20,450,20c0,9.8-9.6,33-10.2,42-.2,1.6.4,2.8,1.4,3.2,0-.2-.2-.2-.2-.4a4.87,4.87,0,0,1,4.8-4.8,4.7,4.7,0,0,1,4.6,4.8,5.33,5.33,0,0,1-.6,2.4,9.88,9.88,0,0,1-5,4.6,9.58,9.58,0,0,1-10-1.8c-12.2-11.4,11.4-42.6-11.8-42.6-9.2,0-12,9-11.6,22C412.37,77.63,459.57,97.63,459.57,135.43Zm-67.8-1.4c-5.8,18.2,9.2,34.6,27.2,35.4-15.4-3.2-29-15.8-25-33,3.6-14.6,21.6-23,33.8-12.2C416.77,110.83,396.57,119.63,391.77,134Zm10-74.8c4.4,14,15.4,25.6,25,36.4s21.6,21.6,24.2,36.4c3.2,16.8-6.2,30.4-21.6,36.2,16-4.6,26-18.2,24-35.2-1.6-14.4-11.6-25-21-35.4-10.2-11.2-21.8-22.8-27.6-36.8-6.2-15-1.2-34.2,16-38.4C403.37,25,397.17,44,401.77,59.23Zm141,5.6c0,2.8-2.8,5.8-5.6,7a9.58,9.58,0,0,1-10-1.8c-12.4-11.4,8.8-42.2-10.6-42.6H512V130c0,.8.4,15.4,3.6,15.4a2.59,2.59,0,0,1,2.8,3h-32.8a2.59,2.59,0,0,1,2.8-3c3.2,0,3.4-14.2,3.4-15.4V27.43h-4.4c-19.4.4,1.6,31.2-10.6,42.6a9.58,9.58,0,0,1-10,1.8c-2.4-1-5.6-3.8-5.6-7a4.7,4.7,0,0,1,4.6-4.8,4.87,4.87,0,0,1,4.8,4.8c0,.2,0,.2-.2.4,1-.4,1.6-1.6,1.4-3.2-.6-9-10-32.2-10-42h80.4c0,9.8-9.4,33-10,42a3.05,3.05,0,0,0,1.2,3.2v-.4a4.87,4.87,0,0,1,4.8-4.8A4.7,4.7,0,0,1,542.77,64.83Zm-42.6,20c0,20,.2,40,1.4,60,1.2-20.2,1.4-40.8,1.4-61,0-19.8-.2-39.6-1.4-59.2C500.37,44.63,500.17,64.63,500.17,84.83ZM623.36,20a3.75,3.75,0,0,1-3.6,3c-3.4,0-7.59,13-8.2,15.4-3.8,17-15.39,67.6-15.39,67.6v24c0,1,.19,12.4,2.59,15,52.6,9.8,116.8,99.2,172.2,99.2,27,0,40.2-18.6,43-33.2,3.6-18.4-7.2-42.2-33.4-36.8,24.6-16.6,63.8,1,58.6,35-4.4,29.6-39,43-67.6,43-111,0-140.2-103.4-188.59-103.8H569.76a2.6,2.6,0,0,1,2.81-3c3.19,0,3.4-14.2,3.4-15.4v-20.2l-16.4-71.4c-.2-.4-5-15.4-8.4-15.4a3.75,3.75,0,0,1-3.6-3h32.79s1.21,3-1.79,3,.79,14,1.19,15.4L590,82.23s6.59-32.8,8.79-43.8c.41-2,3.6-15.4,1-15.4-3.2,0-2-3-2-3Zm-38,85.4c.21,13.2.61,26,1.4,39,.6-12.6,1-25.4,1.21-38,0-3.6-1.61-7.2-2.4-10.8l-2.6-10-4.61-17c-4-14.8-8.19-29.4-13-44C571,51.83,578,78.63,585.36,105.43Zm14.2-47.6a345,345,0,0,0-5.8,34.2c3.6-11,6-22.4,8.6-33.6,2.2-11.2,4.6-22.6,5.81-34.2A328.46,328.46,0,0,0,599.56,57.83Zm38,116.4c14.4,12.8,28.2,26,43.2,38,24.8,19.8,53.4,37.4,86.2,36.2-34.4-1.2-63-20.6-88.6-41.8-15.6-13-30.4-27.2-46.6-39.8-10.8-8.4-23-17.2-37-18.8C611.36,151,625.16,163.43,637.56,174.23Zm175.8,3.2c9,6.2,12.6,16.6,12.6,27.2,0,22-18.2,34.6-37,41.2,21.4-4.6,40.8-19.4,39.6-43-.4-10.6-4.2-20.4-13.2-26.6-7.6-5.2-19.6-8.2-28.4-4.4C795.56,169.43,806.16,172.43,813.36,177.43Zm-85-40c0,.4,1.6,7.4,3.6,11H630.36a2.59,2.59,0,0,1,2.8-3c3.4,0,3.4-15.4,3.4-15.4V38.63s0-15.6-3.4-15.6a2.59,2.59,0,0,1-2.8-3h32.8a2.59,2.59,0,0,1-2.8,3c-3,0-3.4,12.8-3.6,15.2V141H715C725,141,728,137.83,728.36,137.43Zm-83.2-52.6c0,20,.2,40,1.4,60,1.2-20.2,1.4-40.8,1.4-61,0-19.8-.2-39.6-1.4-59.2C645.36,44.63,645.16,64.63,645.16,84.83Zm35,27V38.63S680,23,676.56,23a2.72,2.72,0,0,1-2.8-3h55c0,7-6.8,23.8-7.4,30.2a2.73,2.73,0,0,0,1,2.4v-.4a3.4,3.4,0,0,1,6.8,0c0,1.8-1.6,4-4.2,5a6.64,6.64,0,0,1-7.2-1.2c-8.8-8.2,4.6-28.6-9.6-28.6h-7.8v44c1.8,0,15.2-.4,15.2-3.6,0-3,3-2.6,3-2.6v20a2.59,2.59,0,0,1-3-2.8c0-3.2-13.4-3.4-15.2-3.6v44H704c13.6-2.2,13.8-16.2,13.8-21.8,0-9,9.2-6.6,9.2-6.6a77.79,77.79,0,0,0,0,35.8h-53.2a2.72,2.72,0,0,1,2.8-3C680,127.23,680.16,111.83,680.16,111.83Zm8.4-35.6c0,17.2.2,34.4,1.2,51.6,1.2-17.4,1.4-35,1.4-52.4,0-17-.2-34-1.4-50.8C688.76,41.83,688.56,59,688.56,76.23Z" style="fill:#fcfcfc"/></g></g></svg>