<svg xmlns="http://www.w3.org/2000/svg" viewBox="0 0 656.53 464.98"><g id="Layer_2" data-name="Layer 2"><g id="Layer_1-2" data-name="Layer 1"><path d="M227.46,315.14q-16.41,2.92-32.8,5.62a2.59,2.59,0,0,1,2.2-3.36c3.4-.56,1-14.76.8-15.53q-3.71-20.49-7.4-41a88.91,88.91,0,0,1-23.8-1.89q-2.81,11.72-5.6,23.42c-4.2,17.73-12.8,55.48-45.8,60s-41.2-17.52-40.6-36.87c.4-16.43,10.4-27,20.8-32.84,11.6-6.32,24.2-3.39,28,6.55,2.4-6.9,6.4-14,17.4-21.2a40.8,40.8,0,0,1,14.2-5.55c6.6-27.53,13.8-59.21,13.8-59.21,1.8-9.67.4-11.46-.4-11.74-20.8-7.86-39.4.85-46.6,6.29-17.2,13.59-24.4,44.71-5.6,51.85,15,5.5,28.8-6.4,30.8-13.67,8.8,10.57,2.4,24.3-9,31.8-7.8,5.23-18.6,6.74-26.4,5.59-16.6-2.53-40.4-27.31-17.6-61.77,29.6-44.8,91.2-30,102-31l2.8-.46c11.2-2.27,12.2-11.07,12.2-11.06,8.8,9.86,1.4,21.19-13.4,24.85.2,2.57.6,4.51.6,4.7q4.69,26.24,9.4,52.43c7.8-6.74,6.8-14,6.8-14,10.4,4.59,7.6,19.08-1,25.57l-3.2,2.35,7.8,43.45c.2.37,3,14.88,6.4,14.28A2.59,2.59,0,0,1,227.46,315.14Zm-58-95.6c-6.2,24.33-11.8,48.55-18.4,72.67-5.2,19.1-18.2,37.56-38.8,39.08-13.4,1.1-23.6-7-25.6-20.41-2-11.63,2.4-24.58,14-30.75,7.4-3.75,16.2-3.34,22,1.76-4.6-6.24-13.8-7.39-21.4-4.42-8.6,3.28-14.6,10.61-17,19.42-4.2,15.75,2.4,32.66,17.6,36.92,14.6,4.32,32-4.66,41.2-17.91,5.8-8.38,9-18,11.4-27.57,3-13,6-26.06,9.2-39.13,5-21.34,9.8-42.66,14.6-63.81Q173.85,202.48,169.46,219.54Zm-48.6,32.17a23.53,23.53,0,0,1-22.2-13c-8.8-16.76-1-39.42,15.2-51.43a60.36,60.36,0,0,1,42.6-11.86c11.4,1.17,22.6,4.65,34.6,2.9,8.6-1.38,21.8-6,20.4-17.21-1.4,10.45-12,13.86-20.8,15.08-10.6,1.52-21-1.08-31.2-2.21-17.6-1.63-36.4,3.13-50.8,16.08a48.32,48.32,0,0,0-14.4,23.08c-5.2,18.06,2.2,39.9,21.8,41.89,14,1.05,34.4-9.95,31-26.7C146.86,242,133.26,251.06,120.86,251.71Zm32.4,7.19c-21,3.72-28.8,27-28.8,27-5.6-10.42-32.8-1.18-27.2,21,2.4,9.17,12.4,13.95,21.6,12.47,16-2.49,23.6-21.17,27.8-34.93C148.46,278.37,150.66,269.26,153.26,258.9Zm.6-3.09c-13.6,1.53-24,11.21-28.6,24.17C132.06,267.75,140.66,259.87,153.86,255.81Zm35.4,0c-6.8-.9-14.2-2.14-21.4-1.26C174.46,256.19,182.06,257.21,189.26,255.84Zm-1-6.43-8.4-46.07c-2.8,11.84-7.2,30.52-11.4,47.35C175.46,250.24,182.26,250.37,188.26,249.41Zm22.8,66a1174.51,1174.51,0,0,0-24-130.41A1121.87,1121.87,0,0,0,211.06,315.41Zm4.4-86.56c1.8,6.69-.6,13.71-5.8,19.4C216.26,244.12,219.46,234.35,215.46,228.85Zm134.6,90.8c-3.8,10.54-19,21.13-36.6,20.79-15.6-.33-24.8-13.35-31-29.36a612.31,612.31,0,0,0-67,32.57c-59.2,34.39-136.2,73.58-182,38.48-44.2-34.29-17.2-122.92,51.4-113.89-2.6,1-55.2,13.59-46.2,69.88,3.8,24.29,27.4,51.49,76.2,38.88,52.4-13.61,114.2-50.76,165-71.81l.4-.08c-4.2-9.58-18.4-50.48-19-52.58q-4.11,14.37-8.2,28.74c-.2,1-4.2,16.18-1,15.58s2,2.63,2,2.63q-12.81,2.4-25.6,4.68a4.74,4.74,0,0,1,3.6-3.64c3.4-.61,8-16.45,8.2-16.89q7.1-25.69,14.2-51.42l-13.2-40.36c-.2-.36-5.2-14.45-8.4-13.88a3.08,3.08,0,0,1-3.8-2.31q16.4-2.94,32.8-6a2.2,2.2,0,0,1-1.8,3.34c-3.2.6,1,14.41,1.2,15.17l9,26.7q4.1-15,8.2-30c.2-.44,4.4-16.25,1-15.59-3,.57-1.8-2.66-1.8-2.66q12.79-2.46,25.6-5a5,5,0,0,1-3.8,3.74c-3.2.62-7.8,16.12-8,17q-7.31,26.32-14.6,52.62s18,52.93,21.4,63.86c17-5.12,31.2-7.52,40.6-4.17C346.26,297.4,355.46,305.6,350.06,319.65Zm-296.4-42.5a59.45,59.45,0,0,0-31,45.93c-2.4,20.44,4.6,42.18,20.6,54.63,14.6,11.72,34.8,13.29,53.4,11,21.4-2.71,42.6-10.39,63-19.75,20-9.09,39.6-20.29,59.4-30.76,16.4-8.84,41.4-20.69,59.2-28.33-5.6,2.28-13.8,5.45-22.6,9.29-39.6,17.59-77,41.63-116.8,56.08-34.6,12.85-83.8,21.54-104.4-14.36-9.8-17-11-40-2-58.33,8.6-16.89,26.6-29.36,45-33.7A68.54,68.54,0,0,0,53.66,277.15Zm194.8-6a204.32,204.32,0,0,0-5.8,26.07c3.6-8.46,6-17.1,8.6-25.79,2.2-8.6,4.6-17.25,5.8-26.08A207.56,207.56,0,0,0,248.46,271.12Zm15.6-36.92c6.2,18.65,29.8,100.51,49.6,101-16.2-4.4-41-84.41-47.2-103.45-6-18.26-12.2-36.7-19.4-54.37C252.06,196.66,258.06,215.34,264.06,234.2Zm16.6-39.37a246.52,246.52,0,0,0-6,26.16,207.3,207.3,0,0,0,8.6-25.86,197.72,197.72,0,0,0,5.8-26.12A242.82,242.82,0,0,0,280.66,194.83Zm-2.4,115.06a.92.92,0,0,1,.4-.27A.92.92,0,0,0,278.26,309.89Zm67.2,6.66c1.6-6.91-1-14.2-6.2-17.58-6.6-4.1-15.8-3.29-24-2.08-7.4,1.06-20.2,5.76-15,4.14a83.13,83.13,0,0,1,13.6-3.26c7.8-1.14,16.4-1.43,23,2.07,5,2.82,7.6,8.51,6.4,14.75-1.6,7.91-7.8,13.13-14.8,16.5C336.06,330.6,343.66,324.31,345.46,316.55Zm-7.8-9.46c-1.6-9.29-17-9-37.8-2.58,3.6,11.29,8.6,21.52,16.4,22.38C329.66,328.26,339.26,315.57,337.66,307.09Zm32.6-127.57v66.4c-.2,17.23-14.8,32.26-32.6,37.37-18,2.94-32.6-7.8-32.6-24.6v-66.4c0-17,14.6-33.46,32.8-37.44l.2,0C355.86,152.11,370.26,162.72,370.26,179.52Zm-49.8-6.65a40.33,40.33,0,0,0-6.2,17.62c-.6,6.12-.4,12.48-.4,18.48-.2,6.43-.2,12.63-.2,18.84v19.6c.2,5.36-.2,11,1.2,16.16,2.8,8.45,11.2,16.2,21.4,14.19-10.4.65-17.8-8.1-19.4-17.78-.8-5.05-.6-10.68-.4-16.12v-17.6c0-6.2,0-12.6-.2-18.76,0-6-.6-12.09,0-18.2a39.56,39.56,0,0,1,5.4-16.47c2.8-4.55,6.6-7.89,10.6-11.28C327.66,164.85,323.66,168,320.46,172.87Zm29.6,10.58c0-9.2-5-16-12.4-18.76-7.4,5.65-12.4,14.44-12.4,23.64v66.4c0,9.19,5,16,12.4,18.76,7.4-5.66,12.4-14.44,12.4-23.64Zm4.4-16.06c3,4,4.4,9.14,4.8,14.47.6,6.08,0,12.2,0,18.2s0,11.8-.2,17.83c0,6.21,0,12.4.2,18.57,0,5.2.6,10.68-.4,16.07-1.6,10.11-9.4,21.24-19.6,24.64,10.6-2.08,19.2-13.56,21.6-23.63,1.4-5.87,1-11.79,1-17.59v-38.4c-.2-5.76,0-11.6-.8-17.24s-2.8-10.86-6.4-14.76c-3.2-3.37-7-4.82-11.4-6.16C347.66,161.32,351.66,163.34,354.46,167.39Zm-78,307.08c0,17.38-11,39.78-39.4,45-22.6,4.1-35.2-9.45-35.2-27.24,0-32.29,43.2-43.72,44-21.17-16.4-4-29.2,10.64-28.8,21.57.4,9.53,8.6,18.91,20,17.44,19-2.46,27.4-21.69,24.4-35.32-5.4-22.66-53.2-40.47-53.2-73.8,0-20.6,13.6-31.31,28-36.13,15-4.91,30.6-3.89,30.6-3.89,0,9.81-9.6,34.82-10.2,43.93-.2,1.63.4,2.72,1.4,2.94,0-.21-.2-.17-.2-.37a6.16,6.16,0,0,1,4.8-5.7,3.78,3.78,0,0,1,4.6,3.93,6,6,0,0,1-.6,2.51,13,13,0,0,1-5,5.55c-2.8,1.53-6.8,2.48-10,.07-12.2-9.14,11.4-44.7-11.8-40.42-9.2,1.67-12,11.16-11.6,24.09C229.27,425.55,276.47,436.75,276.47,474.47Zm-67.8,11c-5.8,19.18,9.2,33.08,27.2,30.61-15.4-.4-29-10.7-25-28.59,3.6-15.2,21.6-26.75,33.8-18.21C233.67,457.9,213.47,470.26,208.67,485.45Zm10-76.52c4.4,13.23,15.4,22.88,25,31.91s21.6,17.57,24.2,31.87c3.2,16.19-6.2,31.6-21.6,40.25,16-7.56,26-23.09,24-39.7-1.6-14.1-11.6-22.79-21-31.45-10.2-9.31-21.8-18.83-27.6-31.81-6.2-13.93-1.2-33.95,16-41.26C220.27,374.49,214.07,394.51,218.67,408.93Zm141-21.32c0,2.8-2.81,6.34-5.6,8.09-2.8,1.55-6.8,2.53-10,.16-12.39-9,8.8-43.93-10.59-40.52l-4.6.91v102.6c0,.8.4,15.32,3.6,14.69a2.12,2.12,0,0,1,2.8,2.45l-32.8,6.44a3.2,3.2,0,0,1,2.8-3.55c3.2-.63,3.4-14.86,3.4-16.06V360.22l-4.4.86c-19.4,4.19,1.6,30.89-10.6,44.67a10.89,10.89,0,0,1-10,3.74c-2.4-.54-5.6-2.73-5.6-5.93a6,6,0,0,1,4.6-5.68,3.89,3.89,0,0,1,4.8,3.87c0,.2,0,.2-.2.44a3.42,3.42,0,0,0,1.4-3.47c-.6-8.88-10-30.27-10-40.07,26.8-5.15,53.6-10.5,80.39-15.72,0,9.79-9.39,34.83-10,43.95-.2,1.64.4,2.72,1.21,3v-.4a6.19,6.19,0,0,1,4.79-5.74A3.75,3.75,0,0,1,359.67,387.61ZM317.07,416c0,20,.2,40,1.4,59.72,1.2-20.43,1.4-41.07,1.4-61.27,0-19.8-.2-39.56-1.4-58.93C317.27,375.73,317.07,395.77,317.07,416Zm123.19-88.18a4.72,4.72,0,0,1-3.6,3.63c-3.4.59-7.6,14.34-8.2,16.85-3.8,17.67-15.4,70.38-15.4,70.39v24c0,1,.2,12.36,2.6,14.52,52.6.07,116.8,79.46,172.2,75.56,27-1.93,40.2-20.7,43-35.44,3.6-18.43-7.2-42.23-33.4-35.22,24.6-18.48,63.8-1.1,58.6,33-4.4,29.48-39,43.29-67.6,45.59-111,10.11-140.2-84.78-188.6-77.2l-13.2,2.5a3.18,3.18,0,0,1,2.8-3.53c3.2-.61,3.4-14.85,3.4-16.05v-20.2q-8.19-34.14-16.4-68.27c-.2-.36-5-14.43-8.4-13.77a3,3,0,0,1-3.6-2.3q16.41-3.19,32.8-6.29s1.2,2.78-1.8,3.34.8,13.85,1.2,15.18L406.86,396s6.6-34,8.8-45.42c.4-2.07,3.6-16.05,1-15.58-3.2.58-2-2.63-2-2.64Q427.47,330,440.26,327.79Zm-38,92.27c.2,13.16.6,25.89,1.4,38.73.6-12.71,1-25.58,1.2-38.22,0-3.6-1.6-6.9-2.4-10.35q-1.29-4.75-2.6-9.51-2.3-8.07-4.6-16.14c-4-14.05-8.2-27.85-13-41.53C387.86,369.17,394.86,394.64,402.26,420.06Zm14.2-50.23c-2.4,11.84-4.6,23.65-5.8,35.27,3.6-11.67,6-23.5,8.6-35.18,2.2-11.59,4.6-23.43,5.8-35.24C421.46,346.32,418.86,358.2,416.46,369.83Zm38,109.73c14.4,10.39,28.2,21.41,43.2,31.24,24.8,16.24,53.4,30.2,86.2,26.45-34.4,1.5-63-14.2-88.6-31.7-15.6-10.72-30.4-22.56-46.6-32.41-10.8-6.56-23-13.2-37-12.23C428.26,460.86,442.06,470.84,454.46,479.56Zm175.8-15.84c9,5.94,12.6,16.31,12.6,26.91,0,22-18.2,34.85-37,42.54,21.4-5.84,40.8-20.8,39.6-44.38-.4-10.59-4.2-20.37-13.2-26.33-7.6-5-19.6-7.5-28.4-3.17C612.46,456.38,623.06,458.93,630.26,463.72Zm-85-33.82c0,.4,1.6,7.22,3.6,10.6-33.87,3.66-67.73,8.7-101.6,14.48a3.11,3.11,0,0,1,2.8-3.47c3.4-.58,3.4-16,3.4-16v-91.4s0-15.6-3.4-15a2.18,2.18,0,0,1-2.8-2.53q16.41-2.79,32.8-5.34a3.06,3.06,0,0,1-2.8,3.43c-3,.47-3.4,13.34-3.6,15.77V443.23c19.4-3.06,38.8-5.83,58.2-8.18C541.86,433.85,544.86,430.35,545.26,429.9Zm-83.2-41c0,20,.2,40,1.4,59.77,1.2-20.39,1.4-41,1.4-61.22,0-19.8-.2-39.57-1.4-59C462.26,348.67,462.06,368.7,462.06,388.9Zm35,21.59v-73.2s-.2-15.57-3.6-15.08c-3,.45-2.8-2.58-2.8-2.58q27.49-4.1,55-7.17c0,7-6.8,24.56-7.4,31a2.43,2.43,0,0,0,1,2.29v-.4a4,4,0,0,1,3.4-3.79,3.06,3.06,0,0,1,3.4,3c0,1.8-1.6,4.18-4.2,5.47a6.47,6.47,0,0,1-7.2-.36c-8.8-7.14,4.6-29.18-9.6-27.43-2.6.33-5.2.66-7.8,1v44c1.8-.26,15.2-2.34,15.2-5.52a2.89,2.89,0,0,1,3-3v20a2.29,2.29,0,0,1-3-2.44c0-3.22-13.4-1.74-15.2-1.68v44l3.6-.47c13.6-3.93,13.8-17.9,13.8-23.51,0-9,9.2-7.68,9.2-7.67a78.61,78.61,0,0,0,0,35.8q-26.6,3-53.2,7a3.22,3.22,0,0,1,2.8-3.42C496.86,425.91,497.06,410.49,497.06,410.49Zm8.4-36.79c0,17.19.2,34.37,1.2,51.43,1.2-17.57,1.4-35.2,1.4-52.6,0-17-.2-34-1.4-50.6C505.66,339.27,505.46,356.5,505.46,373.7ZM148.89,146.31c4.35,2.91,3,5.67-.46,6.05-3.29.18-3.33-1.14-5.74-2.09-2.42-1.1-3.58-3.86-13.2-.67-8,2.81-30.16,18.7-42,25.43-10.37,5.88-28,13.26-37,6.46-8.85-6.52-9.15-14.76-3.91-19.62a6.86,6.86,0,0,0,1.81,6.29c2.86,3.28,5.76,1.66,8.55,4.48s5.33,5.84,11.54,5.37c6.8-.44,17.22-4.89,25.48-9.85,11-6.49,24.23-15.81,31.8-19.61C134.8,143.77,145,143.72,148.89,146.31Zm-10.33,6.58s-7.71,1.88-21.2,10.27a243.06,243.06,0,0,0-20.43,14.17q-6.41,4.89-12.81,9.7c-3.63,2.77-7,4.27-7.79,3,0,0-5.89,3.69-8.23.94,0,0-10.87,3.28-21.69-5.54.31.07,10.79,6.65,27.41.73,17-6.19,27.46-14.88,35.66-20.35S128.69,153.41,138.56,152.89Zm-.08-28c-1,4.27-1,8.41,1.53,8.3a4.65,4.65,0,0,0,1.72-.63c2.83-1.23,7.58-4.78,8.36-7.67,1.11-3.71,4.09-2.94,3-.86-3.07,5.75-9.18,11.32-14,13.53l-1.55.72c-3.62,1-5.44-1.17-5.66-4.66-2.84,5.21-5.67,9.51-8.58,11.17-3.47,1.95-4.8.08-4.66-3.06.48-10,11.2-28.08,5.27-25.47-3.81,1.75-11.13,11.2-17.78,36.37l-6.06,2.69c6-23.2,16.58-48.51,21.66-59.91-2.27.89-4.73,1.54-7,2.28-2.57,5-7.64,15.41-14.19,31.07-7.39,17-14.95,43.17-33.82,40.8-13.61-2.28-12.62-24.06-.1-29.23,7.57-3.41,12.41-1,13.7,1.67s.26,5.85-2.22,8.34c0,0,.14-6.23-6.4-3.88-6.36,2.44-9.16,10.85-6.5,15.75,2.91,5.58,9,4.54,14.29-2.43,10.29-13.45,19.14-47.06,30.16-60.94-3.19.81-6.1,1.39-8.69,2.18-9.65,2.68-15.38,10.5-16.55,16.84-1.09,5.87,4,9.85,4,9.7-11.22,4.11-14.23-9.29-7.15-18.13,7.57-9.55,21.28-12.15,27.69-13.5a61.51,61.51,0,0,0,15.46-6.24l1.11-.59a35.45,35.45,0,0,0,5.29-3.93,23.37,23.37,0,0,0,5.65-8.63c3.13-.27,5.56,3.93,1.3,8.8a29.52,29.52,0,0,1-8.63,6.78c-3.36,6.82-9,18.66-14.27,32.73a19.72,19.72,0,0,0-1.17,3.26c4.2-9.21,8.12-13.2,11.51-14.69,11.16-4.92,1.6,14.94-.16,21.32-3.5,12,4,.57,5.93-2.63a9,9,0,0,0,1.07-1.91,23.51,23.51,0,0,1,1.66-6.07c4.59-11.73,13.45-20.11,18.79-21.79,6.63-2.05,6.5,4.19,2.29,10.43C150.8,118.44,143.68,124.3,138.48,124.84Zm1.77-5.37a22.37,22.37,0,0,0-1.17,3.28c7.2-.2,18.52-20.59,13.6-19.18C149.93,104.36,143.85,110.21,140.25,119.47ZM14.62,398.73c6.7,6.2,14.63,3.25,21.18,8.42S48.1,418,64.67,416.68c18.08-1.33,46.59-11.29,69.35-22.25,30.7-14.54,67.75-35.73,88.49-45.41,25.29-11.52,51.75-14.47,61.14-10.59,14.75,6.4-16.7,21.35-17.47,9.5-.25-5.17-3.95-10.73-34,.24-21.72,8.2-83.79,45.79-117,60.33-28.91,13.39-76.82,28.74-99,15.47-21.93-13.13-19.89-28.8-4-37.93C12.2,386,7.69,392.41,14.62,398.73Zm63.13,34C124,418.19,153.08,398.62,176,385.84c22.75-12.79,52.9-29.38,78.87-33.68,0-.06-20.32,6.14-57.76,26.5-25.91,14-40.46,22.88-56.63,32.48s-25.69,15.41-35.82,21.53c-10.14,6-19.62,9.34-21.35,6.95,0,0-16.33,7.92-21.75,3.05,0,0-29.25,7.4-56.07-9.24C4.79,432.82,31.5,447,77.75,432.7ZM395.41,288.88s1,7.64-8.66,8.26c-4.81.32-8.42-5.48-7.34-12.19l-1.2,1.08c-10.7,10.72-4.57,20.12-.12,19.26s5.77-7.72,12.27-5,1.8,11.93-5.53,15.25-21.29,3.26-20.93-14.13c.12-5.67,5.65-16.38,17.56-22.15a23.44,23.44,0,0,1,8.3-8c16-9.3,34.88,2.53,44.26,4.62,9,2,23.93.82,26.34-9.19,2.16-8.29-2.53-13.42-9.39-10.7-4.57,1.86,0,5.65-5.17,8.1-4.93,2.29-6.61-4.15-3.24-9.18,5.53-8.19,19.12-7.45,22.37,1.65s-3.49,23.62-20.33,23.61-36.08-14.14-51.47-7.86a15.5,15.5,0,0,0-6.62,5,38.85,38.85,0,0,1,9.62-1.58c22.13-1.16,43.9,12.61,64.71,8.58,20.2-3.91,30.43-19.9,28.74-26.28-1.32-4.86-7.21.36-8.78-5.16-1.32-4.73,5.53-7.72,10.59-5.81,6.49,2.53,7.57,11.52,2.88,20.14-4.21,7.95,1,8.51-4,13.81-1.92,2-5.05,3.16-6.73,4.39-1.93,1.37-3.13,4.08-6.74,6.45-4.81,3-8.9.93-11.9,2.26s-3.73,4.45-12.39,4.94-28-6.69-35-10.21c-5.77-3.05-21.53-11.43-33.31-6.76a13.61,13.61,0,0,0-.37,5.6C385,293,390.12,294.69,395.41,288.88Zm53.88,16.88c-19-2.53-29.83-10.14-35.48-13.44,3.37,1.53,34.28,16.1,58.09,8.39,27.3-9,44.74-29.26,50.64-40.85s7.93-25.91-2.77-30.92c0,0,15.75,2.47,17.56,18.88s-7,24-16.84,29-16.24,13.11-26.22,19C486.58,300.34,470.46,308.77,449.29,305.76Zm169.46-28.28c-9.5,2.47-10.7-6.81-5.77-9s9.14-4.25,7.94-8.66-9.39-8.28-18.41-3.53-10.1,8.33-19.72,6.78c-9.62-1.4-17.92-1.28-31.63,8.22s-38.73,25.38-50.63,30-21.77,9.41-43.78,9.92c0,0,26.22-1.42,51.95-18.88,22.13-15.17,55.45-41.57,76.26-46.77,18.28-4.79,34.51-.88,40.29,6.5C632.1,260.77,627.29,275.45,618.75,277.48Z" transform="translate(0 -76.47)" style="fill:#ffffff"/></g></g></svg>